<?xml version="1.0" encoding="UTF-8"?><svg xmlns="http://www.w3.org/2000/svg" viewBox="0 0 1920 1920" fill="CanvasText"><defs><style>.cls-1{stroke:#000;}.cls-1,.cls-2{stroke-width:1.5px;}.cls-1,.cls-2,.cls-3,.cls-4{stroke-miterlimit:10;}.cls-1,.cls-2,.cls-4{fill:none;}.cls-2{stroke:#989898;}.cls-5{fill:#00e6cd;}.cls-6{fill:#f1f1f1;}.cls-7{fill:#dc97ff;}.cls-3{fill:#dbdbdb;}.cls-3,.cls-4{stroke:#fff;stroke-width:4px;}</style></defs><g id="Graphics"><polyline class="cls-2" points="46.9835 1186.4093 408.604 379.7825 729.467 1186.4093"/><circle class="cls-5" cx="210.2435" cy="979.3477" r="207.2469" transform="translate(-630.9245 435.5089) rotate(-45)"/><circle class="cls-5" cx="605.8649" cy="998.2345" r="188.3653"/><circle class="cls-5" cx="440.5492" cy="683.7807" r="167.367"/><polyline class="cls-2" points="1886.1953 881.6333 1544.9535 71.465 1203.7118 881.6333"/><g><circle class="cls-7" cx="1408.0919" cy="697.2602" r="183.3413"/><circle class="cls-7" cx="1724.9568" cy="743.9597" r="136.6546" transform="translate(-20.8308 1437.6294) rotate(-45)"/><circle class="cls-7" cx="1641.0032" cy="499.4002" r="122.2275" transform="translate(127.5094 1306.6354) rotate(-45)"/><circle class="cls-7" cx="1426.032" cy="399.9538" r="114.3334" transform="translate(134.8651 1125.5006) rotate(-45)"/></g><g><rect class="cls-6" x="1180.786" y="881.6333" width="728.3351" height="46.198" rx="22.6806" ry="22.6806"/><path class="cls-6" d="m1765.414,1019.4685h-440.9211c-36.44,0-69.0633-22.5889-81.8853-56.6986l-13.1335-34.9386h630.9587l-13.1335,34.9386c-12.822,34.1097-45.4453,56.6986-81.8853,56.6986Z"/></g><rect class="cls-6" x="942.1699" y="253.0438" width="69.1843" height="1107.8413"/><rect class="cls-6" x="915.5117" y="1077.7579" width="122.5008" height="283.1271"/><path class="cls-6" d="m1235.7,1433.4486h7.2975v-.5442c0-39.7752-32.2442-72.0196-72.0196-72.0196h-388.4317c-39.7753,0-72.0196,32.2444-72.0196,72.0196v.5442h7.2975c-56.665,0-102.6011,45.9361-102.6011,102.6014v.7748h723.0781v-.7748c0-56.6652-45.9361-102.6014-102.6011-102.6014Z"/><path class="cls-4" d="m716.7268,1433.4487h520.0706c56.0215,0,101.5038,45.4823,101.5038,101.5038v1.8724h-723.0782v-1.8724c0-56.0215,45.4823-101.5038,101.5038-101.5038Z"/><path class="cls-4" d="m781.776,1360.8851h389.9722c39.3236,0,71.2494,31.9258,71.2494,71.2494v1.3143h-532.4709v-1.3143c0-39.3236,31.9258-71.2494,71.2494-71.2494Z"/><rect class="cls-4" x="942.1699" y="253.0438" width="69.1843" height="824.7142"/><rect class="cls-4" x="915.5117" y="1077.7579" width="122.5008" height="283.1271"/><g><path class="cls-6" d="m923.5749,241.9184l-480.7107,113.062c-3.6732,11.1327-12.6875,20.2651-24.8509,23.552-19.2308,5.1966-39.0331-6.1803-44.2297-25.4108-5.1966-19.231,6.1803-39.0333,25.4111-44.2299,12.1634-3.2869,24.5506.0625,33.331,7.8298l472.2306-144.4438,18.8186,69.6408ZM1579.7739,27.2354c-5.1966-19.231-24.9989-30.6079-44.2297-25.4113-12.1639,3.2869-21.1785,12.4202-24.8513,23.5534l-480.7424,113.0697,18.8185,69.6408,472.2619-144.454c8.7804,7.7683,21.168,11.1177,33.3319,7.8308,19.2308-5.1961,30.6078-24.9989,25.4112-44.2295Z"/><circle class="cls-6" cx="976.7627" cy="190.1827" r="76.2693"/><circle class="cls-4" cx="976.7627" cy="190.1827" r="76.2693"/><circle class="cls-3" cx="976.7627" cy="190.1827" r="32.0558"/></g><g><rect class="cls-4" x="1180.786" y="881.6333" width="728.3351" height="46.198" rx="22.6806" ry="22.6806"/><path class="cls-4" d="m1765.414,1019.4685h-440.9211c-36.44,0-69.0633-22.5889-81.8853-56.6986l-13.1335-34.9386h630.9587l-13.1335,34.9386c-12.822,34.1097-45.4453,56.6986-81.8853,56.6986Z"/></g><g><rect class="cls-6" x="24.0577" y="1186.4093" width="728.3351" height="46.198" rx="22.6806" ry="22.6806"/><path class="cls-6" d="m608.6858,1324.2445H167.7647c-36.44,0-69.0633-22.5889-81.8853-56.6986l-13.1335-34.9386h630.9587l-13.1335,34.9386c-12.822,34.1097-45.4453,56.6986-81.8853,56.6986Z"/></g><g><rect class="cls-4" x="24.0577" y="1186.4093" width="728.3351" height="46.198" rx="22.6806" ry="22.6806"/><path class="cls-4" d="m608.6858,1324.2445H167.7647c-36.44,0-69.0633-22.5889-81.8853-56.6986l-13.1335-34.9386h630.9587l-13.1335,34.9386c-12.822,34.1097-45.4453,56.6986-81.8853,56.6986Z"/></g><line class="cls-1" x1="34.2304" y1="1534.9525" x2="1919.2938" y2="1534.9525"/><line class="cls-1" x1="976.7621" y1="1534.9525" x2="976.7621" y2="1650.904"/></g><g id="Text"><rect class="cls-5" x="183.1762" y="1624.5742" width="411.1728" height="57.4443"/><rect class="cls-7" x="1437.3178" y="1624.5742" width="215.2713" height="57.4443"/><g><path d="m184.6654,959.1779h9.5v4.0938h-14.9062v-1.6875c0-1.1458.1926-2.1743.5781-3.0859.3853-.9114.8696-1.729,1.4531-2.4531.5833-.7239,1.2212-1.3645,1.9141-1.9219.6926-.5571,1.3516-1.0598,1.9766-1.5078.6562-.4688,1.2317-.9165,1.7266-1.3438.4946-.427.9114-.8516,1.25-1.2734.3384-.4219.5911-.8489.7578-1.2812.1665-.4321.25-.8931.25-1.3828,0-.9583-.271-1.6821-.8125-2.1719-.5417-.4895-1.3699-.7344-2.4844-.7344-1.9272,0-3.771.7656-5.5312,2.2969v-4.3438c1.9478-1.2603,4.1458-1.8906,6.5938-1.8906,1.1353,0,2.1536.1484,3.0547.4453.9009.2969,1.6641.7214,2.2891,1.2734.625.5522,1.1016,1.2214,1.4297,2.0078.3281.7866.4922,1.6641.4922,2.6328,0,1.0312-.1589,1.948-.4766,2.75-.3179.8022-.7397,1.5312-1.2656,2.1875-.5261.6562-1.1328,1.2578-1.8203,1.8047s-1.4011,1.0757-2.1406,1.5859c-.5.3542-.9819.7058-1.4453,1.0547-.4636.3491-.8726.6929-1.2266,1.0312-.3542.3386-.6355.6694-.8438.9922-.2085.323-.3125.6304-.3125.9219Z"/><path d="m198.1966,962.5373v-4.2969c1.5,1.0938,3.25,1.6406,5.25,1.6406,1.2603,0,2.2422-.2708,2.9453-.8125.7031-.5415,1.0547-1.2969,1.0547-2.2656,0-1-.4351-1.7708-1.3047-2.3125-.8699-.5415-2.0652-.8125-3.5859-.8125h-2.0781v-3.7812h1.9219c2.9165,0,4.375-.9688,4.375-2.9062,0-1.8228-1.1199-2.7344-3.3594-2.7344-1.5,0-2.9585.4844-4.375,1.4531v-4.0312c1.5728-.7915,3.4062-1.1875,5.5-1.1875,2.2915,0,4.0754.5156,5.3516,1.5469,1.2759,1.0312,1.9141,2.3699,1.9141,4.0156,0,2.9272-1.4844,4.7605-4.4531,5.5v.0781c1.5833.198,2.8333.7734,3.75,1.7266.9165.9531,1.375,2.1226,1.375,3.5078,0,2.0938-.7656,3.75-2.2969,4.9688s-3.646,1.8281-6.3438,1.8281c-2.3125,0-4.1929-.375-5.6406-1.125Z"/><path d="m221.4935,952.2248c-1.5938,0-2.8777-.5051-3.8516-1.5156-.9741-1.0103-1.4609-2.3696-1.4609-4.0781,0-1.8645.5181-3.3438,1.5547-4.4375,1.0364-1.0938,2.4192-1.6406,4.1484-1.6406,1.6562,0,2.9504.4949,3.8828,1.4844.9321.9897,1.3984,2.3804,1.3984,4.1719,0,1.8438-.5156,3.3074-1.5469,4.3906-1.0312,1.0835-2.4062,1.625-4.125,1.625Zm16.3594-11.3594l-14.5938,22.4062h-3.8125l14.5625-22.4062h3.8438Zm-16.0625,2.4375c-1.521,0-2.2812,1.0574-2.2812,3.1719,0,2,.7239,3,2.1719,3,1.479,0,2.2188-1.0415,2.2188-3.125,0-2.0312-.7031-3.0469-2.1094-3.0469Zm13.6562,20.2812c-1.5938,0-2.8777-.5051-3.8516-1.5156-.9741-1.0103-1.4609-2.3696-1.4609-4.0781,0-1.8645.5181-3.3438,1.5547-4.4375,1.0364-1.0938,2.4192-1.6406,4.1484-1.6406,1.6665,0,2.9634.4897,3.8906,1.4688.927.9792,1.3906,2.3647,1.3906,4.1562,0,1.8438-.5156,3.3125-1.5469,4.4062s-2.4062,1.6406-4.125,1.6406Zm.25-8.9219c-1.5105,0-2.2656,1.0574-2.2656,3.1719,0,2,.7344,3,2.2031,3,1.479,0,2.2188-1.0415,2.2188-3.125,0-.9688-.198-1.7188-.5938-2.25-.396-.5312-.9167-.7969-1.5625-.7969Z"/><path d="m119.2747,979.2404h-6.4688v20.0312h-2.625v-20.0312h-6.4531v-2.375h15.5469v2.375Z"/><path d="m132.181,991.9123h-11.2969c.0415,1.7812.5208,3.1562,1.4375,4.125.9165.9688,2.177,1.4531,3.7812,1.4531,1.802,0,3.4583-.5938,4.9688-1.7812v2.4062c-1.4062,1.021-3.2656,1.5312-5.5781,1.5312-2.2605,0-4.0366-.7266-5.3281-2.1797-1.2917-1.4531-1.9375-3.4973-1.9375-6.1328,0-2.4895.7056-4.5181,2.1172-6.0859,1.4114-1.5676,3.1641-2.3516,5.2578-2.3516s3.7134.6772,4.8594,2.0312c1.1458,1.3542,1.7188,3.2344,1.7188,5.6406v1.3438Zm-2.625-2.1719c-.0105-1.479-.3672-2.6301-1.0703-3.4531-.7031-.8228-1.6797-1.2344-2.9297-1.2344-1.2085,0-2.2344.4324-3.0781,1.2969-.8438.8647-1.3647,1.9949-1.5625,3.3906h8.6406Z"/><path d="m147.5091,999.2717h-2.5625v-2.5h-.0625c-1.1147,1.9167-2.7554,2.875-4.9219,2.875-1.5938,0-2.8413-.4219-3.7422-1.2656-.9011-.8438-1.3516-1.9634-1.3516-3.3594,0-2.9895,1.7603-4.729,5.2812-5.2188l4.7969-.6719c0-2.7188-1.0991-4.0781-3.2969-4.0781-1.9272,0-3.6667.6562-5.2188,1.9688v-2.625c1.5728-1,3.3853-1.5,5.4375-1.5,3.7603,0,5.6406,1.9897,5.6406,5.9688v10.4062Zm-2.5625-8.0938l-3.8594.5312c-1.1875.1667-2.0835.4609-2.6875.8828-.6042.4219-.9062,1.1694-.9062,2.2422,0,.7812.2786,1.4194.8359,1.9141.5571.4949,1.2993.7422,2.2266.7422,1.2708,0,2.3203-.4453,3.1484-1.3359s1.2422-2.0181,1.2422-3.3828v-1.5938Z"/><path d="m175.056,999.2717h-2.5625v-9.1875c0-1.7708-.2734-3.052-.8203-3.8438-.5469-.7915-1.4663-1.1875-2.7578-1.1875-1.0938,0-2.0234.5-2.7891,1.5s-1.1484,2.198-1.1484,3.5938v9.125h-2.5625v-9.5c0-3.1458-1.2136-4.7188-3.6406-4.7188-1.125,0-2.0522.4714-2.7812,1.4141-.7292.9429-1.0938,2.1694-1.0938,3.6797v9.125h-2.5625v-16h2.5625v2.5312h.0625c1.1353-1.9375,2.7915-2.9062,4.9688-2.9062,1.0938,0,2.0469.3047,2.8594.9141s1.3696,1.4089,1.6719,2.3984c1.1875-2.2083,2.9583-3.3125,5.3125-3.3125,3.5208,0,5.2812,2.1719,5.2812,6.5156v9.8594Z"/><path d="m178.931,998.6935v-2.75c1.3958,1.0312,2.9321,1.5469,4.6094,1.5469,2.25,0,3.375-.75,3.375-2.25,0-.427-.0964-.7891-.2891-1.0859-.1929-.2969-.4531-.5598-.7812-.7891-.3281-.229-.7136-.4348-1.1562-.6172-.4429-.1821-.9194-.3723-1.4297-.5703-.7085-.2812-1.3308-.5649-1.8672-.8516-.5366-.2864-.9844-.6094-1.3438-.9688s-.6304-.7681-.8125-1.2266c-.1824-.4583-.2734-.9946-.2734-1.6094,0-.75.1719-1.4141.5156-1.9922s.802-1.0625,1.375-1.4531c.5728-.3906,1.2266-.6848,1.9609-.8828.7344-.1978,1.4922-.2969,2.2734-.2969,1.3853,0,2.625.2397,3.7188.7188v2.5938c-1.1772-.7708-2.5312-1.1562-4.0625-1.1562-.4792,0-.9116.0547-1.2969.1641-.3855.1094-.7163.2632-.9922.4609-.2761.198-.4897.4351-.6406.7109-.1511.2761-.2266.5808-.2266.9141,0,.4167.0754.7656.2266,1.0469.1509.2812.3723.5312.6641.75.2915.2188.6458.4167,1.0625.5938.4165.1772.8906.3699,1.4219.5781.7083.271,1.3438.5496,1.9062.8359.5625.2866,1.0415.6094,1.4375.9688.3958.3594.7004.7734.9141,1.2422.2134.4688.3203,1.0261.3203,1.6719,0,.7917-.1746,1.4792-.5234,2.0625-.3491.5835-.8152,1.0679-1.3984,1.4531-.5835.3855-1.2554.6719-2.0156.8594-.7605.1875-1.5574.2812-2.3906.2812-1.646,0-3.073-.3179-4.2812-.9531Z"/><path d="m225.431,999.2717h-2.6094v-15.0312c0-1.1875.0728-2.6406.2188-4.3594h-.0625c-.25,1.0105-.4741,1.7344-.6719,2.1719l-7.6562,17.2188h-1.2812l-7.6406-17.0938c-.2188-.5-.4429-1.2656-.6719-2.2969h-.0625c.0833.896.125,2.3594.125,4.3906v15h-2.5312v-22.4062h3.4688l6.875,15.625c.5312,1.198.875,2.0938,1.0312,2.6875h.0938c.4478-1.229.8071-2.1458,1.0781-2.75l7.0156-15.5625h3.2812v22.4062Z"/><path d="m243.8372,991.9123h-11.2969c.0415,1.7812.5208,3.1562,1.4375,4.125.9165.9688,2.177,1.4531,3.7812,1.4531,1.802,0,3.4583-.5938,4.9688-1.7812v2.4062c-1.4062,1.021-3.2656,1.5312-5.5781,1.5312-2.2605,0-4.0366-.7266-5.3281-2.1797-1.2917-1.4531-1.9375-3.4973-1.9375-6.1328,0-2.4895.7056-4.5181,2.1172-6.0859,1.4114-1.5676,3.1641-2.3516,5.2578-2.3516s3.7134.6772,4.8594,2.0312c1.1458,1.3542,1.7188,3.2344,1.7188,5.6406v1.3438Zm-2.625-2.1719c-.0105-1.479-.3672-2.6301-1.0703-3.4531-.7031-.8228-1.6797-1.2344-2.9297-1.2344-1.2085,0-2.2344.4324-3.0781,1.2969-.8438.8647-1.3647,1.9949-1.5625,3.3906h8.6406Z"/><path d="m260.5716,991.9123h-11.2969c.0415,1.7812.5208,3.1562,1.4375,4.125.9165.9688,2.177,1.4531,3.7812,1.4531,1.802,0,3.4583-.5938,4.9688-1.7812v2.4062c-1.4062,1.021-3.2656,1.5312-5.5781,1.5312-2.2605,0-4.0366-.7266-5.3281-2.1797-1.2917-1.4531-1.9375-3.4973-1.9375-6.1328,0-2.4895.7056-4.5181,2.1172-6.0859,1.4114-1.5676,3.1641-2.3516,5.2578-2.3516s3.7134.6772,4.8594,2.0312c1.1458,1.3542,1.7188,3.2344,1.7188,5.6406v1.3438Zm-2.625-2.1719c-.0105-1.479-.3672-2.6301-1.0703-3.4531-.7031-.8228-1.6797-1.2344-2.9297-1.2344-1.2085,0-2.2344.4324-3.0781,1.2969-.8438.8647-1.3647,1.9949-1.5625,3.3906h8.6406Z"/><path d="m271.8685,999.1154c-.6042.3333-1.4011.5-2.3906.5-2.8022,0-4.2031-1.5625-4.2031-4.6875v-9.4688h-2.75v-2.1875h2.75v-3.9062l2.5625-.8281v4.7344h4.0312v2.1875h-4.0312v9.0156c0,1.073.1821,1.8386.5469,2.2969.3645.4585.9688.6875,1.8125.6875.6458,0,1.2031-.177,1.6719-.5312v2.1875Z"/><path d="m276.6029,979.2092c-.4585,0-.8491-.1562-1.1719-.4688-.323-.3125-.4844-.7083-.4844-1.1875,0-.479.1614-.8774.4844-1.1953.3228-.3176.7134-.4766,1.1719-.4766.4688,0,.8672.1589,1.1953.4766.3281.3179.4922.7163.4922,1.1953,0,.4585-.1641.8491-.4922,1.1719-.3281.323-.7266.4844-1.1953.4844Zm1.25,20.0625h-2.5625v-16h2.5625v16Z"/><path d="m296.3216,999.2717h-2.5625v-9.125c0-3.3958-1.2397-5.0938-3.7188-5.0938-1.2812,0-2.3413.4819-3.1797,1.4453-.8386.9636-1.2578,2.1797-1.2578,3.6484v9.125h-2.5625v-16h2.5625v2.6562h.0625c1.2083-2.0208,2.9583-3.0312,5.25-3.0312,1.75,0,3.0884.5652,4.0156,1.6953.927,1.1304,1.3906,2.7632,1.3906,4.8984v9.7812Z"/><path d="m314.806,997.9904c0,5.875-2.8125,8.8125-8.4375,8.8125-1.9792,0-3.7085-.375-5.1875-1.125v-2.5625c1.802,1,3.5208,1.5,5.1562,1.5,3.9375,0,5.9062-2.0938,5.9062-6.2812v-1.75h-.0625c-1.2188,2.0417-3.0522,3.0625-5.5,3.0625-1.9897,0-3.5913-.7109-4.8047-2.1328-1.2136-1.4219-1.8203-3.3306-1.8203-5.7266,0-2.7188.6536-4.8801,1.9609-6.4844,1.3071-1.604,3.0962-2.4062,5.3672-2.4062,2.1562,0,3.7551.8647,4.7969,2.5938h.0625v-2.2188h2.5625v14.7188Zm-2.5625-5.9531v-2.3594c0-1.2708-.4297-2.3594-1.2891-3.2656s-1.9297-1.3594-3.2109-1.3594c-1.5835,0-2.823.5757-3.7188,1.7266-.896,1.1511-1.3438,2.7632-1.3438,4.8359,0,1.7812.4297,3.2058,1.2891,4.2734.8594,1.0679,1.9973,1.6016,3.4141,1.6016,1.4375,0,2.6067-.5103,3.5078-1.5312.9009-1.0208,1.3516-2.3281,1.3516-3.9219Z"/></g><g><path d="m586.5836,958.3088v22.9062h-4.9219v-17.3438c-.271.2397-.5913.4663-.9609.6797-.3699.2136-.7632.4062-1.1797.5781-.4167.1719-.8491.3179-1.2969.4375-.448.1199-.8906.2058-1.3281.2578v-4.1562c1.2812-.375,2.4895-.854,3.625-1.4375,1.1353-.5833,2.1614-1.2239,3.0781-1.9219h2.9844Z"/><path d="m608.9742,968.9338c0,1.9897-.2188,3.7683-.6562,5.3359-.4375,1.5679-1.0757,2.8933-1.9141,3.9766-.8386,1.0835-1.8621,1.9141-3.0703,2.4922-1.2085.5781-2.5781.8672-4.1094.8672-1.8335,0-3.4116-.2917-4.7344-.875v-4.0625c1.177.771,2.5938,1.1562,4.25,1.1562,1.6978,0,3.0259-.5781,3.9844-1.7344.9583-1.1562,1.4426-2.8281,1.4531-5.0156l-.0938-.0312c-.9897,1.4688-2.4949,2.2031-4.5156,2.2031-.9167,0-1.7632-.1719-2.5391-.5156-.7761-.3438-1.448-.8203-2.0156-1.4297-.5679-.6094-1.0105-1.3359-1.3281-2.1797-.3179-.8438-.4766-1.7708-.4766-2.7812,0-1.177.1926-2.25.5781-3.2188.3853-.9688.9243-1.802,1.6172-2.5.6926-.6978,1.5234-1.2368,2.4922-1.6172.9688-.3801,2.0415-.5703,3.2188-.5703,1.2188,0,2.3125.2371,3.2812.7109.9688.4741,1.7942,1.1589,2.4766,2.0547.6821.896,1.2031,1.9949,1.5625,3.2969.3594,1.3022.5391,2.7812.5391,4.4375Zm-4.9844-2.625c0-.5728-.073-1.1118-.2188-1.6172-.146-.5051-.3491-.9399-.6094-1.3047-.2605-.3645-.5781-.6536-.9531-.8672-.375-.2134-.7866-.3203-1.2344-.3203-.4272,0-.8203.0938-1.1797.2812s-.6694.4453-.9297.7734c-.2605.3281-.4636.7214-.6094,1.1797-.146.4585-.2188.9531-.2188,1.4844,0,.5835.0728,1.1016.2188,1.5547.1458.4531.3516.8359.6172,1.1484s.5859.5496.9609.7109c.375.1616.7915.2422,1.25.2422.4375,0,.8333-.0859,1.1875-.2578.354-.1719.6587-.4036.9141-.6953.2551-.2915.4531-.6353.5938-1.0312.1406-.3958.2109-.8228.2109-1.2812Z"/><path d="m617.1148,970.1681c-1.5938,0-2.8777-.5051-3.8516-1.5156-.9741-1.0103-1.4609-2.3696-1.4609-4.0781,0-1.8645.5181-3.3438,1.5547-4.4375,1.0364-1.0938,2.4192-1.6406,4.1484-1.6406,1.6562,0,2.9504.4949,3.8828,1.4844.9321.9897,1.3984,2.3804,1.3984,4.1719,0,1.8438-.5156,3.3074-1.5469,4.3906-1.0312,1.0835-2.4062,1.625-4.125,1.625Zm16.3594-11.3594l-14.5938,22.4062h-3.8125l14.5625-22.4062h3.8438Zm-16.0625,2.4375c-1.521,0-2.2812,1.0574-2.2812,3.1719,0,2,.7239,3,2.1719,3,1.479,0,2.2188-1.0415,2.2188-3.125,0-2.0312-.7031-3.0469-2.1094-3.0469Zm13.6562,20.2812c-1.5938,0-2.8777-.5051-3.8516-1.5156-.9741-1.0103-1.4609-2.3696-1.4609-4.0781,0-1.8645.5181-3.3438,1.5547-4.4375,1.0364-1.0938,2.4192-1.6406,4.1484-1.6406,1.6665,0,2.9634.4897,3.8906,1.4688.927.9792,1.3906,2.3647,1.3906,4.1562,0,1.8438-.5156,3.3125-1.5469,4.4062s-2.4062,1.6406-4.125,1.6406Zm.25-8.9219c-1.5105,0-2.2656,1.0574-2.2656,3.1719,0,2,.7344,3,2.2031,3,1.479,0,2.2188-1.0415,2.2188-3.125,0-.9688-.198-1.7188-.5938-2.25-.396-.5312-.9167-.7969-1.5625-.7969Z"/><path d="m541.2476,997.1838h-6.4688v20.0312h-2.625v-20.0312h-6.4531v-2.375h15.5469v2.375Z"/><path d="m554.1539,1009.8556h-11.2969c.0415,1.7812.5208,3.1562,1.4375,4.125.9165.9688,2.177,1.4531,3.7812,1.4531,1.802,0,3.4583-.5938,4.9688-1.7812v2.4062c-1.4062,1.021-3.2656,1.5312-5.5781,1.5312-2.2605,0-4.0366-.7266-5.3281-2.1797-1.2917-1.4531-1.9375-3.4973-1.9375-6.1328,0-2.4895.7056-4.5181,2.1172-6.0859,1.4114-1.5676,3.1641-2.3516,5.2578-2.3516s3.7134.6772,4.8594,2.0312c1.1458,1.3542,1.7188,3.2344,1.7188,5.6406v1.3438Zm-2.625-2.1719c-.0105-1.479-.3672-2.6301-1.0703-3.4531-.7031-.8228-1.6797-1.2344-2.9297-1.2344-1.2085,0-2.2344.4324-3.0781,1.2969-.8438.8647-1.3647,1.9949-1.5625,3.3906h8.6406Z"/><path d="m569.482,1017.215h-2.5625v-2.5h-.0625c-1.1147,1.9167-2.7554,2.875-4.9219,2.875-1.5938,0-2.8413-.4219-3.7422-1.2656-.9011-.8438-1.3516-1.9634-1.3516-3.3594,0-2.9895,1.7603-4.729,5.2812-5.2188l4.7969-.6719c0-2.7188-1.0991-4.0781-3.2969-4.0781-1.9272,0-3.6667.6562-5.2188,1.9688v-2.625c1.5728-1,3.3853-1.5,5.4375-1.5,3.7603,0,5.6406,1.9897,5.6406,5.9688v10.4062Zm-2.5625-8.0938l-3.8594.5312c-1.1875.1667-2.0835.4609-2.6875.8828-.6042.4219-.9062,1.1694-.9062,2.2422,0,.7812.2786,1.4194.8359,1.9141.5571.4949,1.2993.7422,2.2266.7422,1.2708,0,2.3203-.4453,3.1484-1.3359s1.2422-2.0181,1.2422-3.3828v-1.5938Z"/><path d="m597.0289,1017.215h-2.5625v-9.1875c0-1.7708-.2734-3.052-.8203-3.8438-.5469-.7915-1.4663-1.1875-2.7578-1.1875-1.0938,0-2.0234.5-2.7891,1.5s-1.1484,2.198-1.1484,3.5938v9.125h-2.5625v-9.5c0-3.1458-1.2136-4.7188-3.6406-4.7188-1.125,0-2.0522.4714-2.7812,1.4141-.7292.9429-1.0938,2.1694-1.0938,3.6797v9.125h-2.5625v-16h2.5625v2.5312h.0625c1.1353-1.9375,2.7915-2.9062,4.9688-2.9062,1.0938,0,2.0469.3047,2.8594.9141s1.3696,1.4089,1.6719,2.3984c1.1875-2.2083,2.9583-3.3125,5.3125-3.3125,3.5208,0,5.2812,2.1719,5.2812,6.5156v9.8594Z"/><path d="m600.9039,1016.6369v-2.75c1.3958,1.0312,2.9321,1.5469,4.6094,1.5469,2.25,0,3.375-.75,3.375-2.25,0-.427-.0964-.7891-.2891-1.0859-.1929-.2969-.4531-.5598-.7812-.7891-.3281-.229-.7136-.4348-1.1562-.6172-.4429-.1821-.9194-.3723-1.4297-.5703-.7085-.2812-1.3308-.5649-1.8672-.8516-.5366-.2864-.9844-.6094-1.3438-.9688s-.6304-.7681-.8125-1.2266c-.1824-.4583-.2734-.9946-.2734-1.6094,0-.75.1719-1.4141.5156-1.9922s.802-1.0625,1.375-1.4531c.5728-.3906,1.2266-.6848,1.9609-.8828.7344-.1978,1.4922-.2969,2.2734-.2969,1.3853,0,2.625.2397,3.7188.7188v2.5938c-1.1772-.7708-2.5312-1.1562-4.0625-1.1562-.4792,0-.9116.0547-1.2969.1641-.3855.1094-.7163.2632-.9922.4609-.2761.198-.4897.4351-.6406.7109-.1511.2761-.2266.5808-.2266.9141,0,.4167.0754.7656.2266,1.0469.1509.2812.3723.5312.6641.75.2915.2188.6458.4167,1.0625.5938.4165.1772.8906.3699,1.4219.5781.7083.271,1.3438.5496,1.9062.8359.5625.2866,1.0415.6094,1.4375.9688.3958.3594.7004.7734.9141,1.2422.2134.4688.3203,1.0261.3203,1.6719,0,.7917-.1746,1.4792-.5234,2.0625-.3491.5835-.8152,1.0679-1.3984,1.4531-.5835.3855-1.2554.6719-2.0156.8594-.7605.1875-1.5574.2812-2.3906.2812-1.646,0-3.073-.3179-4.2812-.9531Z"/><path d="m639.8101,1016.2775c-1.6562.875-3.7188,1.3125-6.1875,1.3125-3.1875,0-5.7397-1.0259-7.6562-3.0781-1.9167-2.052-2.875-4.7446-2.875-8.0781,0-3.5833,1.0781-6.479,3.2344-8.6875,2.1562-2.2083,4.8906-3.3125,8.2031-3.3125,2.125,0,3.8853.3074,5.2812.9219v2.7969c-1.6042-.8958-3.375-1.3438-5.3125-1.3438-2.573,0-4.6589.8594-6.2578,2.5781-1.5991,1.7188-2.3984,4.0156-2.3984,6.8906,0,2.7292.7473,4.9038,2.2422,6.5234,1.4946,1.6199,3.4556,2.4297,5.8828,2.4297,2.25,0,4.1978-.5,5.8438-1.5v2.5469Z"/><path d="m657.3101,1017.215h-2.5625v-9.2188c0-3.3333-1.2397-5-3.7188-5-1.25,0-2.3022.4819-3.1562,1.4453-.8542.9636-1.2812,2.2007-1.2812,3.7109v9.0625h-2.5625v-23.6875h2.5625v10.3438h.0625c1.229-2.0208,2.979-3.0312,5.25-3.0312,3.604,0,5.4062,2.1719,5.4062,6.5156v9.8594Z"/><path d="m673.5914,1017.215h-2.5625v-2.5h-.0625c-1.1147,1.9167-2.7554,2.875-4.9219,2.875-1.5938,0-2.8413-.4219-3.7422-1.2656-.9011-.8438-1.3516-1.9634-1.3516-3.3594,0-2.9895,1.7603-4.729,5.2812-5.2188l4.7969-.6719c0-2.7188-1.0991-4.0781-3.2969-4.0781-1.9272,0-3.6667.6562-5.2188,1.9688v-2.625c1.5728-1,3.3853-1.5,5.4375-1.5,3.7603,0,5.6406,1.9897,5.6406,5.9688v10.4062Zm-2.5625-8.0938l-3.8594.5312c-1.1875.1667-2.0835.4609-2.6875.8828-.6042.4219-.9062,1.1694-.9062,2.2422,0,.7812.2786,1.4194.8359,1.9141.5571.4949,1.2993.7422,2.2266.7422,1.2708,0,2.3203-.4453,3.1484-1.3359s1.2422-2.0181,1.2422-3.3828v-1.5938Z"/><path d="m685.8414,1017.0588c-.6042.3333-1.4011.5-2.3906.5-2.8022,0-4.2031-1.5625-4.2031-4.6875v-9.4688h-2.75v-2.1875h2.75v-3.9062l2.5625-.8281v4.7344h4.0312v2.1875h-4.0312v9.0156c0,1.073.1821,1.8386.5469,2.2969.3645.4585.9688.6875,1.8125.6875.6458,0,1.2031-.177,1.6719-.5312v2.1875Z"/></g><g><path d="m421.2679,647.4397v22.9062h-4.9219v-17.3438c-.271.2397-.5913.4663-.9609.6797-.3699.2136-.7632.4062-1.1797.5781-.4167.1719-.8491.3179-1.2969.4375-.448.1199-.8906.2058-1.3281.2578v-4.1562c1.2812-.375,2.4895-.854,3.625-1.4375,1.1353-.5833,2.1614-1.2239,3.0781-1.9219h2.9844Z"/><path d="m428.8929,669.7679v-4.2188c1.5312.9375,3.1614,1.4062,4.8906,1.4062,1.302,0,2.3203-.3098,3.0547-.9297.7344-.6196,1.1016-1.4609,1.1016-2.5234,0-2.2188-1.5679-3.3281-4.7031-3.3281-1.1562,0-2.4897.0886-4,.2656l.8438-12.5h11.8594v4.0312h-8.0938l-.3125,4.4844c.802-.0625,1.4946-.0938,2.0781-.0938,2.302,0,4.104.6042,5.4062,1.8125,1.302,1.2085,1.9531,2.8335,1.9531,4.875,0,2.2605-.7761,4.1069-2.3281,5.5391-1.5522,1.4324-3.6562,2.1484-6.3125,2.1484-2.1562,0-3.9688-.323-5.4375-.9688Z"/><path d="m451.7991,659.2991c-1.5938,0-2.8777-.5051-3.8516-1.5156-.9741-1.0103-1.4609-2.3696-1.4609-4.0781,0-1.8645.5181-3.3438,1.5547-4.4375,1.0364-1.0938,2.4192-1.6406,4.1484-1.6406,1.6562,0,2.9504.4949,3.8828,1.4844.9321.9897,1.3984,2.3804,1.3984,4.1719,0,1.8438-.5156,3.3074-1.5469,4.3906-1.0312,1.0835-2.4062,1.625-4.125,1.625Zm16.3594-11.3594l-14.5938,22.4062h-3.8125l14.5625-22.4062h3.8438Zm-16.0625,2.4375c-1.521,0-2.2812,1.0574-2.2812,3.1719,0,2,.7239,3,2.1719,3,1.479,0,2.2188-1.0415,2.2188-3.125,0-2.0312-.7031-3.0469-2.1094-3.0469Zm13.6562,20.2812c-1.5938,0-2.8777-.5051-3.8516-1.5156-.9741-1.0103-1.4609-2.3696-1.4609-4.0781,0-1.8645.5181-3.3438,1.5547-4.4375,1.0364-1.0938,2.4192-1.6406,4.1484-1.6406,1.6665,0,2.9634.4897,3.8906,1.4688.927.9792,1.3906,2.3647,1.3906,4.1562,0,1.8438-.5156,3.3125-1.5469,4.4062s-2.4062,1.6406-4.125,1.6406Zm.25-8.9219c-1.5105,0-2.2656,1.0574-2.2656,3.1719,0,2,.7344,3,2.2031,3,1.479,0,2.2188-1.0415,2.2188-3.125,0-.9688-.198-1.7188-.5938-2.25-.396-.5312-.9167-.7969-1.5625-.7969Z"/><path d="m417.596,706.346h-11.875v-22.4062h11.375v2.375h-8.75v7.4531h8.0938v2.3594h-8.0938v7.8438h9.25v2.375Z"/><path d="m444.2835,706.346h-2.5625v-9.1875c0-1.7708-.2734-3.052-.8203-3.8438-.5469-.7915-1.4663-1.1875-2.7578-1.1875-1.0938,0-2.0234.5-2.7891,1.5s-1.1484,2.198-1.1484,3.5938v9.125h-2.5625v-9.5c0-3.1458-1.2136-4.7188-3.6406-4.7188-1.125,0-2.0522.4714-2.7812,1.4141-.7292.9429-1.0938,2.1694-1.0938,3.6797v9.125h-2.5625v-16h2.5625v2.5312h.0625c1.1353-1.9375,2.7915-2.9062,4.9688-2.9062,1.0938,0,2.0469.3047,2.8594.9141s1.3696,1.4089,1.6719,2.3984c1.1875-2.2083,2.9583-3.3125,5.3125-3.3125,3.5208,0,5.2812,2.1719,5.2812,6.5156v9.8594Z"/><path d="m460.5804,706.346h-2.5625v-2.5h-.0625c-1.1147,1.9167-2.7554,2.875-4.9219,2.875-1.5938,0-2.8413-.4219-3.7422-1.2656-.9011-.8438-1.3516-1.9634-1.3516-3.3594,0-2.9895,1.7603-4.729,5.2812-5.2188l4.7969-.6719c0-2.7188-1.0991-4.0781-3.2969-4.0781-1.9272,0-3.6667.6562-5.2188,1.9688v-2.625c1.5728-1,3.3853-1.5,5.4375-1.5,3.7603,0,5.6406,1.9897,5.6406,5.9688v10.4062Zm-2.5625-8.0938l-3.8594.5312c-1.1875.1667-2.0835.4609-2.6875.8828-.6042.4219-.9062,1.1694-.9062,2.2422,0,.7812.2786,1.4194.8359,1.9141.5571.4949,1.2993.7422,2.2266.7422,1.2708,0,2.3203-.4453,3.1484-1.3359s1.2422-2.0181,1.2422-3.3828v-1.5938Z"/><path d="m466.721,686.2835c-.4585,0-.8491-.1562-1.1719-.4688-.323-.3125-.4844-.7083-.4844-1.1875,0-.479.1614-.8774.4844-1.1953.3228-.3176.7134-.4766,1.1719-.4766.4688,0,.8672.1589,1.1953.4766.3281.3179.4922.7163.4922,1.1953,0,.4585-.1641.8491-.4922,1.1719-.3281.323-.7266.4844-1.1953.4844Zm1.25,20.0625h-2.5625v-16h2.5625v16Z"/><path d="m475.721,706.346h-2.5625v-23.6875h2.5625v23.6875Z"/></g><g><path d="m1388.8106,659.6703v22.9062h-4.9219v-17.3438c-.271.2397-.5913.4663-.9609.6797-.3699.2136-.7632.4062-1.1797.5781-.4167.1719-.8491.3179-1.2969.4375-.448.1199-.8906.2058-1.3281.2578v-4.1562c1.2812-.375,2.4895-.854,3.625-1.4375,1.1353-.5833,2.1614-1.2239,3.0781-1.9219h2.9844Z"/><path d="m1395.4669,676.5453c0-.625.0911-1.2266.2734-1.8047.1821-.5781.4556-1.1145.8203-1.6094.3645-.4946.8203-.9375,1.3672-1.3281s1.1899-.7109,1.9297-.9609c-1.1355-.5625-2.0156-1.2837-2.6406-2.1641-.625-.8801-.9375-1.8567-.9375-2.9297,0-.854.1797-1.6458.5391-2.375.3594-.729.8567-1.3594,1.4922-1.8906.6353-.5312,1.3931-.9453,2.2734-1.2422.8801-.2969,1.8411-.4453,2.8828-.4453,1.0625,0,2.0364.1484,2.9219.4453.8853.2969,1.6484.7085,2.2891,1.2344.6406.5261,1.1379,1.1484,1.4922,1.8672.354.7188.5312,1.5.5312,2.3438,0,1.0625-.3335,2.0288-1,2.8984-.6667.8699-1.5886,1.5859-2.7656,2.1484.729.25,1.3696.5703,1.9219.9609.552.3906,1.0156.8359,1.3906,1.3359s.6562,1.0444.8438,1.6328c.1875.5886.2812,1.2007.2812,1.8359,0,.9585-.1929,1.8308-.5781,2.6172-.3855.7866-.9297,1.4636-1.6328,2.0312-.7031.5679-1.5417,1.0078-2.5156,1.3203-.9741.3125-2.0496.4688-3.2266.4688-1.1562,0-2.2214-.1538-3.1953-.4609-.9741-.3071-1.8125-.7422-2.5156-1.3047s-1.2527-1.2368-1.6484-2.0234c-.396-.7864-.5938-1.6536-.5938-2.6016Zm4.6719-.4219c0,.5105.0781.9688.2344,1.375s.3801.75.6719,1.0312c.2915.2812.6379.4976,1.0391.6484.4009.1511.8516.2266,1.3516.2266.479,0,.9192-.0781,1.3203-.2344.4009-.1562.7473-.375,1.0391-.6562.2915-.2812.5208-.625.6875-1.0312.1665-.4062.25-.8594.25-1.3594,0-.4478-.0781-.875-.2344-1.2812s-.3804-.7578-.6719-1.0547c-.2917-.2969-.6382-.5337-1.0391-.7109-.4011-.177-.8516-.2656-1.3516-.2656-.4688,0-.9062.0808-1.3125.2422-.4062.1616-.7554.3906-1.0469.6875-.2917.2969-.521.6484-.6875,1.0547-.1667.4062-.25.8491-.25,1.3281Zm.6875-9.9219c0,.396.0703.7683.2109,1.1172.1406.3491.3306.6511.5703.9062.2395.2554.5234.4558.8516.6016.3281.146.6743.2188,1.0391.2188.375,0,.7239-.0728,1.0469-.2188.3228-.1458.6067-.3489.8516-.6094.2446-.2603.4375-.5625.5781-.9062s.2109-.7134.2109-1.1094c0-.4062-.0679-.7837-.2031-1.1328-.1355-.3489-.3257-.6509-.5703-.9062-.2449-.2551-.5312-.4556-.8594-.6016-.3281-.1458-.6797-.2188-1.0547-.2188-.396,0-.7578.0757-1.0859.2266-.3281.1511-.6094.3542-.8438.6094-.2344.2554-.4167.5574-.5469.9062-.1304.3491-.1953.7214-.1953,1.1172Z"/><path d="m1419.3419,671.5297c-1.5938,0-2.8777-.5051-3.8516-1.5156-.9741-1.0103-1.4609-2.3696-1.4609-4.0781,0-1.8645.5181-3.3438,1.5547-4.4375,1.0364-1.0938,2.4192-1.6406,4.1484-1.6406,1.6562,0,2.9504.4949,3.8828,1.4844.9321.9897,1.3984,2.3804,1.3984,4.1719,0,1.8438-.5156,3.3074-1.5469,4.3906-1.0312,1.0835-2.4062,1.625-4.125,1.625Zm16.3594-11.3594l-14.5938,22.4062h-3.8125l14.5625-22.4062h3.8438Zm-16.0625,2.4375c-1.521,0-2.2812,1.0574-2.2812,3.1719,0,2,.7239,3,2.1719,3,1.479,0,2.2188-1.0415,2.2188-3.125,0-2.0312-.7031-3.0469-2.1094-3.0469Zm13.6562,20.2812c-1.5938,0-2.8777-.5051-3.8516-1.5156-.9741-1.0103-1.4609-2.3696-1.4609-4.0781,0-1.8645.5181-3.3438,1.5547-4.4375,1.0364-1.0938,2.4192-1.6406,4.1484-1.6406,1.6665,0,2.9634.4897,3.8906,1.4688.927.9792,1.3906,2.3647,1.3906,4.1562,0,1.8438-.5156,3.3125-1.5469,4.4062s-2.4062,1.6406-4.125,1.6406Zm.25-8.9219c-1.5105,0-2.2656,1.0574-2.2656,3.1719,0,2,.7344,3,2.2031,3,1.479,0,2.2188-1.0415,2.2188-3.125,0-.9688-.198-1.7188-.5938-2.25-.396-.5312-.9167-.7969-1.5625-.7969Z"/><path d="m1387.8341,718.5766h-11.875v-22.4062h11.375v2.375h-8.75v7.4531h8.0938v2.3594h-8.0938v7.8438h9.25v2.375Z"/><path d="m1403.4903,702.5766l-5.375,8.0938,5.2812,7.9062h-2.9844l-3.1406-5.1875c-.198-.3228-.4324-.729-.7031-1.2188h-.0625c-.0522.0938-.2969.5-.7344,1.2188l-3.2031,5.1875h-2.9531l5.4531-7.8438-5.2188-8.1562h2.9844l3.0938,5.4688c.229.4062.4531.823.6719,1.25h.0625l4-6.7188h2.8281Z"/><path d="m1417.3966,717.8422c-1.2292.7395-2.6875,1.1094-4.375,1.1094-2.2812,0-4.1226-.7422-5.5234-2.2266-1.4011-1.4844-2.1016-3.4087-2.1016-5.7734,0-2.6353.7551-4.7524,2.2656-6.3516,1.5103-1.5989,3.5259-2.3984,6.0469-2.3984,1.4062,0,2.6458.2605,3.7188.7812v2.625c-1.1875-.8333-2.4585-1.25-3.8125-1.25-1.6355,0-2.9766.5859-4.0234,1.7578s-1.5703,2.7109-1.5703,4.6172c0,1.875.4922,3.3542,1.4766,4.4375.9844,1.0835,2.3047,1.625,3.9609,1.625,1.3958,0,2.7083-.4634,3.9375-1.3906v2.4375Z"/><path d="m1434.1309,711.2172h-11.2969c.0415,1.7812.5208,3.1562,1.4375,4.125.9165.9688,2.177,1.4531,3.7812,1.4531,1.802,0,3.4583-.5938,4.9688-1.7812v2.4062c-1.4062,1.021-3.2656,1.5312-5.5781,1.5312-2.2605,0-4.0366-.7266-5.3281-2.1797-1.2917-1.4531-1.9375-3.4973-1.9375-6.1328,0-2.4895.7056-4.5181,2.1172-6.0859,1.4114-1.5676,3.1641-2.3516,5.2578-2.3516s3.7134.6772,4.8594,2.0312c1.1458,1.3542,1.7188,3.2344,1.7188,5.6406v1.3438Zm-2.625-2.1719c-.0105-1.479-.3672-2.6301-1.0703-3.4531-.7031-.8228-1.6797-1.2344-2.9297-1.2344-1.2085,0-2.2344.4324-3.0781,1.2969-.8438.8647-1.3647,1.9949-1.5625,3.3906h8.6406Z"/><path d="m1440.5684,718.5766h-2.5625v-23.6875h2.5625v23.6875Z"/></g><g><path d="m1707.7559,707.9484v22.9062h-4.9219v-17.3438c-.271.2397-.5913.4663-.9609.6797-.3699.2136-.7632.4062-1.1797.5781-.4167.1719-.8491.3179-1.2969.4375-.448.1199-.8906.2058-1.3281.2578v-4.1562c1.2812-.375,2.4895-.854,3.625-1.4375,1.1353-.5833,2.1614-1.2239,3.0781-1.9219h2.9844Z"/><path d="m1722.2403,731.2453c-5.3335,0-8-3.7446-8-11.2344,0-3.8853.7212-6.8462,2.1641-8.8828,1.4426-2.0364,3.5337-3.0547,6.2734-3.0547,5.2083,0,7.8125,3.8074,7.8125,11.4219,0,3.7917-.7109,6.698-2.1328,8.7188-1.4219,2.021-3.4609,3.0312-6.1172,3.0312Zm.2188-19.4062c-2.1355,0-3.2031,2.6824-3.2031,8.0469,0,5.0522,1.0469,7.5781,3.1406,7.5781,2.0415,0,3.0625-2.604,3.0625-7.8125s-1-7.8125-3-7.8125Z"/><path d="m1738.2872,719.8078c-1.5938,0-2.8777-.5051-3.8516-1.5156-.9741-1.0103-1.4609-2.3696-1.4609-4.0781,0-1.8645.5181-3.3438,1.5547-4.4375,1.0364-1.0938,2.4192-1.6406,4.1484-1.6406,1.6562,0,2.9504.4949,3.8828,1.4844.9321.9897,1.3984,2.3804,1.3984,4.1719,0,1.8438-.5156,3.3074-1.5469,4.3906-1.0312,1.0835-2.4062,1.625-4.125,1.625Zm16.3594-11.3594l-14.5938,22.4062h-3.8125l14.5625-22.4062h3.8438Zm-16.0625,2.4375c-1.521,0-2.2812,1.0574-2.2812,3.1719,0,2,.7239,3,2.1719,3,1.479,0,2.2188-1.0415,2.2188-3.125,0-2.0312-.7031-3.0469-2.1094-3.0469Zm13.6562,20.2812c-1.5938,0-2.8777-.5051-3.8516-1.5156-.9741-1.0103-1.4609-2.3696-1.4609-4.0781,0-1.8645.5181-3.3438,1.5547-4.4375,1.0364-1.0938,2.4192-1.6406,4.1484-1.6406,1.6665,0,2.9634.4897,3.8906,1.4688.927.9792,1.3906,2.3647,1.3906,4.1562,0,1.8438-.5156,3.3125-1.5469,4.4062s-2.4062,1.6406-4.125,1.6406Zm.25-8.9219c-1.5105,0-2.2656,1.0574-2.2656,3.1719,0,2,.7344,3,2.2031,3,1.479,0,2.2188-1.0415,2.2188-3.125,0-.9688-.198-1.7188-.5938-2.25-.396-.5312-.9167-.7969-1.5625-.7969Z"/><path d="m1717.8575,744.4484l-6.3281,22.4062h-3.0781l-4.6094-16.375c-.198-.6978-.3179-1.4583-.3594-2.2812h-.0625c-.0625.771-.198,1.521-.4062,2.25l-4.6406,16.4062h-3.0469l-6.5625-22.4062h2.8906l4.7656,17.1875c.1978.7188.3228,1.4688.375,2.25h.0781c.052-.552.2134-1.302.4844-2.25l4.9531-17.1875h2.5156l4.75,17.3125c.1665.5938.2915,1.2917.375,2.0938h.0625c.0415-.5415.1821-1.2603.4219-2.1562l4.5781-17.25h2.8438Z"/><path d="m1726.2794,767.2297c-2.3647,0-4.2527-.7473-5.6641-2.2422-1.4116-1.4946-2.1172-3.4766-2.1172-5.9453,0-2.6875.7344-4.7864,2.2031-6.2969,1.4688-1.5103,3.4531-2.2656,5.9531-2.2656,2.3853,0,4.2473.7344,5.5859,2.2031,1.3384,1.4688,2.0078,3.5054,2.0078,6.1094,0,2.5522-.7214,4.5964-2.1641,6.1328-1.4429,1.5366-3.3777,2.3047-5.8047,2.3047Zm.1875-14.5938c-1.646,0-2.948.5601-3.9062,1.6797-.9585,1.1199-1.4375,2.6641-1.4375,4.6328,0,1.896.4844,3.3906,1.4531,4.4844s2.2656,1.6406,3.8906,1.6406c1.6562,0,2.9297-.5364,3.8203-1.6094.8906-1.0728,1.3359-2.5989,1.3359-4.5781,0-2-.4453-3.5415-1.3359-4.625-.8906-1.0833-2.1641-1.625-3.8203-1.625Z"/><path d="m1746.6856,753.4484c-.448-.3438-1.0938-.5156-1.9375-.5156-1.0938,0-2.0078.5156-2.7422,1.5469s-1.1016,2.4375-1.1016,4.2188v8.1562h-2.5625v-16h2.5625v3.2969h.0625c.3645-1.125.9219-2.0024,1.6719-2.6328.75-.6301,1.5884-.9453,2.5156-.9453.6665,0,1.177.073,1.5312.2188v2.6562Z"/><path d="m1763.1231,766.8547h-2.5625v-2.7188h-.0625c-1.1875,2.0625-3.021,3.0938-5.5,3.0938-2.0105,0-3.6172-.7161-4.8203-2.1484-1.2031-1.4321-1.8047-3.3828-1.8047-5.8516,0-2.6458.6665-4.7656,2-6.3594,1.3333-1.5938,3.1094-2.3906,5.3281-2.3906,2.1978,0,3.7969.8647,4.7969,2.5938h.0625v-9.9062h2.5625v23.6875Zm-2.5625-7.2344v-2.3594c0-1.2915-.4272-2.3853-1.2812-3.2812-.8542-.8958-1.9375-1.3438-3.25-1.3438-1.5625,0-2.7917.573-3.6875,1.7188-.896,1.146-1.3438,2.7292-1.3438,4.75,0,1.8438.4297,3.2996,1.2891,4.3672.8594,1.0679,2.0129,1.6016,3.4609,1.6016,1.427,0,2.5859-.5156,3.4766-1.5469s1.3359-2.3333,1.3359-3.9062Z"/></g><g><path d="m1619.1751,481.6344c0-.625.0911-1.2266.2734-1.8047.1821-.5781.4556-1.1145.8203-1.6094.3645-.4946.8203-.9375,1.3672-1.3281s1.1899-.7109,1.9297-.9609c-1.1355-.5625-2.0156-1.2837-2.6406-2.1641-.625-.8801-.9375-1.8567-.9375-2.9297,0-.854.1797-1.6458.5391-2.375.3594-.729.8567-1.3594,1.4922-1.8906.6353-.5312,1.3931-.9453,2.2734-1.2422.8801-.2969,1.8411-.4453,2.8828-.4453,1.0625,0,2.0364.1484,2.9219.4453.8853.2969,1.6484.7085,2.2891,1.2344.6406.5261,1.1379,1.1484,1.4922,1.8672.354.7188.5312,1.5.5312,2.3438,0,1.0625-.3335,2.0288-1,2.8984-.6667.8699-1.5886,1.5859-2.7656,2.1484.729.25,1.3696.5703,1.9219.9609.552.3906,1.0156.8359,1.3906,1.3359s.6562,1.0444.8438,1.6328c.1875.5886.2812,1.2007.2812,1.8359,0,.9585-.1929,1.8308-.5781,2.6172-.3855.7866-.9297,1.4636-1.6328,2.0312-.7031.5679-1.5417,1.0078-2.5156,1.3203-.9741.3125-2.0496.4688-3.2266.4688-1.1562,0-2.2214-.1538-3.1953-.4609-.9741-.3071-1.8125-.7422-2.5156-1.3047s-1.2527-1.2368-1.6484-2.0234c-.396-.7864-.5938-1.6536-.5938-2.6016Zm4.6719-.4219c0,.5105.0781.9688.2344,1.375s.3801.75.6719,1.0312c.2915.2812.6379.4976,1.0391.6484.4009.1511.8516.2266,1.3516.2266.479,0,.9192-.0781,1.3203-.2344.4009-.1562.7473-.375,1.0391-.6562.2915-.2812.5208-.625.6875-1.0312.1665-.4062.25-.8594.25-1.3594,0-.4478-.0781-.875-.2344-1.2812s-.3804-.7578-.6719-1.0547c-.2917-.2969-.6382-.5337-1.0391-.7109-.4011-.177-.8516-.2656-1.3516-.2656-.4688,0-.9062.0808-1.3125.2422-.4062.1616-.7554.3906-1.0469.6875-.2917.2969-.521.6484-.6875,1.0547-.1667.4062-.25.8491-.25,1.3281Zm.6875-9.9219c0,.396.0703.7683.2109,1.1172.1406.3491.3306.6511.5703.9062.2395.2554.5234.4558.8516.6016.3281.146.6743.2188,1.0391.2188.375,0,.7239-.0728,1.0469-.2188.3228-.1458.6067-.3489.8516-.6094.2446-.2603.4375-.5625.5781-.9062s.2109-.7134.2109-1.1094c0-.4062-.0679-.7837-.2031-1.1328-.1355-.3489-.3257-.6509-.5703-.9062-.2449-.2551-.5312-.4556-.8594-.6016-.3281-.1458-.6797-.2188-1.0547-.2188-.396,0-.7578.0757-1.0859.2266-.3281.1511-.6094.3542-.8438.6094-.2344.2554-.4167.5574-.5469.9062-.1304.3491-.1953.7214-.1953,1.1172Z"/><path d="m1643.0501,476.6188c-1.5938,0-2.8777-.5051-3.8516-1.5156-.9741-1.0103-1.4609-2.3696-1.4609-4.0781,0-1.8645.5181-3.3438,1.5547-4.4375,1.0364-1.0938,2.4192-1.6406,4.1484-1.6406,1.6562,0,2.9504.4949,3.8828,1.4844.9321.9897,1.3984,2.3804,1.3984,4.1719,0,1.8438-.5156,3.3074-1.5469,4.3906-1.0312,1.0835-2.4062,1.625-4.125,1.625Zm16.3594-11.3594l-14.5938,22.4062h-3.8125l14.5625-22.4062h3.8438Zm-16.0625,2.4375c-1.521,0-2.2812,1.0574-2.2812,3.1719,0,2,.7239,3,2.1719,3,1.479,0,2.2188-1.0415,2.2188-3.125,0-2.0312-.7031-3.0469-2.1094-3.0469Zm13.6562,20.2812c-1.5938,0-2.8777-.5051-3.8516-1.5156-.9741-1.0103-1.4609-2.3696-1.4609-4.0781,0-1.8645.5181-3.3438,1.5547-4.4375,1.0364-1.0938,2.4192-1.6406,4.1484-1.6406,1.6665,0,2.9634.4897,3.8906,1.4688.927.9792,1.3906,2.3647,1.3906,4.1562,0,1.8438-.5156,3.3125-1.5469,4.4062s-2.4062,1.6406-4.125,1.6406Zm.25-8.9219c-1.5105,0-2.2656,1.0574-2.2656,3.1719,0,2,.7344,3,2.2031,3,1.479,0,2.2188-1.0415,2.2188-3.125,0-.9688-.198-1.7188-.5938-2.25-.396-.5312-.9167-.7969-1.5625-.7969Z"/><path d="m1567.2376,515.1969v8.4688h-2.625v-22.4062h6.1562c2.3958,0,4.2524.5835,5.5703,1.75,1.3176,1.1667,1.9766,2.8125,1.9766,4.9375s-.7319,3.8647-2.1953,5.2188c-1.4636,1.3542-3.4402,2.0312-5.9297,2.0312h-2.9531Zm0-11.5625v9.1875h2.75c1.8125,0,3.1953-.4141,4.1484-1.2422s1.4297-1.9973,1.4297-3.5078c0-2.9583-1.75-4.4375-5.25-4.4375h-3.0781Z"/><path d="m1587.6907,524.0407c-2.3647,0-4.2527-.7473-5.6641-2.2422-1.4116-1.4946-2.1172-3.4766-2.1172-5.9453,0-2.6875.7344-4.7864,2.2031-6.2969,1.4688-1.5103,3.4531-2.2656,5.9531-2.2656,2.3853,0,4.2473.7344,5.5859,2.2031,1.3384,1.4688,2.0078,3.5054,2.0078,6.1094,0,2.5522-.7214,4.5964-2.1641,6.1328-1.4429,1.5366-3.3777,2.3047-5.8047,2.3047Zm.1875-14.5938c-1.646,0-2.948.5601-3.9062,1.6797-.9585,1.1199-1.4375,2.6641-1.4375,4.6328,0,1.896.4844,3.3906,1.4531,4.4844s2.2656,1.6406,3.8906,1.6406c1.6562,0,2.9297-.5364,3.8203-1.6094.8906-1.0728,1.3359-2.5989,1.3359-4.5781,0-2-.4453-3.5415-1.3359-4.625-.8906-1.0833-2.1641-1.625-3.8203-1.625Z"/><path d="m1619.9095,507.6657l-4.7969,16h-2.6562l-3.2969-11.4531c-.125-.4375-.2085-.9321-.25-1.4844h-.0625c-.0312.375-.1406.8594-.3281,1.4531l-3.5781,11.4844h-2.5625l-4.8438-16h2.6875l3.3125,12.0312c.104.3647.177.8438.2188,1.4375h.125c.0312-.4583.125-.9478.2812-1.4688l3.6875-12h2.3438l3.3125,12.0625c.104.3855.1821.8647.2344,1.4375h.125c.0208-.4062.1094-.8853.2656-1.4375l3.25-12.0625h2.5312Z"/><path d="m1635.7376,516.3063h-11.2969c.0415,1.7812.5208,3.1562,1.4375,4.125.9165.9688,2.177,1.4531,3.7812,1.4531,1.802,0,3.4583-.5938,4.9688-1.7812v2.4062c-1.4062,1.021-3.2656,1.5312-5.5781,1.5312-2.2605,0-4.0366-.7266-5.3281-2.1797-1.2917-1.4531-1.9375-3.4973-1.9375-6.1328,0-2.4895.7056-4.5181,2.1172-6.0859,1.4114-1.5676,3.1641-2.3516,5.2578-2.3516s3.7134.6772,4.8594,2.0312c1.1458,1.3542,1.7188,3.2344,1.7188,5.6406v1.3438Zm-2.625-2.1719c-.0105-1.479-.3672-2.6301-1.0703-3.4531-.7031-.8228-1.6797-1.2344-2.9297-1.2344-1.2085,0-2.2344.4324-3.0781,1.2969-.8438.8647-1.3647,1.9949-1.5625,3.3906h8.6406Z"/><path d="m1647.9564,510.2594c-.448-.3438-1.0938-.5156-1.9375-.5156-1.0938,0-2.0078.5156-2.7422,1.5469s-1.1016,2.4375-1.1016,4.2188v8.1562h-2.5625v-16h2.5625v3.2969h.0625c.3645-1.125.9219-2.0024,1.6719-2.6328.75-.6301,1.5884-.9453,2.5156-.9453.6665,0,1.177.073,1.5312.2188v2.6562Z"/><path d="m1653.7064,515.1969v8.4688h-2.625v-22.4062h6.1562c2.3958,0,4.2524.5835,5.5703,1.75,1.3176,1.1667,1.9766,2.8125,1.9766,4.9375s-.7319,3.8647-2.1953,5.2188c-1.4636,1.3542-3.4402,2.0312-5.9297,2.0312h-2.9531Zm0-11.5625v9.1875h2.75c1.8125,0,3.1953-.4141,4.1484-1.2422s1.4297-1.9973,1.4297-3.5078c0-2.9583-1.75-4.4375-5.25-4.4375h-3.0781Z"/><path d="m1674.1595,524.0407c-2.3647,0-4.2527-.7473-5.6641-2.2422-1.4116-1.4946-2.1172-3.4766-2.1172-5.9453,0-2.6875.7344-4.7864,2.2031-6.2969,1.4688-1.5103,3.4531-2.2656,5.9531-2.2656,2.3853,0,4.2473.7344,5.5859,2.2031,1.3384,1.4688,2.0078,3.5054,2.0078,6.1094,0,2.5522-.7214,4.5964-2.1641,6.1328-1.4429,1.5366-3.3777,2.3047-5.8047,2.3047Zm.1875-14.5938c-1.646,0-2.948.5601-3.9062,1.6797-.9585,1.1199-1.4375,2.6641-1.4375,4.6328,0,1.896.4844,3.3906,1.4531,4.4844s2.2656,1.6406,3.8906,1.6406c1.6562,0,2.9297-.5364,3.8203-1.6094.8906-1.0728,1.3359-2.5989,1.3359-4.5781,0-2-.4453-3.5415-1.3359-4.625-.8906-1.0833-2.1641-1.625-3.8203-1.625Z"/><path d="m1687.5345,503.6032c-.4585,0-.8491-.1562-1.1719-.4688-.323-.3125-.4844-.7083-.4844-1.1875,0-.479.1614-.8774.4844-1.1953.3228-.3176.7134-.4766,1.1719-.4766.4688,0,.8672.1589,1.1953.4766.3281.3179.4922.7163.4922,1.1953,0,.4585-.1641.8491-.4922,1.1719-.3281.323-.7266.4844-1.1953.4844Zm1.25,20.0625h-2.5625v-16h2.5625v16Z"/><path d="m1707.2532,523.6657h-2.5625v-9.125c0-3.3958-1.2397-5.0938-3.7188-5.0938-1.2812,0-2.3413.4819-3.1797,1.4453-.8386.9636-1.2578,2.1797-1.2578,3.6484v9.125h-2.5625v-16h2.5625v2.6562h.0625c1.2083-2.0208,2.9583-3.0312,5.25-3.0312,1.75,0,3.0884.5652,4.0156,1.6953.927,1.1304,1.3906,2.7632,1.3906,4.8984v9.7812Z"/><path d="m1719.5032,523.5094c-.6042.3333-1.4011.5-2.3906.5-2.8022,0-4.2031-1.5625-4.2031-4.6875v-9.4688h-2.75v-2.1875h2.75v-3.9062l2.5625-.8281v4.7344h4.0312v2.1875h-4.0312v9.0156c0,1.073.1821,1.8386.5469,2.2969.3645.4585.9688.6875,1.8125.6875.6458,0,1.2031-.177,1.6719-.5312v2.1875Z"/></g><g><path d="m1420.0477,365.0768c-1,1.8022-1.896,3.4922-2.6875,5.0703-.7917,1.5781-1.4897,3.1355-2.0938,4.6719-.6042,1.5366-1.1199,3.0991-1.5469,4.6875-.4272,1.5886-.7761,3.2996-1.0469,5.1328h-5.1562c.2915-1.7395.677-3.4165,1.1562-5.0312.479-1.6145,1.0337-3.1797,1.6641-4.6953.6301-1.5156,1.3281-2.9922,2.0938-4.4297s1.5754-2.8438,2.4297-4.2188h-10.4062v-4.0312h15.5938v2.8438Z"/><path d="m1428.0789,373.5925c-1.5938,0-2.8777-.5051-3.8516-1.5156-.9741-1.0103-1.4609-2.3696-1.4609-4.0781,0-1.8645.5181-3.3438,1.5547-4.4375,1.0364-1.0938,2.4192-1.6406,4.1484-1.6406,1.6562,0,2.9504.4949,3.8828,1.4844.9321.9897,1.3984,2.3804,1.3984,4.1719,0,1.8438-.5156,3.3074-1.5469,4.3906-1.0312,1.0835-2.4062,1.625-4.125,1.625Zm16.3594-11.3594l-14.5938,22.4062h-3.8125l14.5625-22.4062h3.8438Zm-16.0625,2.4375c-1.521,0-2.2812,1.0574-2.2812,3.1719,0,2,.7239,3,2.1719,3,1.479,0,2.2188-1.0415,2.2188-3.125,0-2.0312-.7031-3.0469-2.1094-3.0469Zm13.6562,20.2812c-1.5938,0-2.8777-.5051-3.8516-1.5156-.9741-1.0103-1.4609-2.3696-1.4609-4.0781,0-1.8645.5181-3.3438,1.5547-4.4375,1.0364-1.0938,2.4192-1.6406,4.1484-1.6406,1.6665,0,2.9634.4897,3.8906,1.4688.927.9792,1.3906,2.3647,1.3906,4.1562,0,1.8438-.5156,3.3125-1.5469,4.4062s-2.4062,1.6406-4.125,1.6406Zm.25-8.9219c-1.5105,0-2.2656,1.0574-2.2656,3.1719,0,2,.7344,3,2.2031,3,1.479,0,2.2188-1.0415,2.2188-3.125,0-.9688-.198-1.7188-.5938-2.25-.396-.5312-.9167-.7969-1.5625-.7969Z"/><path d="m1373.3836,421.0143c-3.1772,0-5.7214-1.0469-7.6328-3.1406-1.9116-2.0938-2.8672-4.8176-2.8672-8.1719,0-3.604.9739-6.479,2.9219-8.625,1.9478-2.1458,4.5989-3.2188,7.9531-3.2188,3.0938,0,5.5859,1.0417,7.4766,3.125,1.8906,2.0835,2.8359,4.8074,2.8359,8.1719,0,3.6562-.9688,6.5469-2.9062,8.6719s-4.5312,3.1875-7.7812,3.1875Zm.1875-20.7812c-2.3542,0-4.2656.8491-5.7344,2.5469-1.4688,1.698-2.2031,3.9272-2.2031,6.6875s.7161,4.9819,2.1484,6.6641c1.4321,1.6824,3.2993,2.5234,5.6016,2.5234,2.4583,0,4.3958-.802,5.8125-2.4062,1.4165-1.604,2.125-3.8489,2.125-6.7344,0-2.9583-.6875-5.2446-2.0625-6.8594-1.375-1.6145-3.271-2.4219-5.6875-2.4219Z"/><path d="m1401.4149,420.6393h-2.5625v-9.125c0-3.3958-1.2397-5.0938-3.7188-5.0938-1.2812,0-2.3413.4819-3.1797,1.4453-.8386.9636-1.2578,2.1797-1.2578,3.6484v9.125h-2.5625v-16h2.5625v2.6562h.0625c1.2083-2.0208,2.9583-3.0312,5.25-3.0312,1.75,0,3.0884.5652,4.0156,1.6953.927,1.1304,1.3906,2.7632,1.3906,4.8984v9.7812Z"/><path d="m1419.1024,413.28h-11.2969c.0415,1.7812.5208,3.1562,1.4375,4.125.9165.9688,2.177,1.4531,3.7812,1.4531,1.802,0,3.4583-.5938,4.9688-1.7812v2.4062c-1.4062,1.021-3.2656,1.5312-5.5781,1.5312-2.2605,0-4.0366-.7266-5.3281-2.1797-1.2917-1.4531-1.9375-3.4973-1.9375-6.1328,0-2.4895.7056-4.5181,2.1172-6.0859,1.4114-1.5676,3.1641-2.3516,5.2578-2.3516s3.7134.6772,4.8594,2.0312c1.1458,1.3542,1.7188,3.2344,1.7188,5.6406v1.3438Zm-2.625-2.1719c-.0105-1.479-.3672-2.6301-1.0703-3.4531-.7031-.8228-1.6797-1.2344-2.9297-1.2344-1.2085,0-2.2344.4324-3.0781,1.2969-.8438.8647-1.3647,1.9949-1.5625,3.3906h8.6406Z"/><path d="m1441.3836,420.6393h-3.2188l-11.5312-17.8594c-.2917-.4478-.5312-.9165-.7188-1.4062h-.0938c.0833.4792.125,1.5054.125,3.0781v16.1875h-2.625v-22.4062h3.4062l11.2188,17.5781c.4688.7292.7708,1.2292.9062,1.5h.0625c-.1042-.6458-.1562-1.7446-.1562-3.2969v-15.7812h2.625v22.4062Z"/><path d="m1453.6024,421.0143c-2.3647,0-4.2527-.7473-5.6641-2.2422-1.4116-1.4946-2.1172-3.4766-2.1172-5.9453,0-2.6875.7344-4.7864,2.2031-6.2969,1.4688-1.5103,3.4531-2.2656,5.9531-2.2656,2.3853,0,4.2473.7344,5.5859,2.2031,1.3384,1.4688,2.0078,3.5054,2.0078,6.1094,0,2.5522-.7214,4.5964-2.1641,6.1328-1.4429,1.5366-3.3777,2.3047-5.8047,2.3047Zm.1875-14.5938c-1.646,0-2.948.5601-3.9062,1.6797-.9585,1.1199-1.4375,2.6641-1.4375,4.6328,0,1.896.4844,3.3906,1.4531,4.4844s2.2656,1.6406,3.8906,1.6406c1.6562,0,2.9297-.5364,3.8203-1.6094.8906-1.0728,1.3359-2.5989,1.3359-4.5781,0-2-.4453-3.5415-1.3359-4.625-.8906-1.0833-2.1641-1.625-3.8203-1.625Z"/><path d="m1473.0867,420.4831c-.6042.3333-1.4011.5-2.3906.5-2.8022,0-4.2031-1.5625-4.2031-4.6875v-9.4688h-2.75v-2.1875h2.75v-3.9062l2.5625-.8281v4.7344h4.0312v2.1875h-4.0312v9.0156c0,1.073.1821,1.8386.5469,2.2969.3645.4585.9688.6875,1.8125.6875.6458,0,1.2031-.177,1.6719-.5312v2.1875Z"/><path d="m1489.368,413.28h-11.2969c.0415,1.7812.5208,3.1562,1.4375,4.125.9165.9688,2.177,1.4531,3.7812,1.4531,1.802,0,3.4583-.5938,4.9688-1.7812v2.4062c-1.4062,1.021-3.2656,1.5312-5.5781,1.5312-2.2605,0-4.0366-.7266-5.3281-2.1797-1.2917-1.4531-1.9375-3.4973-1.9375-6.1328,0-2.4895.7056-4.5181,2.1172-6.0859,1.4114-1.5676,3.1641-2.3516,5.2578-2.3516s3.7134.6772,4.8594,2.0312c1.1458,1.3542,1.7188,3.2344,1.7188,5.6406v1.3438Zm-2.625-2.1719c-.0105-1.479-.3672-2.6301-1.0703-3.4531-.7031-.8228-1.6797-1.2344-2.9297-1.2344-1.2085,0-2.2344.4324-3.0781,1.2969-.8438.8647-1.3647,1.9949-1.5625,3.3906h8.6406Z"/></g><g><path d="m868.1003,1678.3656c-1.5835,0-2.8438-.5078-3.7812-1.5234s-1.4062-2.3726-1.4062-4.0703c0-1.854.4973-3.3149,1.4922-4.3828.9946-1.0679,2.3359-1.6016,4.0234-1.6016,1.6353,0,2.9036.4946,3.8047,1.4844.9009.9897,1.3516,2.3804,1.3516,4.1719s-.5054,3.2266-1.5156,4.3047c-1.0105,1.0781-2.3335,1.6172-3.9688,1.6172Zm.2188-9.3906c-.8542,0-1.5288.3281-2.0234.9844-.4949.6562-.7422,1.5571-.7422,2.7031,0,1.125.2422,2,.7266,2.625s1.1484.9375,1.9922.9375,1.5051-.3257,1.9844-.9766c.479-.6509.7188-1.5547.7188-2.7109,0-1.125-.2371-2-.7109-2.625-.4741-.625-1.1226-.9375-1.9453-.9375Zm14.9531-1.8594l-14.375,22.5625h-2.2344l14.3594-22.5625h2.25Zm-2.0156,22.75c-1.5835,0-2.8438-.5078-3.7812-1.5234s-1.4062-2.3726-1.4062-4.0703c0-1.854.4973-3.3149,1.4922-4.3828.9946-1.0679,2.3359-1.6016,4.0234-1.6016,1.6353,0,2.9036.4946,3.8047,1.4844.9009.9897,1.3516,2.3804,1.3516,4.1719s-.5054,3.2266-1.5156,4.3047c-1.0105,1.0781-2.3335,1.6172-3.9688,1.6172Zm.2188-9.3906c-.8542,0-1.5288.3281-2.0234.9844-.4949.6562-.7422,1.5571-.7422,2.7031,0,1.125.2422,2,.7266,2.625s1.1484.9375,1.9922.9375,1.5051-.3257,1.9844-.9766c.479-.6509.7188-1.5547.7188-2.7109,0-1.125-.2371-2-.7109-2.625-.4741-.625-1.1226-.9375-1.9453-.9375Z"/><path d="m899.2872,1689.0219v-3.3594c1.354,1.0312,2.8489,1.5469,4.4844,1.5469,2.1875,0,3.2812-.646,3.2812-1.9375,0-.3647-.0938-.6743-.2812-.9297s-.4402-.4819-.7578-.6797c-.3179-.1978-.6929-.375-1.125-.5312-.4324-.1562-.9141-.3335-1.4453-.5312-.6562-.2603-1.2476-.5366-1.7734-.8281-.5261-.2915-.9636-.6226-1.3125-.9922-.3491-.3696-.6121-.7891-.7891-1.2578-.1772-.4688-.2656-1.0156-.2656-1.6406,0-.771.1821-1.4507.5469-2.0391.3645-.5884.854-1.0835,1.4688-1.4844.6145-.4009,1.3125-.7031,2.0938-.9062s1.5884-.3047,2.4219-.3047c1.479,0,2.802.2241,3.9688.6719v3.1719c-1.125-.771-2.4167-1.1562-3.875-1.1562-.4585,0-.8726.0469-1.2422.1406-.3699.0938-.6851.2241-.9453.3906-.2605.1665-.4636.3672-.6094.6016-.146.2344-.2188.4922-.2188.7734,0,.3438.0728.6353.2188.875.1458.2397.3618.4507.6484.6328.2864.1821.6301.3491,1.0312.5.4009.1509.8618.3149,1.3828.4922.6875.2812,1.3047.5679,1.8516.8594s1.0129.6226,1.3984.9922c.3853.3696.6821.7969.8906,1.2812.2083.4844.3125,1.0601.3125,1.7266,0,.8125-.1875,1.521-.5625,2.125s-.875,1.104-1.5,1.5-1.3464.6899-2.1641.8828c-.8179.1924-1.6797.2891-2.5859.2891-1.75,0-3.2656-.292-4.5469-.875Z"/><path d="m928.6228,1689.5219h-3.625v-8.75c0-3.1665-1.0574-4.75-3.1719-4.75-1.0625,0-1.9585.4585-2.6875,1.375-.7292.9165-1.0938,2.0884-1.0938,3.5156v8.6094h-3.6406v-23.6875h3.6406v10.3438h.0625c1.2083-2.021,2.9375-3.0312,5.1875-3.0312,3.552,0,5.3281,2.1719,5.3281,6.5156v9.8594Z"/><path d="m945.6303,1689.5219h-3.5156v-2.5h-.0625c-1.1042,1.9165-2.7241,2.875-4.8594,2.875-1.573,0-2.8047-.4272-3.6953-1.2812s-1.3359-1.9844-1.3359-3.3906c0-3.021,1.7395-4.7812,5.2188-5.2812l4.75-.6719c0-2.2812-1.0835-3.4219-3.25-3.4219-1.9062,0-3.625.6562-5.1562,1.9688v-3.1719c1.6875-1,3.6353-1.5,5.8438-1.5,4.0415,0,6.0625,1.9897,6.0625,5.9688v10.4062Zm-3.5-7.8594l-3.3594.4688c-1.0417.1353-1.8257.3882-2.3516.7578-.5261.3696-.7891,1.0181-.7891,1.9453,0,.6772.2422,1.2319.7266,1.6641s1.1328.6484,1.9453.6484c1.104,0,2.0181-.3882,2.7422-1.1641.7239-.7759,1.0859-1.7524,1.0859-2.9297v-1.3906Z"/><path d="m959.6534,1676.975c-.4375-.3438-1.0679-.5156-1.8906-.5156-1.073,0-1.9688.4844-2.6875,1.4531s-1.0781,2.2866-1.0781,3.9531v7.6562h-3.625v-16h3.625v3.2969h.0625c.354-1.125.8984-2.0024,1.6328-2.6328s1.5547-.9453,2.4609-.9453c.6562,0,1.1562.0991,1.5.2969v3.4375Z"/><path d="m975.8016,1682.5063h-10.9062c.0415,1.479.4973,2.6196,1.3672,3.4219.8696.8022,2.0649,1.2031,3.5859,1.2031,1.7083,0,3.2759-.5103,4.7031-1.5312v2.9219c-1.4585.9165-3.3855,1.375-5.7812,1.375-2.3542,0-4.2007-.7266-5.5391-2.1797-1.3386-1.4531-2.0078-3.4976-2.0078-6.1328,0-2.4897.7368-4.5181,2.2109-6.0859,1.4739-1.5679,3.3047-2.3516,5.4922-2.3516s3.8801.7031,5.0781,2.1094c1.1978,1.4062,1.7969,3.3594,1.7969,5.8594v1.3906Zm-3.5-2.5625c-.0105-1.3022-.3179-2.3149-.9219-3.0391-.6042-.7241-1.4375-1.0859-2.5-1.0859-1.0417,0-1.9246.3804-2.6484,1.1406-.7241.7603-1.1694,1.7554-1.3359,2.9844h7.4062Z"/><path d="m995.7852,1689.8969c-2.4688,0-4.4402-.7476-5.9141-2.2422-1.4741-1.4946-2.2109-3.4766-2.2109-5.9453,0-2.6875.7681-4.7866,2.3047-6.2969,1.5364-1.5103,3.6067-2.2656,6.2109-2.2656,2.5,0,4.4478.7344,5.8438,2.2031,1.3958,1.4688,2.0938,3.5054,2.0938,6.1094,0,2.5522-.7527,4.5962-2.2578,6.1328-1.5054,1.5366-3.5288,2.3047-6.0703,2.3047Zm.1719-13.8594c-1.4167,0-2.5366.4946-3.3594,1.4844-.823.9897-1.2344,2.354-1.2344,4.0938,0,1.6772.4165,2.9976,1.25,3.9609.8333.9634,1.9478,1.4453,3.3438,1.4453,1.427,0,2.5234-.4741,3.2891-1.4219s1.1484-2.2969,1.1484-4.0469c0-1.7603-.3828-3.1196-1.1484-4.0781s-1.8621-1.4375-3.2891-1.4375Z"/><path d="m1016.6365,1668.7875c-.4897-.2812-1.0469-.4219-1.6719-.4219-1.7605,0-2.6406.9946-2.6406,2.9844v2.1719h3.7188v2.8438h-3.7031v13.1562h-3.625v-13.1562h-2.7344v-2.8438h2.7344v-2.5938c0-1.6875.552-3.0181,1.6562-3.9922,1.104-.9741,2.4844-1.4609,4.1406-1.4609.8958,0,1.604.0991,2.125.2969v3.0156Z"/><path d="m1036.4952,1689.35c-.7085.354-1.6406.5312-2.7969.5312-3.1042,0-4.6562-1.4897-4.6562-4.4688v-9.0469h-2.6719v-2.8438h2.6719v-3.7031l3.625-1.0312v4.7344h3.8281v2.8438h-3.8281v8c0,.9478.1719,1.625.5156,2.0312s.9165.6094,1.7188.6094c.6145,0,1.1458-.1772,1.5938-.5312v2.875Z"/><path d="m1041.7684,1670.1625c-.5938,0-1.1016-.1929-1.5234-.5781s-.6328-.875-.6328-1.4688.2109-1.0884.6328-1.4844.9297-.5938,1.5234-.5938c.6145,0,1.1353.1978,1.5625.5938.427.396.6406.8906.6406,1.4844,0,.5625-.2136,1.0444-.6406,1.4453-.4272.4009-.948.6016-1.5625.6016Zm1.7969,19.3594h-3.625v-16h3.625v16Z"/><path d="m1072.5413,1689.5219h-3.625v-8.7188c0-1.6772-.2371-2.8906-.7109-3.6406-.4741-.75-1.2734-1.125-2.3984-1.125-.948,0-1.7527.4741-2.4141,1.4219-.6616.9478-.9922,2.0835-.9922,3.4062v8.6562h-3.6406v-9.0156c0-2.979-1.0522-4.4688-3.1562-4.4688-.9792,0-1.7839.4478-2.4141,1.3438-.6304.896-.9453,2.0571-.9453,3.4844v8.6562h-3.625v-16h3.625v2.5312h.0625c1.1562-1.9375,2.8384-2.9062,5.0469-2.9062,1.104,0,2.0703.3047,2.8984.9141s1.3931,1.4087,1.6953,2.3984c1.1875-2.2085,2.9583-3.3125,5.3125-3.3125,3.5208,0,5.2812,2.1719,5.2812,6.5156v9.8594Z"/><path d="m1090.8301,1682.5063h-10.9062c.0415,1.479.4973,2.6196,1.3672,3.4219.8696.8022,2.0649,1.2031,3.5859,1.2031,1.7083,0,3.2759-.5103,4.7031-1.5312v2.9219c-1.4585.9165-3.3855,1.375-5.7812,1.375-2.3542,0-4.2007-.7266-5.5391-2.1797-1.3386-1.4531-2.0078-3.4976-2.0078-6.1328,0-2.4897.7368-4.5181,2.2109-6.0859,1.4739-1.5679,3.3047-2.3516,5.4922-2.3516s3.8801.7031,5.0781,2.1094c1.1978,1.4062,1.7969,3.3594,1.7969,5.8594v1.3906Zm-3.5-2.5625c-.0105-1.3022-.3179-2.3149-.9219-3.0391-.6042-.7241-1.4375-1.0859-2.5-1.0859-1.0417,0-1.9246.3804-2.6484,1.1406-.7241.7603-1.1694,1.7554-1.3359,2.9844h7.4062Z"/><path d="m811.5897,1730.2577v-3.3594c1.354,1.0312,2.8489,1.5469,4.4844,1.5469,2.1875,0,3.2812-.646,3.2812-1.9375,0-.3647-.0938-.6743-.2812-.9297s-.4402-.4819-.7578-.6797c-.3179-.1978-.6929-.375-1.125-.5312-.4324-.1562-.9141-.3335-1.4453-.5312-.6562-.2603-1.2476-.5366-1.7734-.8281-.5261-.2915-.9636-.6226-1.3125-.9922-.3491-.3696-.6121-.7891-.7891-1.2578-.1772-.4688-.2656-1.0156-.2656-1.6406,0-.771.1821-1.4507.5469-2.0391.3645-.5884.854-1.0835,1.4688-1.4844.6145-.4009,1.3125-.7031,2.0938-.9062s1.5884-.3047,2.4219-.3047c1.479,0,2.802.2241,3.9688.6719v3.1719c-1.125-.771-2.4167-1.1562-3.875-1.1562-.4585,0-.8726.0469-1.2422.1406-.3699.0938-.6851.2241-.9453.3906-.2605.1665-.4636.3672-.6094.6016-.146.2344-.2188.4922-.2188.7734,0,.3438.0728.6353.2188.875.1458.2397.3618.4507.6484.6328.2864.1821.6301.3491,1.0312.5.4009.1509.8618.3149,1.3828.4922.6875.2812,1.3047.5679,1.8516.8594s1.0129.6226,1.3984.9922c.3853.3696.6821.7969.8906,1.2812.2083.4844.3125,1.0601.3125,1.7266,0,.8125-.1875,1.521-.5625,2.125s-.875,1.104-1.5,1.5-1.3464.6899-2.1641.8828c-.8179.1924-1.6797.2891-2.5859.2891-1.75,0-3.2656-.292-4.5469-.875Z"/><path d="m830.394,1728.3984h-.0625v9.7188h-3.625v-23.3594h3.625v2.8125h.0625c1.2395-2.125,3.052-3.1875,5.4375-3.1875,2.0312,0,3.6145.7134,4.75,2.1406,1.1353,1.4272,1.7031,3.3438,1.7031,5.75,0,2.6665-.6406,4.8022-1.9219,6.4062s-3.0312,2.4062-5.25,2.4062c-2.0417,0-3.6147-.896-4.7188-2.6875Zm-.0938-6.3125v1.9844c0,1.1665.3723,2.1562,1.1172,2.9688.7446.8125,1.6899,1.2188,2.8359,1.2188,1.3438,0,2.3984-.5234,3.1641-1.5703s1.1484-2.5078,1.1484-4.3828c0-1.5728-.3569-2.8047-1.0703-3.6953-.7136-.8906-1.6797-1.3359-2.8984-1.3359-1.2917,0-2.3308.4585-3.1172,1.375-.7866.9165-1.1797,2.0625-1.1797,3.4375Z"/><path d="m859.8547,1723.7421h-10.9062c.0415,1.479.4973,2.6196,1.3672,3.4219.8696.8022,2.0649,1.2031,3.5859,1.2031,1.7083,0,3.2759-.5103,4.7031-1.5312v2.9219c-1.4585.9165-3.3855,1.375-5.7812,1.375-2.3542,0-4.2007-.7266-5.5391-2.1797-1.3386-1.4531-2.0078-3.4976-2.0078-6.1328,0-2.4897.7368-4.5181,2.2109-6.0859,1.4739-1.5679,3.3047-2.3516,5.4922-2.3516s3.8801.7031,5.0781,2.1094c1.1978,1.4062,1.7969,3.3594,1.7969,5.8594v1.3906Zm-3.5-2.5625c-.0105-1.3022-.3179-2.3149-.9219-3.0391-.6042-.7241-1.4375-1.0859-2.5-1.0859-1.0417,0-1.9246.3804-2.6484,1.1406-.7241.7603-1.1694,1.7554-1.3359,2.9844h7.4062Z"/><path d="m877.8778,1730.7577h-3.625v-9.0156c0-2.9897-1.0574-4.4844-3.1719-4.4844-1.1042,0-2.0156.4141-2.7344,1.2422s-1.0781,1.8726-1.0781,3.1328v9.125h-3.6406v-16h3.6406v2.6562h.0625c1.1978-2.021,2.927-3.0312,5.1875-3.0312,1.7395,0,3.0676.5649,3.9844,1.6953.9165,1.1304,1.375,2.7632,1.375,4.8984v9.7812Z"/><path d="m891.0572,1730.5859c-.7085.354-1.6406.5312-2.7969.5312-3.1042,0-4.6562-1.4897-4.6562-4.4688v-9.0469h-2.6719v-2.8438h2.6719v-3.7031l3.625-1.0312v4.7344h3.8281v2.8438h-3.8281v8c0,.9478.1719,1.625.5156,2.0312s.9165.6094,1.7188.6094c.6145,0,1.1458-.1772,1.5938-.5312v2.875Z"/><path d="m905.4472,1711.3984c-.5938,0-1.1016-.1929-1.5234-.5781s-.6328-.875-.6328-1.4688.2109-1.0884.6328-1.4844.9297-.5938,1.5234-.5938c.6145,0,1.1353.1978,1.5625.5938.427.396.6406.8906.6406,1.4844,0,.5625-.2136,1.0444-.6406,1.4453-.4272.4009-.948.6016-1.5625.6016Zm1.7969,19.3594h-3.625v-16h3.625v16Z"/><path d="m926.5484,1730.7577h-3.625v-9.0156c0-2.9897-1.0574-4.4844-3.1719-4.4844-1.1042,0-2.0156.4141-2.7344,1.2422s-1.0781,1.8726-1.0781,3.1328v9.125h-3.6406v-16h3.6406v2.6562h.0625c1.1978-2.021,2.927-3.0312,5.1875-3.0312,1.7395,0,3.0676.5649,3.9844,1.6953.9165,1.1304,1.375,2.7632,1.375,4.8984v9.7812Z"/><path d="m964.8759,1730.7577h-3.6875v-14.5c0-1.1875.0728-2.6406.2188-4.3594h-.0625c-.2292.979-.4324,1.6821-.6094,2.1094l-6.6875,16.75h-2.5625l-6.7031-16.625c-.1875-.4897-.3855-1.2344-.5938-2.2344h-.0625c.0833.896.125,2.3594.125,4.3906v14.4688h-3.4375v-22.4062h5.2344l5.8906,14.9219c.4478,1.146.7395,2,.875,2.5625h.0781c.3853-1.1772.6978-2.0522.9375-2.625l6-14.8594h5.0469v22.4062Z"/><path d="m972.1334,1711.3984c-.5938,0-1.1016-.1929-1.5234-.5781s-.6328-.875-.6328-1.4688.2109-1.0884.6328-1.4844.9297-.5938,1.5234-.5938c.6145,0,1.1353.1978,1.5625.5938.427.396.6406.8906.6406,1.4844,0,.5625-.2136,1.0444-.6406,1.4453-.4272.4009-.948.6016-1.5625.6016Zm1.7969,19.3594h-3.625v-16h3.625v16Z"/><path d="m990.4378,1730.0234c-1.2812.7393-2.7969,1.1094-4.5469,1.1094-2.375,0-4.2917-.7422-5.75-2.2266-1.4585-1.4844-2.1875-3.4087-2.1875-5.7734,0-2.6353.7837-4.7524,2.3516-6.3516,1.5676-1.5991,3.6641-2.3984,6.2891-2.3984,1.4583,0,2.7446.2554,3.8594.7656v3.375c-1.1147-.8335-2.3022-1.25-3.5625-1.25-1.5312,0-2.7866.5181-3.7656,1.5547-.9792,1.0366-1.4688,2.3931-1.4688,4.0703,0,1.6562.4609,2.9634,1.3828,3.9219s2.1587,1.4375,3.7109,1.4375c1.302,0,2.5312-.4634,3.6875-1.3906v3.1562Z"/><path d="m1003.6328,1718.2109c-.4375-.3438-1.0679-.5156-1.8906-.5156-1.073,0-1.9688.4844-2.6875,1.4531s-1.0781,2.2866-1.0781,3.9531v7.6562h-3.625v-16h3.625v3.2969h.0625c.354-1.125.8984-2.0024,1.6328-2.6328s1.5547-.9453,2.4609-.9453c.6562,0,1.1562.0991,1.5.2969v3.4375Z"/><path d="m1013.3278,1731.1327c-2.4688,0-4.4402-.7476-5.9141-2.2422-1.4741-1.4946-2.2109-3.4766-2.2109-5.9453,0-2.6875.7681-4.7866,2.3047-6.2969,1.5364-1.5103,3.6067-2.2656,6.2109-2.2656,2.5,0,4.4478.7344,5.8438,2.2031,1.3958,1.4688,2.0938,3.5054,2.0938,6.1094,0,2.5522-.7527,4.5962-2.2578,6.1328-1.5054,1.5366-3.5288,2.3047-6.0703,2.3047Zm.1719-13.8594c-1.4167,0-2.5366.4946-3.3594,1.4844-.823.9897-1.2344,2.354-1.2344,4.0938,0,1.6772.4165,2.9976,1.25,3.9609.8333.9634,1.9478,1.4453,3.3438,1.4453,1.427,0,2.5234-.4741,3.2891-1.4219s1.1484-2.2969,1.1484-4.0469c0-1.7603-.3828-3.1196-1.1484-4.0781s-1.8621-1.4375-3.2891-1.4375Z"/><path d="m1024.6634,1730.2577v-3.3594c1.354,1.0312,2.8489,1.5469,4.4844,1.5469,2.1875,0,3.2812-.646,3.2812-1.9375,0-.3647-.0938-.6743-.2812-.9297s-.4402-.4819-.7578-.6797c-.3179-.1978-.6929-.375-1.125-.5312-.4324-.1562-.9141-.3335-1.4453-.5312-.6562-.2603-1.2476-.5366-1.7734-.8281-.5261-.2915-.9636-.6226-1.3125-.9922-.3491-.3696-.6121-.7891-.7891-1.2578-.1772-.4688-.2656-1.0156-.2656-1.6406,0-.771.1821-1.4507.5469-2.0391.3645-.5884.854-1.0835,1.4688-1.4844.6145-.4009,1.3125-.7031,2.0938-.9062s1.5884-.3047,2.4219-.3047c1.479,0,2.802.2241,3.9688.6719v3.1719c-1.125-.771-2.4167-1.1562-3.875-1.1562-.4585,0-.8726.0469-1.2422.1406-.3699.0938-.6851.2241-.9453.3906-.2605.1665-.4636.3672-.6094.6016-.146.2344-.2188.4922-.2188.7734,0,.3438.0728.6353.2188.875.1458.2397.3618.4507.6484.6328.2864.1821.6301.3491,1.0312.5.4009.1509.8618.3149,1.3828.4922.6875.2812,1.3047.5679,1.8516.8594s1.0129.6226,1.3984.9922c.3853.3696.6821.7969.8906,1.2812.2083.4844.3125,1.0601.3125,1.7266,0,.8125-.1875,1.521-.5625,2.125s-.875,1.104-1.5,1.5-1.3464.6899-2.1641.8828c-.8179.1924-1.6797.2891-2.5859.2891-1.75,0-3.2656-.292-4.5469-.875Z"/><path d="m1046.8741,1731.1327c-2.4688,0-4.4402-.7476-5.9141-2.2422-1.4741-1.4946-2.2109-3.4766-2.2109-5.9453,0-2.6875.7681-4.7866,2.3047-6.2969,1.5364-1.5103,3.6067-2.2656,6.2109-2.2656,2.5,0,4.4478.7344,5.8438,2.2031,1.3958,1.4688,2.0938,3.5054,2.0938,6.1094,0,2.5522-.7527,4.5962-2.2578,6.1328-1.5054,1.5366-3.5288,2.3047-6.0703,2.3047Zm.1719-13.8594c-1.4167,0-2.5366.4946-3.3594,1.4844-.823.9897-1.2344,2.354-1.2344,4.0938,0,1.6772.4165,2.9976,1.25,3.9609.8333.9634,1.9478,1.4453,3.3438,1.4453,1.427,0,2.5234-.4741,3.2891-1.4219s1.1484-2.2969,1.1484-4.0469c0-1.7603-.3828-3.1196-1.1484-4.0781s-1.8621-1.4375-3.2891-1.4375Z"/><path d="m1067.7252,1710.0234c-.4897-.2812-1.0469-.4219-1.6719-.4219-1.7605,0-2.6406.9946-2.6406,2.9844v2.1719h3.7188v2.8438h-3.7031v13.1562h-3.625v-13.1562h-2.7344v-2.8438h2.7344v-2.5938c0-1.6875.552-3.0181,1.6562-3.9922,1.104-.9741,2.4844-1.4609,4.1406-1.4609.8958,0,1.604.0991,2.125.2969v3.0156Z"/><path d="m1079.0609,1730.5859c-.7085.354-1.6406.5312-2.7969.5312-3.1042,0-4.6562-1.4897-4.6562-4.4688v-9.0469h-2.6719v-2.8438h2.6719v-3.7031l3.625-1.0312v4.7344h3.8281v2.8438h-3.8281v8c0,.9478.1719,1.625.5156,2.0312s.9165.6094,1.7188.6094c.6145,0,1.1458-.1772,1.5938-.5312v2.875Z"/><path d="m1091.1854,1729.9296v-3.4062c1.4583,1.1562,3.104,1.7344,4.9375,1.7344,1.4895,0,2.6797-.3384,3.5703-1.0156s1.3359-1.5938,1.3359-2.75c0-2.5415-1.9429-3.8125-5.8281-3.8125h-1.7344v-2.9062h1.6562c3.4478,0,5.1719-1.1978,5.1719-3.5938,0-2.2085-1.3438-3.3125-4.0312-3.3125-1.5,0-2.9116.5366-4.2344,1.6094v-3.2188c1.5208-.854,3.3176-1.2812,5.3906-1.2812,1.9895,0,3.5833.5,4.7812,1.5,1.1978,1,1.7969,2.2812,1.7969,3.8438,0,2.9478-1.5,4.8438-4.5,5.6875v.0625c1.6145.1562,2.8906.7212,3.8281,1.6953s1.4062,2.1899,1.4062,3.6484c0,2.0103-.7554,3.6328-2.2656,4.8672-1.5105,1.2344-3.5,1.8516-5.9688,1.8516-2.2188,0-3.9897-.4009-5.3125-1.2031Z"/><path d="m1123.9896,1723.5546c0,1.125-.1851,2.1509-.5547,3.0781-.3699.9272-.8828,1.7266-1.5391,2.3984s-1.4351,1.1929-2.3359,1.5625c-.9011.3696-1.8777.5547-2.9297.5547-1.125,0-2.1589-.2188-3.1016-.6562-.9429-.4375-1.7554-1.0884-2.4375-1.9531-.6824-.8647-1.2109-1.9399-1.5859-3.2266s-.5625-2.7788-.5625-4.4766c0-2.0728.2473-3.9116.7422-5.5156.4946-1.604,1.1743-2.9478,2.0391-4.0312.8645-1.0835,1.8801-1.9062,3.0469-2.4688,1.1665-.5625,2.427-.8438,3.7812-.8438.8438,0,1.6118.0571,2.3047.1719.6926.1147,1.2473.271,1.6641.4688v3.2656c-.5312-.271-1.0991-.5-1.7031-.6875-.6042-.1875-1.2969-.2812-2.0781-.2812-.875,0-1.6824.1772-2.4219.5312-.7397.354-1.3777.8726-1.9141,1.5547-.5366.6821-.9585,1.5259-1.2656,2.5312-.3074,1.0054-.4663,2.1641-.4766,3.4766h.0938c.479-.7397,1.1274-1.3228,1.9453-1.75.8176-.4272,1.7786-.6406,2.8828-.6406.979,0,1.8618.1587,2.6484.4766.7864.3179,1.4583.7759,2.0156,1.375.5571.5991.9868,1.3281,1.2891,2.1875.302.8594.4531,1.8257.4531,2.8984Zm-3.6562.2969c0-.646-.0757-1.2344-.2266-1.7656-.1511-.5312-.3804-.9868-.6875-1.3672-.3074-.3804-.6929-.6743-1.1562-.8828-.4636-.2085-1.0078-.3125-1.6328-.3125s-1.1746.1118-1.6484.3359c-.4741.2241-.8726.5181-1.1953.8828-.323.3647-.5652.7812-.7266,1.25-.1616.4688-.2422.9478-.2422,1.4375,0,.5312.0754,1.0757.2266,1.6328.1509.5571.3828,1.0649.6953,1.5234s.7109.8359,1.1953,1.1328,1.0598.4453,1.7266.4453c.5938,0,1.1196-.1094,1.5781-.3281.4583-.2188.8411-.521,1.1484-.9062.3071-.3853.5415-.8413.7031-1.3672.1614-.5259.2422-1.0962.2422-1.7109Z"/><path d="m1127.9503,1730.2421v-3.4844c1.4688.9897,2.9583,1.4844,4.4688,1.4844,1.5208,0,2.7446-.3882,3.6719-1.1641.927-.7759,1.3906-1.8101,1.3906-3.1016,0-1.271-.4714-2.2603-1.4141-2.9688-.9429-.7085-2.2944-1.0625-4.0547-1.0625-.6042,0-1.8281.0625-3.6719.1875l.7969-11.7812h11.0312v3.0938h-8.0156l-.375,5.6094c.7188-.0415,1.3696-.0625,1.9531-.0625,2.375,0,4.2109.6094,5.5078,1.8281s1.9453,2.8853,1.9453,5c0,2.2188-.7422,3.9976-2.2266,5.3359s-3.5234,2.0078-6.1172,2.0078c-2.1875,0-3.8179-.3076-4.8906-.9219Z"/></g><g><path d="m224.4664,1671.5663c-3.2852,1.3594-6.7119,2.0391-10.2803,2.0391-5.5508,0-10.0776-1.8643-13.5796-5.5933-3.5024-3.7285-5.2534-8.5952-5.2534-14.5991,0-6.5889,1.8975-11.8706,5.6924-15.8452,3.7949-3.9741,8.6187-5.9614,14.4717-5.9614,3.1152,0,6.0981.5005,8.9492,1.501v2.9736c-2.8511-1.2837-5.853-1.9258-9.0059-1.9258-5.0977,0-9.2422,1.7275-12.4326,5.1826-3.1909,3.4551-4.7861,8.0527-4.7861,13.792,0,5.5322,1.5244,9.8979,4.5737,13.0981,3.0488,3.2002,6.9146,4.8003,11.5972,4.8003,3.7383,0,7.0894-.7266,10.0537-2.1807v2.7188Z"/><path d="m245.1538,1673.6054c-4.2295,0-7.5757-1.3921-10.0396-4.1772-2.4639-2.7847-3.6958-6.4048-3.6958-10.8608,0-4.8145,1.2886-8.5811,3.8657-11.2998s5.9707-4.0781,10.1812-4.0781c4.1348,0,7.4009,1.3501,9.7988,4.0498,2.3975,2.7002,3.5967,6.4385,3.5967,11.2148,0,4.5127-1.2227,8.166-3.6675,10.96-2.4453,2.7944-5.7915,4.1914-10.0396,4.1914Zm.1982-28.0371c-3.4175,0-6.1411,1.1519-8.1704,3.4551-2.0298,2.3037-3.0444,5.5039-3.0444,9.6006,0,3.7949.9912,6.8442,2.9736,9.1475,1.9824,2.3037,4.6914,3.4551,8.1279,3.4551,3.4927,0,6.1831-1.1328,8.0713-3.3984,1.8877-2.2656,2.832-5.4092,2.832-9.4307,0-4.1348-.9395-7.3066-2.8179-9.5156-1.8789-2.209-4.5361-3.3135-7.9722-3.3135Z"/><path d="m302.9975,1672.8974v-17.4453c0-3.6436-.5713-6.2021-1.7134-7.6748-1.1426-1.4727-2.9502-2.209-5.4233-2.209-2.2847,0-4.2578.9819-5.9189,2.9453-1.6616,1.9639-2.4922,4.4277-2.4922,7.3916v16.9922h-2.6055v-17.6436c0-6.457-2.4546-9.6855-7.3633-9.6855-2.3604,0-4.3237.9868-5.8906,2.9595-1.5674,1.9731-2.3506,4.5269-2.3506,7.6606v16.709h-2.6055v-29h2.6055v4.8145h.1133c2.02-3.6816,4.9746-5.5225,8.8643-5.5225,2.1143,0,3.9224.6089,5.4233,1.8267s2.5156,2.8179,3.0444,4.8003c.9062-2.0957,2.2041-3.7241,3.894-4.8853,1.6895-1.1611,3.5259-1.7417,5.5083-1.7417,6.3438,0,9.5156,3.9272,9.5156,11.7812v17.9268h-2.6055Z"/><path d="m351.2405,1672.8974v-17.4453c0-3.6436-.5713-6.2021-1.7134-7.6748-1.1426-1.4727-2.9502-2.209-5.4233-2.209-2.2847,0-4.2578.9819-5.9189,2.9453-1.6616,1.9639-2.4922,4.4277-2.4922,7.3916v16.9922h-2.6055v-17.6436c0-6.457-2.4546-9.6855-7.3633-9.6855-2.3604,0-4.3237.9868-5.8906,2.9595-1.5674,1.9731-2.3506,4.5269-2.3506,7.6606v16.709h-2.6055v-29h2.6055v4.8145h.1133c2.02-3.6816,4.9746-5.5225,8.8643-5.5225,2.1143,0,3.9224.6089,5.4233,1.8267s2.5156,2.8179,3.0444,4.8003c.9062-2.0957,2.2041-3.7241,3.894-4.8853,1.6895-1.1611,3.5259-1.7417,5.5083-1.7417,6.3438,0,9.5156,3.9272,9.5156,11.7812v17.9268h-2.6055Z"/><path d="m382.265,1672.8974v-5.2676h-.1133c-2.0205,3.9839-5.1357,5.9756-9.3457,5.9756-6.8535,0-10.2803-4.314-10.2803-12.9424v-16.7656h2.6338v16.1143c0,3.9272.6465,6.7783,1.9399,8.5527,1.293,1.7749,3.3276,2.6621,6.103,2.6621,2.6997,0,4.8853-.9912,6.5562-2.9736s2.5063-4.6255,2.5063-7.9297v-16.4258h2.6055v29h-2.6055Z"/><path d="m414.4504,1672.8974v-16.8789c0-6.9668-2.5112-10.4502-7.5332-10.4502-2.7944,0-5.0884,1.0244-6.8818,3.0728-1.7939,2.0488-2.6904,4.5835-2.6904,7.604v16.6523h-2.6055v-29h2.6055v5.2676h.1133c2.1143-3.9834,5.4185-5.9756,9.9121-5.9756,3.1338,0,5.5317,1.0435,7.1934,3.1294,1.6611,2.0864,2.4922,5.0649,2.4922,8.9351v17.6436h-2.6055Z"/><path d="m427.6329,1636.5907c-.5664,0-1.0669-.2075-1.501-.623-.4346-.415-.6514-.9438-.6514-1.5859,0-.623.2217-1.1279.6655-1.5151.4434-.3867.939-.5806,1.4868-.5806.585,0,1.0996.189,1.5435.5664.4434.3779.6655.8877.6655,1.5293,0,.6045-.2173,1.1235-.6514,1.5576-.4346.4346-.9536.6514-1.5576.6514Zm-1.2744,36.3066v-29h2.6055v29h-2.6055Z"/><path d="m457.6094,1671.623c-2.1523,1.3213-4.7202,1.9824-7.7031,1.9824-3.9463,0-7.1274-1.3545-9.5439-4.064-2.417-2.709-3.625-6.2539-3.625-10.6343,0-4.6064,1.3594-8.3779,4.0781-11.314,2.7188-2.9355,6.2114-4.4038,10.4785-4.4038,2.209,0,4.3516.4531,6.4287,1.3594v2.9453c-2.0771-1.2837-4.3521-1.9258-6.8252-1.9258-3.3984,0-6.1553,1.2227-8.2695,3.6675-2.1147,2.4453-3.1719,5.6123-3.1719,9.5015,0,3.7573.9673,6.7783,2.9028,9.0625,1.9351,2.2847,4.4888,3.4268,7.6606,3.4268,2.9072,0,5.4375-.7739,7.5898-2.3223v2.7188Z"/><path d="m482.4882,1672.8974v-5.8057h-.1133c-.9253,1.9824-2.2705,3.564-4.0356,4.7437-1.7656,1.1797-3.7241,1.77-5.8765,1.77-2.7568,0-4.9375-.7739-6.542-2.3223-1.605-1.5479-2.4072-3.502-2.4072-5.8623,0-5.0596,3.3511-8.1182,10.0537-9.1758l8.9209-1.3311c0-6.2305-2.3413-9.3457-7.0234-9.3457-3.1909,0-6.2969,1.2842-9.3174,3.8516v-3.1436c1.0762-.8496,2.5347-1.5762,4.3755-2.1807,1.8408-.604,3.5728-.9062,5.1968-.9062,2.9829,0,5.291.9253,6.9243,2.7754,1.6328,1.8506,2.4497,4.541,2.4497,8.0713v18.8613h-2.6055Zm-7.9863-14.4434c-3.04.4346-5.1733,1.1377-6.4004,2.1099-1.2275.9727-1.8408,2.5537-1.8408,4.7437,0,1.7183.5708,3.1343,1.7134,4.248,1.1421,1.1143,2.7329,1.6709,4.772,1.6709,2.7939,0,5.1162-1.0337,6.9668-3.1011,1.8501-2.0674,2.7754-4.7339,2.7754-8.0005v-2.832l-7.9863,1.1611Z"/><path d="m505.866,1672.5009c-1.3594.6416-2.6338.9629-3.8232.9629-4.2861,0-6.4287-2.5674-6.4287-7.7031v-19.4844h-5.2109v-2.3789h5.2109v-7.5332c.415-.1509.8496-.3018,1.3027-.4531.4531-.1318.8872-.2734,1.3027-.4248v8.4111h7.6465v2.3789h-7.6465v19.1445c0,2.0015.3159,3.4507.9487,4.3472.6323.897,1.7036,1.3452,3.2144,1.3452,1.0762,0,2.2373-.3491,3.4834-1.0479v2.4355Z"/><path d="m513.4696,1636.5907c-.5664,0-1.0669-.2075-1.501-.623-.4346-.415-.6514-.9438-.6514-1.5859,0-.623.2217-1.1279.6655-1.5151.4434-.3867.939-.5806,1.4868-.5806.585,0,1.0996.189,1.5435.5664.4434.3779.6655.8877.6655,1.5293,0,.6045-.2173,1.1235-.6514,1.5576-.4346.4346-.9536.6514-1.5576.6514Zm-1.2744,36.3066v-29h2.6055v29h-2.6055Z"/><path d="m536.3093,1673.6054c-4.2295,0-7.5757-1.3921-10.0396-4.1772-2.4639-2.7847-3.6958-6.4048-3.6958-10.8608,0-4.8145,1.2886-8.5811,3.8657-11.2998s5.9707-4.0781,10.1812-4.0781c4.1348,0,7.4009,1.3501,9.7988,4.0498,2.3975,2.7002,3.5967,6.4385,3.5967,11.2148,0,4.5127-1.2227,8.166-3.6675,10.96-2.4453,2.7944-5.7915,4.1914-10.0396,4.1914Zm.1982-28.0371c-3.4175,0-6.1411,1.1519-8.1704,3.4551-2.0298,2.3037-3.0444,5.5039-3.0444,9.6006,0,3.7949.9912,6.8442,2.9736,9.1475,1.9824,2.3037,4.6914,3.4551,8.1279,3.4551,3.4927,0,6.1831-1.1328,8.0713-3.3984,1.8877-2.2656,2.832-5.4092,2.832-9.4307,0-4.1348-.9395-7.3066-2.8179-9.5156-1.8789-2.209-4.5361-3.3135-7.9722-3.3135Z"/><path d="m577.5006,1672.8974v-16.8789c0-6.9668-2.5112-10.4502-7.5332-10.4502-2.7944,0-5.0884,1.0244-6.8818,3.0728-1.7939,2.0488-2.6904,4.5835-2.6904,7.604v16.6523h-2.6055v-29h2.6055v5.2676h.1133c2.1143-3.9834,5.4185-5.9756,9.9121-5.9756,3.1338,0,5.5317,1.0435,7.1934,3.1294,1.6611,2.0864,2.4922,5.0649,2.4922,8.9351v17.6436h-2.6055Z"/><path d="m340.0246,1742.766v-3.002c2.6055,1.4351,5.1919,2.1523,7.7598,2.1523,3.3228,0,5.9189-.9155,7.7881-2.7471,1.8691-1.8311,2.8037-4.2666,2.8037-7.3066,0-6.6079-3.7666-9.9121-11.2998-9.9121-1.6992,0-3.644.1133-5.834.3398l1.2178-19.3145h16.9072v2.3789h-14.585l-.9346,14.4434c1.9443-.1509,3.3418-.2266,4.1914-.2266,4.2856,0,7.5332,1.0527,9.7422,3.1577,2.209,2.1055,3.3135,5.0366,3.3135,8.7935,0,3.7949-1.1709,6.8726-3.5117,9.2324-2.3413,2.3604-5.6831,3.54-10.0254,3.54-2.8511,0-5.3623-.5098-7.5332-1.5293Z"/><path d="m374.2491,1743.5873c.585-3.4927,1.3779-6.8628,2.3789-10.1104,1.0005-3.2471,2.1616-6.4331,3.4834-9.5581,1.3213-3.1245,2.7656-6.2207,4.333-9.2891,1.5669-3.0679,3.2188-6.1597,4.9561-9.2749h-21.4668v-2.3789h24.9785v.9629c-1.9072,3.4932-3.6914,6.8584-5.3525,10.0962-1.6616,3.2383-3.1675,6.4526-4.5171,9.6431-1.3501,3.1909-2.5254,6.4146-3.5259,9.6714-1.001,3.2568-1.7842,6.6694-2.3506,10.2378h-2.917Z"/><path d="m407.1993,1722.9418c-2.9077,0-5.2017-.9531-6.8818-2.8604-1.6807-1.9067-2.5205-4.3799-2.5205-7.4199,0-3.3037.8921-5.8765,2.6763-7.7173s4.1206-2.7612,7.0093-2.7612c2.832,0,5.0786.916,6.7402,2.7471,1.6611,1.8315,2.4922,4.3896,2.4922,7.6748,0,2.9453-.8638,5.4048-2.5913,7.3774-1.7275,1.9731-4.0356,2.9595-6.9243,2.9595Zm.2266-18.4365c-2.1714,0-3.8848.7222-5.1401,2.1665-1.2559,1.4443-1.8833,3.46-1.8833,6.0464,0,2.4355.6089,4.3711,1.8267,5.8057,1.2178,1.4351,2.8931,2.1523,5.0269,2.1523,2.1523,0,3.8374-.7363,5.0552-2.209s1.8267-3.4453,1.8267-5.9189c0-2.6621-.6045-4.668-1.8125-6.0181-1.2085-1.3496-2.8418-2.0249-4.8994-2.0249Zm-.1699,40.0166h-2.8037l24.4404-41.4893h2.7188l-24.3555,41.4893Zm22.1465-.2266c-2.8887,0-5.1782-.9531-6.8677-2.8604-1.6899-1.9067-2.5347-4.3799-2.5347-7.4199,0-3.3418.9062-5.9282,2.7188-7.7598,1.8125-1.8311,4.1348-2.7471,6.9668-2.7471s5.0786.9253,6.7402,2.7754c1.6611,1.8506,2.4922,4.4087,2.4922,7.6748,0,2.9453-.8638,5.4048-2.5913,7.3774-1.7275,1.9731-4.0356,2.9595-6.9243,2.9595Zm.2266-18.4648c-2.1523,0-3.8613.7363-5.126,2.209-1.2651,1.4727-1.8975,3.4834-1.8975,6.0322,0,2.4355.6089,4.3711,1.8267,5.8057,1.2178,1.4351,2.8931,2.1523,5.0269,2.1523,2.1709,0,3.8657-.7314,5.0835-2.1948,1.2178-1.4629,1.8267-3.4409,1.8267-5.9331,0-2.6621-.6045-4.6729-1.8125-6.0322-1.2085-1.3594-2.8511-2.0391-4.9277-2.0391Z"/></g><g><path d="m1472.8023,1671.5663c-3.2852,1.3594-6.7119,2.0391-10.2803,2.0391-5.5508,0-10.0776-1.8643-13.5796-5.5933-3.5024-3.7285-5.2534-8.5952-5.2534-14.5991,0-6.5889,1.8975-11.8706,5.6924-15.8452,3.7949-3.9741,8.6187-5.9614,14.4717-5.9614,3.1152,0,6.0981.5005,8.9492,1.501v2.9736c-2.8511-1.2837-5.853-1.9258-9.0059-1.9258-5.0977,0-9.2422,1.7275-12.4326,5.1826-3.1909,3.4551-4.7861,8.0527-4.7861,13.792,0,5.5322,1.5244,9.8979,4.5737,13.0981,3.0488,3.2002,6.9146,4.8003,11.5972,4.8003,3.7383,0,7.0894-.7266,10.0537-2.1807v2.7188Z"/><path d="m1495.5289,1646.6161c-.8687-.623-1.8882-.9346-3.0586-.9346-2.2847,0-4.2012,1.1802-5.749,3.54-1.5483,2.3604-2.3223,5.7114-2.3223,10.0537v13.6221h-2.5488v-29h2.5488v6.4287h.1133c.6606-2.209,1.7085-3.9268,3.1436-5.1543,1.4346-1.2271,3.0962-1.8408,4.9844-1.8408,1.0762,0,2.0391.1699,2.8887.5098v2.7754Z"/><path d="m1501.0364,1658.5107c0,3.9839.9204,7.0991,2.7612,9.3457,1.8408,2.2471,4.3657,3.3701,7.5757,3.3701,3.2471,0,6.4189-1.1987,9.5156-3.5967v2.7754c-3.002,2.1338-6.3535,3.2002-10.0537,3.2002-3.7383,0-6.7593-1.3403-9.0625-4.0215-2.3037-2.6807-3.4551-6.4663-3.4551-11.3564,0-4.229,1.2036-7.7925,3.6108-10.6909,2.4072-2.8979,5.5366-4.3472,9.3882-4.3472,3.606,0,6.3721,1.2651,8.2979,3.7949,1.9258,2.5303,2.8887,5.9854,2.8887,10.3652v1.1611h-21.4668Zm18.748-2.3789c-.1133-3.3418-.916-5.9375-2.4072-7.7881-1.4917-1.8501-3.5498-2.7754-6.1738-2.7754-2.7188,0-4.9702.9111-6.7544,2.7329-1.7842,1.8223-2.8843,4.4321-3.2993,7.8306h18.6348Z"/><path d="m1547.6087,1672.8974v-5.8057h-.1133c-.9253,1.9824-2.2705,3.564-4.0356,4.7437-1.7656,1.1797-3.7241,1.77-5.8765,1.77-2.7568,0-4.9375-.7739-6.542-2.3223-1.605-1.5479-2.4072-3.502-2.4072-5.8623,0-5.0596,3.3511-8.1182,10.0537-9.1758l8.9209-1.3311c0-6.2305-2.3413-9.3457-7.0234-9.3457-3.1909,0-6.2969,1.2842-9.3174,3.8516v-3.1436c1.0762-.8496,2.5347-1.5762,4.3755-2.1807,1.8408-.604,3.5728-.9062,5.1968-.9062,2.9829,0,5.291.9253,6.9243,2.7754,1.6328,1.8506,2.4497,4.541,2.4497,8.0713v18.8613h-2.6055Zm-7.9863-14.4434c-3.04.4346-5.1733,1.1377-6.4004,2.1099-1.2275.9727-1.8408,2.5537-1.8408,4.7437,0,1.7183.5708,3.1343,1.7134,4.248,1.1421,1.1143,2.7329,1.6709,4.772,1.6709,2.7939,0,5.1162-1.0337,6.9668-3.1011,1.8501-2.0674,2.7754-4.7339,2.7754-8.0005v-2.832l-7.9863,1.1611Z"/><path d="m1570.9866,1672.5009c-1.3594.6416-2.6338.9629-3.8232.9629-4.2861,0-6.4287-2.5674-6.4287-7.7031v-19.4844h-5.2109v-2.3789h5.2109v-7.5332c.415-.1509.8496-.3018,1.3027-.4531.4531-.1318.8872-.2734,1.3027-.4248v8.4111h7.6465v2.3789h-7.6465v19.1445c0,2.0015.3159,3.4507.9487,4.3472.6323.897,1.7036,1.3452,3.2144,1.3452,1.0762,0,2.2373-.3491,3.4834-1.0479v2.4355Z"/><path d="m1578.5899,1636.5907c-.5664,0-1.0669-.2075-1.501-.623-.4346-.415-.6514-.9438-.6514-1.5859,0-.623.2217-1.1279.6655-1.5151.4434-.3867.939-.5806,1.4868-.5806.585,0,1.0996.189,1.5435.5664.4434.3779.6655.8877.6655,1.5293,0,.6045-.2173,1.1235-.6514,1.5576-.4346.4346-.9536.6514-1.5576.6514Zm-1.2744,36.3066v-29h2.6055v29h-2.6055Z"/><path d="m1601.4298,1673.6054c-4.2295,0-7.5757-1.3921-10.0396-4.1772-2.4639-2.7847-3.6958-6.4048-3.6958-10.8608,0-4.8145,1.2886-8.5811,3.8657-11.2998s5.9707-4.0781,10.1812-4.0781c4.1348,0,7.4009,1.3501,9.7988,4.0498,2.3975,2.7002,3.5967,6.4385,3.5967,11.2148,0,4.5127-1.2227,8.166-3.6675,10.96-2.4453,2.7944-5.7915,4.1914-10.0396,4.1914Zm.1982-28.0371c-3.4175,0-6.1411,1.1519-8.1704,3.4551-2.0298,2.3037-3.0444,5.5039-3.0444,9.6006,0,3.7949.9912,6.8442,2.9736,9.1475,1.9824,2.3037,4.6914,3.4551,8.1279,3.4551,3.4927,0,6.1831-1.1328,8.0713-3.3984,1.8877-2.2656,2.832-5.4092,2.832-9.4307,0-4.1348-.9395-7.3066-2.8179-9.5156-1.8789-2.209-4.5361-3.3135-7.9722-3.3135Z"/><path d="m1642.6212,1672.8974v-16.8789c0-6.9668-2.5112-10.4502-7.5332-10.4502-2.7944,0-5.0884,1.0244-6.8818,3.0728-1.7939,2.0488-2.6904,4.5835-2.6904,7.604v16.6523h-2.6055v-29h2.6055v5.2676h.1133c2.1143-3.9834,5.4185-5.9756,9.9121-5.9756,3.1338,0,5.5317,1.0435,7.1934,3.1294,1.6611,2.0864,2.4922,5.0649,2.4922,8.9351v17.6436h-2.6055Z"/><path d="m1514.6937,1702.976v27.6406h6.3438v2.3506h-6.3438v10.6201h-2.6055v-10.6201h-19.3711v-2.5488c1.8125-2.0576,3.6533-4.2715,5.5225-6.6411,1.8691-2.3691,3.6577-4.7622,5.3667-7.1792,1.7085-2.4165,3.2803-4.7954,4.7153-7.1367,1.4346-2.3408,2.6338-4.5029,3.5967-6.4854h2.7754Zm-18.9746,27.6406h16.3691v-22.9961c-1.3784,2.3789-2.8086,4.6826-4.2905,6.9102-1.4824,2.228-2.9453,4.3286-4.3896,6.3013-1.4443,1.9731-2.8276,3.7905-4.1489,5.4517-1.3218,1.6616-2.502,3.106-3.54,4.333Z"/><path d="m1525.9222,1742.143v-2.9736c3.0962,1.8315,6.0132,2.7471,8.751,2.7471,3.2661,0,5.8242-.8354,7.6748-2.5063,1.8501-1.6709,2.7754-3.856,2.7754-6.5562,0-3.002-1.062-5.2769-3.186-6.8252-2.124-1.5479-5.1499-2.3223-9.0767-2.3223h-3.1152v-2.3789h2.7754c3.625,0,6.3862-.769,8.2837-2.3081,1.8975-1.5386,2.8462-3.7144,2.8462-6.5278,0-2.4355-.6895-4.3472-2.0674-5.7349-1.3784-1.3877-3.3892-2.0815-6.0322-2.0815-2.5488,0-5.2207.8877-8.0146,2.6621v-2.7754c3.0586-1.5103,5.8623-2.2656,8.4111-2.2656,3.2095,0,5.7534.8687,7.6323,2.6055,1.8784,1.7373,2.8179,4.0405,2.8179,6.9102,0,5.4941-2.6338,8.9873-7.9014,10.4785v.1133c2.832.2832,5.0977,1.3359,6.7969,3.1577,1.6992,1.8223,2.5488,4.1206,2.5488,6.896,0,3.5498-1.2275,6.4102-3.6816,8.5811-2.4546,2.1714-5.6357,3.2568-9.5439,3.2568-3.021,0-5.9189-.7173-8.6943-2.1523Z"/><path d="m1564.8477,1722.9418c-2.9077,0-5.2017-.9531-6.8818-2.8604-1.6807-1.9067-2.5205-4.3799-2.5205-7.4199,0-3.3037.8921-5.8765,2.6763-7.7173s4.1206-2.7612,7.0093-2.7612c2.832,0,5.0786.916,6.7402,2.7471,1.6611,1.8315,2.4922,4.3896,2.4922,7.6748,0,2.9453-.8638,5.4048-2.5913,7.3774-1.7275,1.9731-4.0356,2.9595-6.9243,2.9595Zm.2266-18.4365c-2.1714,0-3.8848.7222-5.1401,2.1665-1.2559,1.4443-1.8833,3.46-1.8833,6.0464,0,2.4355.6089,4.3711,1.8267,5.8057,1.2178,1.4351,2.8931,2.1523,5.0269,2.1523,2.1523,0,3.8374-.7363,5.0552-2.209s1.8267-3.4453,1.8267-5.9189c0-2.6621-.6045-4.668-1.8125-6.0181-1.2085-1.3496-2.8418-2.0249-4.8994-2.0249Zm-.1699,40.0166h-2.8037l24.4404-41.4893h2.7188l-24.3555,41.4893Zm22.1465-.2266c-2.8887,0-5.1782-.9531-6.8677-2.8604-1.6899-1.9067-2.5347-4.3799-2.5347-7.4199,0-3.3418.9062-5.9282,2.7188-7.7598,1.8125-1.8311,4.1348-2.7471,6.9668-2.7471s5.0786.9253,6.7402,2.7754c1.6611,1.8506,2.4922,4.4087,2.4922,7.6748,0,2.9453-.8638,5.4048-2.5913,7.3774-1.7275,1.9731-4.0356,2.9595-6.9243,2.9595Zm.2266-18.4648c-2.1523,0-3.8613.7363-5.126,2.209-1.2651,1.4727-1.8975,3.4834-1.8975,6.0322,0,2.4355.6089,4.3711,1.8267,5.8057,1.2178,1.4351,2.8931,2.1523,5.0269,2.1523,2.1709,0,3.8657-.7314,5.0835-2.1948,1.2178-1.4629,1.8267-3.4409,1.8267-5.9331,0-2.6621-.6045-4.6729-1.8125-6.0322-1.2085-1.3594-2.8511-2.0391-4.9277-2.0391Z"/></g></g></svg>