<?xml version="1.0" encoding="UTF-8"?><svg id="Text" xmlns="http://www.w3.org/2000/svg" xmlns:xlink="http://www.w3.org/1999/xlink" viewBox="0 0 1920 1920"><defs><style>.cls-1{fill:none;}.cls-2{fill:#008975;}.cls-3{fill:#fff;}.cls-4{fill:#f1f1f1;}.cls-5{fill:url(#_10_dpi_20_23);}.cls-5,.cls-6,.cls-7,.cls-8{opacity:.3;}.cls-6{fill:url(#_10_dpi_20_23-4);stroke-width:16px;}.cls-6,.cls-9,.cls-7,.cls-8{stroke:#fff;}.cls-6,.cls-7,.cls-8{stroke-miterlimit:10;}.cls-9{fill:#00e6cd;stroke-linecap:round;stroke-linejoin:round;}.cls-9,.cls-7,.cls-8{stroke-width:15px;}.cls-7{fill:url(#_10_dpi_20_23-2);}.cls-8{fill:url(#_10_dpi_20_23-3);}</style><pattern id="_10_dpi_20_23" x="0" y="0" width="28.7998" height="28.8008" patternTransform="translate(3169.6074 12976.7117) scale(1.7794)" patternUnits="userSpaceOnUse" viewBox="0 0 28.7998 28.8008"><g><rect class="cls-1" x="0" y="0" width="28.7998" height="28.8008"/><g><path class="cls-2" d="m28.7998,30.2402c.795,0,1.4395-.6445,1.4395-1.4394s-.6445-1.4395-1.4395-1.4395c-.7959,0-1.4404.6445-1.4404,1.4395s.6445,1.4394,1.4404,1.4394Z"/><path class="cls-2" d="m14.3994,30.2402c.795,0,1.4405-.6445,1.4405-1.4394s-.6455-1.4395-1.4405-1.4395c-.7959,0-1.4394.6445-1.4394,1.4395s.6435,1.4394,1.4394,1.4394Z"/><path class="cls-2" d="m28.7998,15.8418c.795,0,1.4395-.6465,1.4395-1.4414s-.6445-1.4395-1.4395-1.4395c-.7959,0-1.4404.6445-1.4404,1.4395s.6445,1.4414,1.4404,1.4414Z"/><path class="cls-2" d="m14.3994,15.8418c.795,0,1.4405-.6465,1.4405-1.4414s-.6455-1.4395-1.4405-1.4395c-.7959,0-1.4394.6445-1.4394,1.4395s.6435,1.4414,1.4394,1.4414Z"/><path class="cls-2" d="m7.1992,23.041c.7949,0,1.4405-.6445,1.4405-1.4394,0-.7969-.6455-1.4414-1.4405-1.4414-.7959,0-1.4394.6445-1.4394,1.4414,0,.7949.6435,1.4394,1.4394,1.4394Z"/><path class="cls-2" d="m21.5996,23.041c.795,0,1.4405-.6445,1.4405-1.4394,0-.7969-.6455-1.4414-1.4405-1.4414-.7959,0-1.4404.6445-1.4404,1.4414,0,.7949.6445,1.4394,1.4404,1.4394Z"/><path class="cls-2" d="m7.1992,8.6406c.7949,0,1.4405-.6445,1.4405-1.4395,0-.7968-.6455-1.4414-1.4405-1.4414-.7959,0-1.4394.6446-1.4394,1.4414,0,.795.6435,1.4395,1.4394,1.4395Z"/><path class="cls-2" d="m21.5996,8.6406c.795,0,1.4405-.6445,1.4405-1.4395,0-.7968-.6455-1.4414-1.4405-1.4414-.7959,0-1.4404.6446-1.4404,1.4414,0,.795.6445,1.4395,1.4404,1.4395Z"/></g><g><path class="cls-2" d="m0,30.2402c.7949,0,1.4395-.6445,1.4395-1.4394s-.6445-1.4395-1.4395-1.4395c-.7959,0-1.4404.6445-1.4404,1.4395s.6445,1.4394,1.4404,1.4394Z"/><path class="cls-2" d="m0,15.8418c.7949,0,1.4395-.6465,1.4395-1.4414s-.6445-1.4395-1.4395-1.4395c-.7959,0-1.4404.6445-1.4404,1.4395s.6445,1.4414,1.4404,1.4414Z"/></g><g><path class="cls-2" d="m28.7998,1.4394c.795,0,1.4395-.6445,1.4395-1.4394s-.6445-1.4395-1.4395-1.4395c-.7959,0-1.4404.6445-1.4404,1.4395s.6445,1.4394,1.4404,1.4394Z"/><path class="cls-2" d="m14.3994,1.4394c.795,0,1.4405-.6445,1.4405-1.4394s-.6455-1.4395-1.4405-1.4395c-.7959,0-1.4394.6445-1.4394,1.4395s.6435,1.4394,1.4394,1.4394Z"/></g><path class="cls-2" d="m0,1.4394c.7949,0,1.4395-.6445,1.4395-1.4394S.7949-1.4395,0-1.4395c-.7959,0-1.4404.6445-1.4404,1.4395S-.7959,1.4394,0,1.4394Z"/></g></pattern><pattern id="_10_dpi_20_23-2" patternTransform="translate(3162.7041 12969.3482) scale(1.7794)" xlink:href="#_10_dpi_20_23"/><pattern id="_10_dpi_20_23-3" patternTransform="translate(3162.7041 12969.3482) scale(1.7794)" xlink:href="#_10_dpi_20_23"/><pattern id="_10_dpi_20_23-4" patternTransform="translate(3162.7041 12968.3528) scale(1.7794)" xlink:href="#_10_dpi_20_23"/></defs><g><path class="cls-4" d="m1838.1978,555.2162c-135.8107-262.5531-452.134-427.875-741.779-446.9833-289.1265-19.0742-626.1591,90.8285-799.5154,333.8049-87.2876,122.3426-127.3572,259.0194-144.7571,405.6595-1.0095,8.5081.0856,17.1372,3.1946,25.1208l28.2217,72.4734c3.935,10.1055,3.5886,21.3792-.9917,31.2086-25.2054,54.0898-170.6225,256.723-170.6225,256.723-13.1167,16.8128-7.5114,41.4261,11.5933,50.8979,35.2445,17.4739,83.8085,33.8978,95.178,55.4757,14.7091,27.9152-5.2192,76.7036-24.6987,102.0899,6.1716,19.2667,27.7509,39.8026,49.4273,43.5807-20.0992,17.5991-28.5645,41.9862-25.8776,67.2393,32.8368,24.3961,25.8583,39.3174,19.8612,81.5445-2.1679,15.5853-15.3252,43.1387-16.6615,58.3783-7.1882,81.9766,53.7778,152.755,131.6146,152.755h351.8323c53.4642,0,96.5552,49.7649,96.5552,116.5455,0,.0218,776.7575.0218,776.7575.0218.7251-43.1491,1.4498-45.2217,2.1753-88.3704,1.3598-80.8672,23.5375-188.3127,65.4611-259.8229,78.5983-134.0672,204.3077-235.0562,280.4092-368.8924,116.073-204.1323,120.7242-480.4641,12.6222-689.4498Z"/><g><path class="cls-9" d="m477.6366,523.5538h709.2754v-179.2715c0-78.5504-59.6842-142.8686-135.811-150.7682-131.298-2.3292-263.3325,22.2001-383.2669,75.8816-162.4276,72.7011-389.1098,242.8361-371.1479,445.632.4318,4.8756,1.0212,9.7057,1.7299,14.4983-15.1892-108.8062,69.3119-205.9721,179.2204-205.9721Z"/><path class="cls-9" d="m1186.912,344.2822v460.8872c0-100.4347,81.4185-181.8535,181.8533-181.8535h403.9092c-104.9746-231.0526-370.8971-389.7062-611.7503-421.5807-36.3623-4.8121-73.0639-7.5695-109.8233-8.2212,76.1269,7.8996,135.811,72.2178,135.811,150.7682Z"/><path class="cls-9" d="m1186.912,805.1694h0v-281.6157H477.6366c-109.9085,0-194.4096,97.1659-179.2204,205.9721,18.0571,122.1041,124.568,216.0046,249.2901,216.0046h639.2058v-140.3611Z"/><path class="cls-9" d="m1772.6745,623.3159h-403.9092c-100.4348,0-181.8533,81.4189-181.8533,181.8535h0v140.3611h632.0045v-111.8127c-.0004-75.0341-16.7859-145.5677-46.242-210.4019Z"/><path class="cls-9" d="m1244.1457,1085.9836c0-77.5701,62.883-140.4531,140.4532-140.4531h-763.7845v38.8555c9.9856,113.6609,105.431,202.8172,221.7,202.8172h401.6313v-101.2196Z"/><path class="cls-9" d="m1384.5989,945.5305c-77.5702,0-140.4532,62.883-140.4532,140.4531v101.2196h378.924c108.1633,0,195.8468-82.7117,195.8468-190.8748v-50.7979h-434.3176Z"/><path class="cls-9" d="m1104.7922,1187.2032l32.8388,69.8194c30.7512,65.3806,96.5012,107.1154,168.7527,107.1154h119.9018c74.4864,0,141.8287-44.3244,171.2849-112.7389l25.4993-64.1958h-518.2776Z"/><path class="cls-5" d="m484.5399,530.9173h709.2754v-179.2715c0-78.5504-59.6842-142.8686-135.811-150.7682-131.298-2.3292-263.3325,22.2001-383.2669,75.8816-162.4276,72.7011-389.1098,242.8361-371.1479,445.632.4318,4.8756,1.0212,9.7057,1.7299,14.4983-15.1892-108.8062,69.3119-205.9721,179.2204-205.9721Z"/><path class="cls-7" d="m1104.7922,1187.2032l32.8388,69.8194c30.7512,65.3806,96.5012,107.1154,168.7527,107.1154h119.9018c74.4864,0,141.8287-44.3244,171.2849-112.7389l25.4993-64.1958h-518.2776Z"/><path class="cls-8" d="m1244.1457,1085.9836c0-77.5701,62.883-140.4531,140.4532-140.4531h-763.7845v38.8555c9.9856,113.6609,105.431,202.8172,221.7,202.8172h401.6313v-101.2196Z"/><path class="cls-3" d="m297.8442,736.8894c-3.6416,0-6.8278-2.6675-7.3761-6.3747-.7696-5.2023-1.3521-10.0867-1.7814-14.9317-4.3562-49.1829,5.1463-99.2378,28.2432-148.7745,20.3389-43.6214,51.2131-86.9176,91.765-128.6862,66.8594-68.8654,159.9952-132.8853,255.5265-175.6444,117.2344-52.4726,250.8671-78.937,386.4494-76.532.2131.0039.426.017.6382.0389,38.8653,4.0333,74.808,22.2499,101.2073,51.2948,26.6322,29.3006,41.299,67.2653,41.299,106.8996v179.2714c0,4.1232-3.3426,7.4659-7.4659,7.4659H477.0739c-50.2155,0-97.9197,21.7264-130.8808,59.6084-32.9638,37.8854-47.8877,88.1352-40.9454,137.8654.5684,4.0722-2.2624,7.8372-6.3319,8.4224-.3602.0515-.718.0768-1.0716.0768ZM1033.6969,200.7274c-127.655,0-252.9395,25.9497-363.3752,75.3796-93.8685,42.015-185.3231,104.8581-250.9135,172.4165-39.3873,40.569-69.3128,82.4887-88.9452,124.595-4.6309,9.9321-8.6889,19.8827-12.1695,29.8348,4.9571-7.7556,10.5102-15.1903,16.635-22.2294,35.798-41.143,87.6081-64.7392,142.1454-64.7392h701.8096v-171.8055c0-35.9125-13.2884-70.31-37.4169-96.8566-23.8541-26.2443-56.2986-42.7334-91.385-46.4527-5.4633-.0953-10.929-.1424-16.3848-.1424Z"/><path class="cls-6" d="m1772.6745,622.3205h-403.9092c-100.4348,0-181.8533,81.4189-181.8533,181.8535h0v140.3611h632.0045v-111.8127c-.0004-75.0341-16.7859-145.5677-46.242-210.4019Z"/></g></g><g><path d="m1362.2807,397.6702h9.7969v4.2217h-15.3711v-1.7402c0-1.1815.1982-2.2423.5957-3.1824.3975-.9398.8965-1.7831,1.498-2.5298.6016-.7465,1.2598-1.4071,1.9746-1.9819.7139-.5746,1.3936-1.0929,2.0381-1.5549.6768-.4834,1.2705-.9452,1.7803-1.3857.5107-.4403.9404-.8782,1.2891-1.3132.3496-.4351.6094-.8754.7812-1.3213.1719-.4457.2578-.921.2578-1.426,0-.9882-.2793-1.7347-.8379-2.2397-.5586-.5048-1.4121-.7573-2.5615-.7573-1.9873,0-3.8887.7896-5.7041,2.3687v-4.4795c2.0088-1.2997,4.2754-1.9497,6.7998-1.9497,1.1709,0,2.2207.1531,3.1504.4592.9287.3062,1.7158.744,2.3604,1.3132.6445.5695,1.1357,1.2596,1.4746,2.0706.3379.8112.5078,1.7161.5078,2.7151,0,1.0635-.1641,2.0089-.4922,2.8359-.3271.8273-.7627,1.5791-1.3047,2.2559-.543.6768-1.168,1.2971-1.877,1.8611s-1.4453,1.1093-2.208,1.6355c-.5156.3654-1.0127.7279-1.4902,1.0876-.4785.36-.9004.7145-1.2646,1.0635-.3662.3492-.6562.6903-.8711,1.0232-.2148.3331-.3223.65-.3223.9507Z"/><path d="m1391.978,381.7181c-1.0312,1.8585-1.9551,3.6013-2.7715,5.2288s-1.5361,3.2335-2.1592,4.8179c-.623,1.5846-1.1553,3.1959-1.5957,4.834-.4404,1.6383-.7998,3.4027-1.0791,5.2932h-5.3174c.3008-1.7938.6982-3.5233,1.1924-5.1885.4941-1.6649,1.0664-3.2791,1.7158-4.842.6504-1.563,1.3701-3.0857,2.1592-4.5681.79-1.4824,1.625-2.9326,2.5059-4.3506h-10.7314v-4.1572h16.0811v2.9326Z"/><path d="m1400.2602,390.4998c-1.6436,0-2.9678-.5209-3.9717-1.563-1.0049-1.0419-1.5068-2.4437-1.5068-4.2056,0-1.9227.5342-3.4482,1.6035-4.5762,1.0684-1.1279,2.4941-1.6919,4.2783-1.6919,1.707,0,3.042.5104,4.0039,1.5308.9609,1.0206,1.4414,2.4547,1.4414,4.3022,0,1.9014-.5312,3.4108-1.5947,4.5278-1.0635,1.1173-2.4814,1.6758-4.2539,1.6758Zm16.8701-11.7144l-15.0488,23.1064h-3.9316l15.0176-23.1064h3.9629Zm-16.5645,2.5137c-1.5684,0-2.3516,1.0905-2.3516,3.271,0,2.0625.7461,3.0938,2.2393,3.0938,1.5254,0,2.2881-1.0741,2.2881-3.2227,0-2.0947-.7246-3.1421-2.1758-3.1421Zm14.084,20.915c-1.6445,0-2.9678-.5209-3.9727-1.563-1.0039-1.0419-1.5059-2.4437-1.5059-4.2056,0-1.9227.5342-3.4482,1.6025-4.5762,1.0693-1.1279,2.4951-1.6919,4.2783-1.6919,1.7188,0,3.0557.505,4.0117,1.5146.9561,1.0099,1.4346,2.4386,1.4346,4.2861,0,1.9014-.5322,3.416-1.5947,4.5439-1.0645,1.1279-2.4824,1.6919-4.2539,1.6919Zm.2578-9.2007c-1.5586,0-2.3369,1.0905-2.3369,3.271,0,2.0625.7568,3.0938,2.2725,3.0938,1.5244,0,2.2871-1.0741,2.2871-3.2227,0-.999-.2041-1.7725-.6113-2.3203-.4092-.5479-.9463-.8218-1.6113-.8218Z"/><path d="m1330.7241,443.7007h-12.2461v-23.1064h11.7305v2.4492h-9.0234v7.686h8.3467v2.4331h-8.3467v8.0889h9.5391v2.4492Z"/><path d="m1358.2456,443.7007h-2.6426v-9.4746c0-1.826-.2822-3.1473-.8457-3.9639-.5645-.8163-1.5127-1.2246-2.8438-1.2246-1.1289,0-2.0869.5156-2.877,1.5469-.7891,1.0312-1.1836,2.2667-1.1836,3.7061v9.4102h-2.6426v-9.7969c0-3.244-1.252-4.8662-3.7549-4.8662-1.1602,0-2.1162.4862-2.8682,1.4583-.752.9723-1.1279,2.2372-1.1279,3.7947v9.4102h-2.6426v-16.5h2.6426v2.6104h.0645c1.1709-1.998,2.8789-2.9971,5.124-2.9971,1.1279,0,2.1113.3142,2.9492.9426s1.4121,1.453,1.7236,2.4734c1.2246-2.2772,3.0508-3.416,5.4785-3.416,3.6309,0,5.4463,2.2397,5.4463,6.7192v10.1675Z"/><path d="m1370.1372,444.0874c-2.4385,0-4.3857-.7706-5.8408-2.3123-1.4561-1.5414-2.1836-3.5852-2.1836-6.1311,0-2.7715.7578-4.9359,2.2715-6.4937,1.5156-1.5575,3.5615-2.3364,6.1396-2.3364,2.46,0,4.3799.7573,5.7607,2.272,1.3799,1.5146,2.0703,3.6149,2.0703,6.3003,0,2.632-.7441,4.7401-2.2314,6.3245-1.4883,1.5846-3.4834,2.3767-5.9863,2.3767Zm.1934-15.0498c-1.6973,0-3.04.5775-4.0283,1.7322-.9883,1.1549-1.4824,2.7473-1.4824,4.7776,0,1.9552.5,3.4966,1.498,4.6245,1,1.1279,2.3369,1.6919,4.0127,1.6919,1.708,0,3.0215-.5531,3.9395-1.6597.9189-1.1063,1.3779-2.6801,1.3779-4.7212,0-2.0625-.459-3.6522-1.3779-4.7695-.918-1.1171-2.2314-1.6758-3.9395-1.6758Z"/><path d="m1390.23,443.5396c-.623.3436-1.4443.5156-2.4648.5156-2.8896,0-4.334-1.6113-4.334-4.834v-9.7646h-2.8359v-2.2559h2.8359v-4.0283l2.6426-.854v4.8823h4.1562v2.2559h-4.1562v9.2974c0,1.1066.1875,1.8961.5635,2.3687.376.4728.999.709,1.8691.709.666,0,1.2412-.1825,1.7236-.5479v2.2559Z"/><path d="m1395.1128,423.0113c-.4727,0-.876-.1611-1.208-.4834-.334-.3223-.5-.7303-.5-1.2246s.166-.9049.5-1.2327c.332-.3275.7354-.4915,1.208-.4915.4834,0,.8945.1639,1.2324.4915.3389.3278.5078.7386.5078,1.2327,0,.4728-.1689.8756-.5078,1.2085-.3379.3331-.749.4995-1.2324.4995Zm1.2891,20.6895h-2.6426v-16.5h2.6426v16.5Z"/><path d="m1408.6479,444.0874c-2.4385,0-4.3857-.7706-5.8408-2.3123-1.4561-1.5414-2.1836-3.5852-2.1836-6.1311,0-2.7715.7578-4.9359,2.2715-6.4937,1.5156-1.5575,3.5615-2.3364,6.1396-2.3364,2.46,0,4.3799.7573,5.7607,2.272,1.3799,1.5146,2.0703,3.6149,2.0703,6.3003,0,2.632-.7441,4.7401-2.2314,6.3245-1.4883,1.5846-3.4834,2.3767-5.9863,2.3767Zm.1934-15.0498c-1.6973,0-3.04.5775-4.0283,1.7322-.9883,1.1549-1.4824,2.7473-1.4824,4.7776,0,1.9552.5,3.4966,1.498,4.6245,1,1.1279,2.3369,1.6919,4.0127,1.6919,1.708,0,3.0215-.5531,3.9395-1.6597.9189-1.1063,1.3779-2.6801,1.3779-4.7212,0-2.0625-.459-3.6522-1.3779-4.7695-.918-1.1171-2.2314-1.6758-3.9395-1.6758Z"/><path d="m1434.7837,443.7007h-2.6426v-9.4102c0-3.5018-1.2783-5.2529-3.835-5.2529-1.3213,0-2.4141.4969-3.2793,1.4905-.8643.9938-1.2969,2.2478-1.2969,3.7625v9.4102h-2.6426v-16.5h2.6426v2.7393h.0645c1.2461-2.0839,3.0508-3.126,5.4141-3.126,1.8047,0,3.1846.5829,4.1416,1.7483.9551,1.1656,1.4336,2.8495,1.4336,5.0515v10.0869Z"/><path d="m1451.5737,443.7007h-2.6426v-2.5781h-.0645c-1.1504,1.9767-2.8418,2.9648-5.0762,2.9648-1.6436,0-2.9297-.4351-3.8594-1.3052-.9287-.8701-1.3936-2.0248-1.3936-3.4644,0-3.0829,1.8154-4.8768,5.4463-5.3818l4.9473-.6929c0-2.8037-1.1338-4.2056-3.4004-4.2056-1.9873,0-3.7812.6768-5.3818,2.0303v-2.707c1.6221-1.0312,3.4912-1.5469,5.6074-1.5469,3.8779,0,5.8174,2.0519,5.8174,6.1553v10.7314Zm-2.6426-8.3467l-3.9805.5479c-1.2246.172-2.1484.4753-2.7715.9104s-.9346,1.2059-.9346,2.3123c0,.8057.2871,1.4637.8623,1.9739.5742.5104,1.3398.7654,2.2959.7654,1.3105,0,2.3926-.4592,3.2471-1.3777.8535-.9185,1.2812-2.0812,1.2812-3.4885v-1.6436Z"/><path d="m1459.1948,443.7007h-2.6426v-24.4277h2.6426v24.4277Z"/><path d="m1309.2124,464.8202c-.4727,0-.876-.1611-1.208-.4834-.334-.3223-.5-.7303-.5-1.2246s.166-.9049.5-1.2327c.332-.3275.7354-.4915,1.208-.4915.4834,0,.8945.1639,1.2324.4915.3389.3278.5078.7386.5078,1.2327,0,.4728-.1689.8756-.5078,1.2085-.3379.3331-.749.4995-1.2324.4995Zm1.2891,20.6895h-2.6426v-16.5h2.6426v16.5Z"/><path d="m1329.5473,485.5097h-2.6426v-9.4102c0-3.5018-1.2783-5.2529-3.835-5.2529-1.3213,0-2.4141.4969-3.2793,1.4905-.8643.9938-1.2969,2.2478-1.2969,3.7625v9.4102h-2.6426v-16.5h2.6426v2.7393h.0645c1.2461-2.0839,3.0508-3.126,5.4141-3.126,1.8047,0,3.1846.5829,4.1416,1.7483.9551,1.1656,1.4336,2.8495,1.4336,5.0515v10.0869Z"/><path d="m1342.1792,485.3486c-.623.3436-1.4443.5156-2.4648.5156-2.8896,0-4.334-1.6113-4.334-4.834v-9.7646h-2.8359v-2.2559h2.8359v-4.0283l2.6426-.854v4.8823h4.1562v2.2559h-4.1562v9.2974c0,1.1066.1875,1.8961.5635,2.3687.376.4728.999.709,1.8691.709.666,0,1.2412-.1825,1.7236-.5479v2.2559Z"/><path d="m1358.9692,477.9203h-11.6494c.043,1.8369.5371,3.2549,1.4824,4.2539s2.2451,1.4985,3.8994,1.4985c1.8584,0,3.5664-.6123,5.124-1.8369v2.4814c-1.4502,1.0529-3.3682,1.5791-5.7529,1.5791-2.3311,0-4.1621-.7493-5.4941-2.2478s-1.998-3.6066-1.998-6.3245c0-2.5673.7275-4.6593,2.1836-6.2761,1.4551-1.6166,3.2627-2.425,5.4219-2.425s3.8291.6984,5.0117,2.0947c1.1807,1.3966,1.7715,3.3354,1.7715,5.8169v1.3857Zm-2.707-2.2397c-.0107-1.5253-.3779-2.7123-1.1035-3.561-.7246-.8485-1.7324-1.2729-3.0215-1.2729-1.2461,0-2.3037.4459-3.1738,1.3374-.8701.8917-1.4072,2.0573-1.6113,3.4966h8.9102Z"/><path d="m1365.6079,485.5097h-2.6426v-24.4277h2.6426v24.4277Z"/><path d="m1373.6001,485.5097h-2.6426v-24.4277h2.6426v24.4277Z"/><path d="m1380.3032,464.8202c-.4727,0-.876-.1611-1.208-.4834-.334-.3223-.5-.7303-.5-1.2246s.166-.9049.5-1.2327c.332-.3275.7354-.4915,1.208-.4915.4834,0,.8945.1639,1.2324.4915.3389.3278.5078.7386.5078,1.2327,0,.4728-.1689.8756-.5078,1.2085-.3379.3331-.749.4995-1.2324.4995Zm1.2891,20.6895h-2.6426v-16.5h2.6426v16.5Z"/><path d="m1401.0249,484.1884c0,6.0586-2.9004,9.0879-8.7012,9.0879-2.041,0-3.8242-.3867-5.3496-1.1602v-2.6426c1.8584,1.0312,3.6309,1.5469,5.3174,1.5469,4.0605,0,6.0908-2.1592,6.0908-6.4775v-1.8047h-.0645c-1.2568,2.1056-3.1475,3.1582-5.6719,3.1582-2.0518,0-3.7031-.7332-4.9551-2.1995-1.251-1.4663-1.877-3.4347-1.877-5.9055,0-2.8037.6738-5.0326,2.0225-6.687,1.3477-1.6542,3.1924-2.4814,5.5342-2.4814,2.2246,0,3.873.8917,4.9473,2.6748h.0645v-2.2881h2.6426v15.1787Zm-2.6426-6.1392v-2.4331c0-1.3104-.4434-2.4331-1.3291-3.3677-.8867-.9346-1.9902-1.4019-3.3115-1.4019-1.6328,0-2.9111.5936-3.835,1.7805-.9238,1.1871-1.3857,2.8495-1.3857,4.9871,0,1.8369.4434,3.306,1.3291,4.407.8867,1.1012,2.0596,1.6516,3.5205,1.6516,1.4824,0,2.6885-.5262,3.6182-1.5791.9287-1.0526,1.3936-2.4009,1.3936-4.0444Z"/><path d="m1419.6352,477.9203h-11.6494c.043,1.8369.5371,3.2549,1.4824,4.2539s2.2451,1.4985,3.8994,1.4985c1.8584,0,3.5664-.6123,5.124-1.8369v2.4814c-1.4502,1.0529-3.3682,1.5791-5.7529,1.5791-2.3311,0-4.1621-.7493-5.4941-2.2478s-1.998-3.6066-1.998-6.3245c0-2.5673.7275-4.6593,2.1836-6.2761,1.4551-1.6166,3.2627-2.425,5.4219-2.425s3.8291.6984,5.0117,2.0947c1.1807,1.3966,1.7715,3.3354,1.7715,5.8169v1.3857Zm-2.707-2.2397c-.0107-1.5253-.3779-2.7123-1.1035-3.561-.7246-.8485-1.7324-1.2729-3.0215-1.2729-1.2461,0-2.3037.4459-3.1738,1.3374-.8701.8917-1.4072,2.0573-1.6113,3.4966h8.9102Z"/><path d="m1437.3276,485.5097h-2.6426v-9.4102c0-3.5018-1.2783-5.2529-3.835-5.2529-1.3213,0-2.4141.4969-3.2793,1.4905-.8643.9938-1.2969,2.2478-1.2969,3.7625v9.4102h-2.6426v-16.5h2.6426v2.7393h.0645c1.2461-2.0839,3.0508-3.126,5.4141-3.126,1.8047,0,3.1846.5829,4.1416,1.7483.9551,1.1656,1.4336,2.8495,1.4336,5.0515v10.0869Z"/><path d="m1453.5542,484.7524c-1.2676.7626-2.7715,1.144-4.5117,1.144-2.3525,0-4.251-.7654-5.6963-2.2961-1.4443-1.5308-2.167-3.5153-2.167-5.9539,0-2.7177.7783-4.901,2.3359-6.55,1.5576-1.6488,3.6367-2.4734,6.2363-2.4734,1.4502,0,2.7285.2687,3.835.8057v2.707c-1.2246-.8593-2.5352-1.2891-3.9316-1.2891-1.6865,0-3.0693.6042-4.1494,1.8127-1.0791,1.2085-1.6191,2.7957-1.6191,4.7615,0,1.9336.5078,3.4591,1.5225,4.5762,1.0156,1.1173,2.377,1.6758,4.085,1.6758,1.4395,0,2.793-.4779,4.0605-1.4341v2.5137Z"/><path d="m1470.811,477.9203h-11.6494c.043,1.8369.5371,3.2549,1.4824,4.2539s2.2451,1.4985,3.8994,1.4985c1.8584,0,3.5664-.6123,5.124-1.8369v2.4814c-1.4502,1.0529-3.3682,1.5791-5.7529,1.5791-2.3311,0-4.1621-.7493-5.4941-2.2478s-1.998-3.6066-1.998-6.3245c0-2.5673.7275-4.6593,2.1836-6.2761,1.4551-1.6166,3.2627-2.425,5.4219-2.425s3.8291.6984,5.0117,2.0947c1.1807,1.3966,1.7715,3.3354,1.7715,5.8169v1.3857Zm-2.707-2.2397c-.0107-1.5253-.3779-2.7123-1.1035-3.561-.7246-.8485-1.7324-1.2729-3.0215-1.2729-1.2461,0-2.3037.4459-3.1738,1.3374-.8701.8917-1.4072,2.0573-1.6113,3.4966h8.9102Z"/></g><g><path d="m1471.3061,745.9374h9.7969v4.2217h-15.3711v-1.7402c0-1.1815.1982-2.2423.5957-3.1824.3975-.9398.8965-1.7831,1.498-2.5298.6016-.7465,1.2598-1.4071,1.9746-1.9819.7139-.5746,1.3936-1.0929,2.0381-1.5549.6768-.4834,1.2705-.9452,1.7803-1.3857.5107-.4403.9404-.8782,1.2891-1.3132.3496-.4351.6094-.8754.7812-1.3213.1719-.4457.2578-.921.2578-1.426,0-.9882-.2793-1.7347-.8379-2.2397-.5586-.5048-1.4121-.7573-2.5615-.7573-1.9873,0-3.8887.7896-5.7041,2.3687v-4.4795c2.0088-1.2997,4.2754-1.9497,6.7998-1.9497,1.1709,0,2.2207.1531,3.1504.4592.9287.3062,1.7158.744,2.3604,1.3132.6445.5695,1.1357,1.2596,1.4746,2.0706.3379.8112.5078,1.7161.5078,2.7151,0,1.0635-.1641,2.0089-.4922,2.8359-.3271.8273-.7627,1.5791-1.3047,2.2559-.543.6768-1.168,1.2971-1.877,1.8611s-1.4453,1.1093-2.208,1.6355c-.5156.3654-1.0127.7279-1.4902,1.0876-.4785.36-.9004.7145-1.2646,1.0635-.3662.3492-.6562.6903-.8711,1.0232-.2148.3331-.3223.65-.3223.9507Z"/><path d="m1498.7153,727.0527v14.5664h2.7715v3.8027h-2.7715v4.7373h-4.6406v-4.7373h-10.0703v-3.98c.8906-.999,1.8145-2.0919,2.7715-3.2791.9551-1.1869,1.8789-2.4089,2.7715-3.6658.8906-1.2568,1.7207-2.5217,2.4893-3.7947.7676-1.2729,1.4199-2.4895,1.958-3.6497h4.7207Zm-10.1514,14.5664h5.5107v-8.0728c-.376.6984-.7842,1.4047-1.2246,2.1189-.4404.7145-.9023,1.418-1.3857,2.1108s-.9727,1.3644-1.4658,2.0142c-.4951.65-.9727,1.2596-1.4346,1.8289Z"/><path d="m1509.2856,738.767c-1.6436,0-2.9678-.5209-3.9717-1.563-1.0049-1.0419-1.5068-2.4437-1.5068-4.2056,0-1.9227.5342-3.4482,1.6035-4.5762,1.0684-1.1279,2.4941-1.6919,4.2783-1.6919,1.707,0,3.042.5104,4.0039,1.5308.9609,1.0206,1.4414,2.4547,1.4414,4.3022,0,1.9014-.5312,3.4108-1.5947,4.5278-1.0635,1.1173-2.4814,1.6758-4.2539,1.6758Zm16.8701-11.7144l-15.0488,23.1064h-3.9316l15.0176-23.1064h3.9629Zm-16.5645,2.5137c-1.5684,0-2.3516,1.0905-2.3516,3.271,0,2.0625.7461,3.0938,2.2393,3.0938,1.5254,0,2.2881-1.0741,2.2881-3.2227,0-2.0947-.7246-3.1421-2.1758-3.1421Zm14.084,20.915c-1.6445,0-2.9678-.5209-3.9727-1.563-1.0039-1.0419-1.5059-2.4437-1.5059-4.2056,0-1.9227.5342-3.4482,1.6025-4.5762,1.0693-1.1279,2.4951-1.6919,4.2783-1.6919,1.7188,0,3.0557.505,4.0117,1.5146.9561,1.0099,1.4346,2.4386,1.4346,4.2861,0,1.9014-.5322,3.416-1.5947,4.5439-1.0645,1.1279-2.4824,1.6919-4.2539,1.6919Zm.2578-9.2007c-1.5586,0-2.3369,1.0905-2.3369,3.271,0,2.0625.7568,3.0938,2.2725,3.0938,1.5244,0,2.2871-1.0741,2.2871-3.2227,0-.999-.2041-1.7725-.6113-2.3203-.4092-.5479-.9463-.8218-1.6113-.8218Z"/><path d="m1457.3442,791.0013c-1.708.9023-3.835,1.3535-6.3809,1.3535-3.2871,0-5.9189-1.058-7.8955-3.1743-1.9766-2.1161-2.9648-4.8929-2.9648-8.3306,0-3.6952,1.1123-6.6815,3.335-8.959,2.2246-2.2772,5.0439-3.416,8.46-3.416,2.1914,0,4.0068.317,5.4463.9507v2.8843c-1.6543-.9237-3.4805-1.3857-5.4785-1.3857-2.6533,0-4.8047.8862-6.4531,2.6587-1.6494,1.7725-2.4736,4.1411-2.4736,7.106,0,2.8146.7705,5.057,2.3125,6.7273,1.541,1.6705,3.5635,2.5056,6.0664,2.5056,2.3203,0,4.3291-.5156,6.0264-1.5469v2.6265Z"/><path d="m1470.2993,778.1429c-.4619-.3545-1.1279-.5317-1.998-.5317-1.1279,0-2.0703.5317-2.8281,1.5952-.7568,1.0635-1.1357,2.5137-1.1357,4.3506v8.4111h-2.6426v-16.5h2.6426v3.3999h.0645c.376-1.1602.9502-2.0651,1.7236-2.7151.7734-.6498,1.6387-.9749,2.5947-.9749.6875,0,1.2139.0753,1.5791.2256v2.7393Z"/><path d="m1486.4282,784.3787h-11.6494c.043,1.8369.5371,3.2549,1.4824,4.2539s2.2451,1.4985,3.8994,1.4985c1.8584,0,3.5664-.6123,5.124-1.8369v2.4814c-1.4502,1.0529-3.3682,1.5791-5.7529,1.5791-2.3311,0-4.1621-.7493-5.4941-2.2478s-1.998-3.6066-1.998-6.3245c0-2.5673.7275-4.6593,2.1836-6.2761,1.4551-1.6166,3.2627-2.425,5.4219-2.425s3.8291.6984,5.0117,2.0947c1.1807,1.3966,1.7715,3.3354,1.7715,5.8169v1.3857Zm-2.707-2.2397c-.0107-1.5253-.3779-2.7123-1.1035-3.561-.7246-.8485-1.7324-1.2729-3.0215-1.2729-1.2461,0-2.3037.4459-3.1738,1.3374-.8701.8917-1.4072,2.0573-1.6113,3.4966h8.9102Z"/><path d="m1502.2358,791.9681h-2.6426v-2.5781h-.0645c-1.1504,1.9767-2.8418,2.9648-5.0762,2.9648-1.6436,0-2.9297-.4351-3.8594-1.3052-.9287-.8701-1.3936-2.0248-1.3936-3.4644,0-3.0829,1.8154-4.8768,5.4463-5.3818l4.9473-.6929c0-2.8037-1.1338-4.2056-3.4004-4.2056-1.9873,0-3.7812.6768-5.3818,2.0303v-2.707c1.6221-1.0312,3.4912-1.5469,5.6074-1.5469,3.8779,0,5.8174,2.0519,5.8174,6.1553v10.7314Zm-2.6426-8.3467l-3.9805.5479c-1.2246.172-2.1484.4753-2.7715.9104s-.9346,1.2059-.9346,2.3123c0,.8057.2871,1.4637.8623,1.9739.5742.5104,1.3398.7654,2.2959.7654,1.3105,0,2.3926-.4592,3.2471-1.3777.8535-.9185,1.2812-2.0812,1.2812-3.4885v-1.6436Z"/><path d="m1514.8677,791.8069c-.623.3436-1.4443.5156-2.4648.5156-2.8896,0-4.334-1.6113-4.334-4.834v-9.7646h-2.8359v-2.2559h2.8359v-4.0283l2.6426-.854v4.8823h4.1562v2.2559h-4.1562v9.2974c0,1.1066.1875,1.8961.5635,2.3687.376.4728.999.709,1.8691.709.666,0,1.2412-.1825,1.7236-.5479v2.2559Z"/><path d="m1519.7505,771.2786c-.4727,0-.876-.1611-1.208-.4834-.334-.3223-.5-.7303-.5-1.2246s.166-.9049.5-1.2327c.332-.3275.7354-.4915,1.208-.4915.4834,0,.8945.1639,1.2324.4915.3389.3278.5078.7386.5078,1.2327,0,.4728-.1689.8756-.5078,1.2085-.3379.3331-.749.4995-1.2324.4995Zm1.2891,20.6895h-2.6426v-16.5h2.6426v16.5Z"/><path d="m1539.3608,775.4681l-6.5742,16.5h-2.5947l-6.252-16.5h2.9004l4.1895,11.9883c.3115.881.5049,1.649.5801,2.3042h.0645c.1074-.827.2793-1.5736.5156-2.2397l4.3828-12.0527h2.7881Z"/><path d="m1555.4565,784.3787h-11.6494c.043,1.8369.5371,3.2549,1.4824,4.2539s2.2451,1.4985,3.8994,1.4985c1.8584,0,3.5664-.6123,5.124-1.8369v2.4814c-1.4502,1.0529-3.3682,1.5791-5.7529,1.5791-2.3311,0-4.1621-.7493-5.4941-2.2478s-1.998-3.6066-1.998-6.3245c0-2.5673.7275-4.6593,2.1836-6.2761,1.4551-1.6166,3.2627-2.425,5.4219-2.425s3.8291.6984,5.0117,2.0947c1.1807,1.3966,1.7715,3.3354,1.7715,5.8169v1.3857Zm-2.707-2.2397c-.0107-1.5253-.3779-2.7123-1.1035-3.561-.7246-.8485-1.7324-1.2729-3.0215-1.2729-1.2461,0-2.3037.4459-3.1738,1.3374-.8701.8917-1.4072,2.0573-1.6113,3.4966h8.9102Z"/><path d="m1438.3706,826.1875h-11.6494c.043,1.8369.5371,3.2549,1.4824,4.2539s2.2451,1.4985,3.8994,1.4985c1.8584,0,3.5664-.6123,5.124-1.8369v2.4814c-1.4502,1.0529-3.3682,1.5791-5.7529,1.5791-2.3311,0-4.1621-.7493-5.4941-2.2478s-1.998-3.6066-1.998-6.3245c0-2.5673.7275-4.6593,2.1836-6.2761,1.4551-1.6166,3.2627-2.425,5.4219-2.425s3.8291.6984,5.0117,2.0947c1.1807,1.3966,1.7715,3.3354,1.7715,5.8169v1.3857Zm-2.707-2.2397c-.0107-1.5253-.3779-2.7123-1.1035-3.561-.7246-.8485-1.7324-1.2729-3.0215-1.2729-1.2461,0-2.3037.4459-3.1738,1.3374-.8701.8917-1.4072,2.0573-1.6113,3.4966h8.9102Z"/><path d="m1455.3393,817.2769l-6.5742,16.5h-2.5947l-6.252-16.5h2.9004l4.1895,11.9883c.3115.881.5049,1.649.5801,2.3042h.0645c.1074-.827.2793-1.5736.5156-2.2397l4.3828-12.0527h2.7881Z"/><path d="m1469.9858,833.7769h-2.6426v-2.5781h-.0645c-1.1504,1.9767-2.8418,2.9648-5.0762,2.9648-1.6436,0-2.9297-.4351-3.8594-1.3052-.9287-.8701-1.3936-2.0248-1.3936-3.4644,0-3.0829,1.8154-4.8768,5.4463-5.3818l4.9473-.6929c0-2.8037-1.1338-4.2056-3.4004-4.2056-1.9873,0-3.7812.6768-5.3818,2.0303v-2.707c1.6221-1.0312,3.4912-1.5469,5.6074-1.5469,3.8779,0,5.8174,2.0519,5.8174,6.1553v10.7314Zm-2.6426-8.3467l-3.9805.5479c-1.2246.172-2.1484.4753-2.7715.9104s-.9346,1.2059-.9346,2.3123c0,.8057.2871,1.4637.8623,1.9739.5742.5104,1.3398.7654,2.2959.7654,1.3105,0,2.3926-.4592,3.2471-1.3777.8535-.9185,1.2812-2.0812,1.2812-3.4885v-1.6436Z"/><path d="m1477.6069,833.7769h-2.6426v-24.4277h2.6426v24.4277Z"/><path d="m1496.2983,833.7769h-2.6426v-2.6104h-.0645c-1.0957,1.998-2.793,2.9971-5.0918,2.9971-3.9316,0-5.8975-2.3417-5.8975-7.0254v-9.8613h2.627v9.4424c0,3.4805,1.3311,5.2207,3.9961,5.2207,1.2891,0,2.3496-.4753,3.1816-1.426.833-.9507,1.249-2.194,1.249-3.7302v-9.5068h2.6426v16.5Z"/><path d="m1513.4428,833.7769h-2.6426v-2.5781h-.0645c-1.1504,1.9767-2.8418,2.9648-5.0762,2.9648-1.6436,0-2.9297-.4351-3.8594-1.3052-.9287-.8701-1.3936-2.0248-1.3936-3.4644,0-3.0829,1.8154-4.8768,5.4463-5.3818l4.9473-.6929c0-2.8037-1.1338-4.2056-3.4004-4.2056-1.9873,0-3.7812.6768-5.3818,2.0303v-2.707c1.6221-1.0312,3.4912-1.5469,5.6074-1.5469,3.8779,0,5.8174,2.0519,5.8174,6.1553v10.7314Zm-2.6426-8.3467l-3.9805.5479c-1.2246.172-2.1484.4753-2.7715.9104s-.9346,1.2059-.9346,2.3123c0,.8057.2871,1.4637.8623,1.9739.5742.5104,1.3398.7654,2.2959.7654,1.3105,0,2.3926-.4592,3.2471-1.3777.8535-.9185,1.2812-2.0812,1.2812-3.4885v-1.6436Z"/><path d="m1526.0747,833.6158c-.623.3436-1.4443.5156-2.4648.5156-2.8896,0-4.334-1.6113-4.334-4.834v-9.7646h-2.8359v-2.2559h2.8359v-4.0283l2.6426-.854v4.8823h4.1562v2.2559h-4.1562v9.2974c0,1.1066.1875,1.8961.5635,2.3687.376.4728.999.709,1.8691.709.666,0,1.2412-.1825,1.7236-.5479v2.2559Z"/><path d="m1530.9575,813.0874c-.4727,0-.876-.1611-1.208-.4834-.334-.3223-.5-.7303-.5-1.2246s.166-.9049.5-1.2327c.332-.3275.7354-.4915,1.208-.4915.4834,0,.8945.1639,1.2324.4915.3389.3278.5078.7386.5078,1.2327,0,.4728-.1689.8756-.5078,1.2085-.3379.3331-.749.4995-1.2324.4995Zm1.2891,20.6895h-2.6426v-16.5h2.6426v16.5Z"/><path d="m1544.4927,834.1636c-2.4385,0-4.3857-.7706-5.8408-2.3123-1.4561-1.5414-2.1836-3.5852-2.1836-6.1311,0-2.7715.7578-4.9359,2.2715-6.4937,1.5156-1.5575,3.5615-2.3364,6.1396-2.3364,2.46,0,4.3799.7573,5.7607,2.272,1.3799,1.5146,2.0703,3.6149,2.0703,6.3003,0,2.632-.7441,4.7401-2.2314,6.3245-1.4883,1.5846-3.4834,2.3767-5.9863,2.3767Zm.1934-15.0498c-1.6973,0-3.04.5775-4.0283,1.7322-.9883,1.1549-1.4824,2.7473-1.4824,4.7776,0,1.9552.5,3.4966,1.498,4.6245,1,1.1279,2.3369,1.6919,4.0127,1.6919,1.708,0,3.0215-.5531,3.9395-1.6597.9189-1.1063,1.3779-2.6801,1.3779-4.7212,0-2.0625-.459-3.6522-1.3779-4.7695-.918-1.1171-2.2314-1.6758-3.9395-1.6758Z"/><path d="m1570.6284,833.7769h-2.6426v-9.4102c0-3.5018-1.2783-5.2529-3.835-5.2529-1.3213,0-2.4141.4969-3.2793,1.4905-.8643.9938-1.2969,2.2478-1.2969,3.7625v9.4102h-2.6426v-16.5h2.6426v2.7393h.0645c1.2461-2.0839,3.0508-3.126,5.4141-3.126,1.8047,0,3.1846.5829,4.1416,1.7483.9551,1.1656,1.4336,2.8495,1.4336,5.0515v10.0869Z"/></g><g><path d="m1499.4682,1028.3327h9.7969v4.2217h-15.3711v-1.7402c0-1.1815.1982-2.2423.5957-3.1824.3975-.9398.8965-1.7831,1.498-2.5298.6016-.7465,1.2598-1.4071,1.9746-1.9819.7139-.5746,1.3936-1.0929,2.0381-1.5549.6768-.4834,1.2705-.9452,1.7803-1.3857.5107-.4403.9404-.8782,1.2891-1.3132.3496-.4351.6094-.8754.7812-1.3213.1719-.4457.2578-.921.2578-1.426,0-.9882-.2793-1.7347-.8379-2.2397-.5586-.5048-1.4121-.7573-2.5615-.7573-1.9873,0-3.8887.7896-5.7041,2.3687v-4.4795c2.0088-1.2997,4.2754-1.9497,6.7998-1.9497,1.1709,0,2.2207.1531,3.1504.4592.9287.3062,1.7158.744,2.3604,1.3132.6445.5695,1.1357,1.2596,1.4746,2.0706.3379.8112.5078,1.7161.5078,2.7151,0,1.0635-.1641,2.0089-.4922,2.8359-.3271.8273-.7627,1.5791-1.3047,2.2559-.543.6768-1.168,1.2971-1.877,1.8611s-1.4453,1.1093-2.208,1.6355c-.5156.3654-1.0127.7279-1.4902,1.0876-.4785.36-.9004.7145-1.2646,1.0635-.3662.3492-.6562.6903-.8711,1.0232-.2148.3331-.3223.65-.3223.9507Z"/><path d="m1518.4497,1028.3327h9.7969v4.2217h-15.3711v-1.7402c0-1.1815.1982-2.2423.5957-3.1824.3975-.9398.8965-1.7831,1.498-2.5298.6016-.7465,1.2598-1.4071,1.9746-1.9819.7139-.5746,1.3936-1.0929,2.0381-1.5549.6768-.4834,1.2705-.9452,1.7803-1.3857.5107-.4403.9404-.8782,1.2891-1.3132.3496-.4351.6094-.8754.7812-1.3213.1719-.4457.2578-.921.2578-1.426,0-.9882-.2793-1.7347-.8379-2.2397-.5586-.5048-1.4121-.7573-2.5615-.7573-1.9873,0-3.8887.7896-5.7041,2.3687v-4.4795c2.0088-1.2997,4.2754-1.9497,6.7998-1.9497,1.1709,0,2.2207.1531,3.1504.4592.9287.3062,1.7158.744,2.3604,1.3132.6445.5695,1.1357,1.2596,1.4746,2.0706.3379.8112.5078,1.7161.5078,2.7151,0,1.0635-.1641,2.0089-.4922,2.8359-.3271.8273-.7627,1.5791-1.3047,2.2559-.543.6768-1.168,1.2971-1.877,1.8611s-1.4453,1.1093-2.208,1.6355c-.5156.3654-1.0127.7279-1.4902,1.0876-.4785.36-.9004.7145-1.2646,1.0635-.3662.3492-.6562.6903-.8711,1.0232-.2148.3331-.3223.65-.3223.9507Z"/><path d="m1537.4477,1021.1623c-1.6436,0-2.9678-.5209-3.9717-1.563-1.0049-1.0419-1.5068-2.4437-1.5068-4.2056,0-1.9227.5342-3.4482,1.6035-4.5762,1.0684-1.1279,2.4941-1.6919,4.2783-1.6919,1.707,0,3.042.5104,4.0039,1.5308.9609,1.0206,1.4414,2.4547,1.4414,4.3022,0,1.9014-.5312,3.4108-1.5947,4.5278-1.0635,1.1173-2.4814,1.6758-4.2539,1.6758Zm16.8701-11.7144l-15.0488,23.1064h-3.9316l15.0176-23.1064h3.9629Zm-16.5645,2.5137c-1.5684,0-2.3516,1.0905-2.3516,3.271,0,2.0625.7461,3.0938,2.2393,3.0938,1.5254,0,2.2881-1.0741,2.2881-3.2227,0-2.0947-.7246-3.1421-2.1758-3.1421Zm14.084,20.915c-1.6445,0-2.9678-.5209-3.9727-1.563-1.0039-1.0419-1.5059-2.4437-1.5059-4.2056,0-1.9227.5342-3.4482,1.6025-4.5762,1.0693-1.1279,2.4951-1.6919,4.2783-1.6919,1.7188,0,3.0557.505,4.0117,1.5146.9561,1.0099,1.4346,2.4386,1.4346,4.2861,0,1.9014-.5322,3.416-1.5947,4.5439-1.0645,1.1279-2.4824,1.6919-4.2539,1.6919Zm.2578-9.2007c-1.5586,0-2.3369,1.0905-2.3369,3.271,0,2.0625.7568,3.0938,2.2725,3.0938,1.5244,0,2.2871-1.0741,2.2871-3.2227,0-.999-.2041-1.7725-.6113-2.3203-.4092-.5479-.9463-.8218-1.6113-.8218Z"/><path d="m1426.7251,1074.3633v-23.1064h6.5742c1.998,0,3.582.4889,4.7539,1.4663,1.1699.9777,1.7559,2.2506,1.7559,3.8188,0,1.3107-.3545,2.4492-1.0635,3.416s-1.6865,1.6544-2.9326,2.0625v.0645c1.5576.1827,2.8037.7709,3.7383,1.7644.9346.9938,1.4023,2.2855,1.4023,3.8752,0,1.9767-.709,3.5771-2.127,4.8018s-3.207,1.8369-5.3662,1.8369h-6.7354Zm2.707-20.6572v7.4604h2.7715c1.4824,0,2.6475-.3571,3.4961-1.0715.8486-.7142,1.2734-1.7213,1.2734-3.0212,0-2.245-1.4775-3.3677-4.4316-3.3677h-3.1094Zm0,9.8936v8.3145h3.6738c1.5898,0,2.8223-.3759,3.6982-1.1279.875-.7518,1.3135-1.7831,1.3135-3.0938,0-2.7284-1.8594-4.0928-5.5762-4.0928h-3.1094Z"/><path d="m1446.6411,1053.6739c-.4727,0-.876-.1611-1.208-.4834-.334-.3223-.5-.7303-.5-1.2246s.166-.9049.5-1.2327c.332-.3275.7354-.4915,1.208-.4915.4834,0,.8945.1639,1.2324.4915.3389.3278.5078.7386.5078,1.2327,0,.4728-.1689.8756-.5078,1.2085-.3379.3331-.749.4995-1.2324.4995Zm1.2891,20.6895h-2.6426v-16.5h2.6426v16.5Z"/><path d="m1465.0913,1074.3633h-2.6426v-2.5781h-.0645c-1.1504,1.9767-2.8418,2.9648-5.0762,2.9648-1.6436,0-2.9297-.4351-3.8594-1.3052-.9287-.8701-1.3936-2.0248-1.3936-3.4644,0-3.0829,1.8154-4.8768,5.4463-5.3818l4.9473-.6929c0-2.8037-1.1338-4.2056-3.4004-4.2056-1.9873,0-3.7812.6768-5.3818,2.0303v-2.707c1.6221-1.0312,3.4912-1.5469,5.6074-1.5469,3.8779,0,5.8174,2.0519,5.8174,6.1553v10.7314Zm-2.6426-8.3467l-3.9805.5479c-1.2246.172-2.1484.4753-2.7715.9104s-.9346,1.2059-.9346,2.3123c0,.8057.2871,1.4637.8623,1.9739.5742.5104,1.3398.7654,2.2959.7654,1.3105,0,2.3926-.4592,3.2471-1.3777.8535-.9185,1.2812-2.0812,1.2812-3.4885v-1.6436Z"/><path d="m1469.0708,1073.7671v-2.8359c1.4395,1.0635,3.0234,1.5952,4.7539,1.5952,2.3203,0,3.4805-.7734,3.4805-2.3203,0-.4403-.0996-.8137-.2988-1.1199-.1982-.3062-.4668-.5773-.8057-.8137-.3379-.2362-.7354-.4484-1.1924-.6365-.4561-.1879-.9482-.3839-1.4746-.5881-.7305-.29-1.3721-.5826-1.9248-.8782-.5537-.2953-1.0156-.6284-1.3857-.999-.3711-.3706-.6504-.7921-.8379-1.2649-.1885-.4725-.2822-1.0258-.2822-1.6597,0-.7734.1768-1.4583.5322-2.0544.3535-.5962.8262-1.0957,1.418-1.4985.5898-.4028,1.2646-.7062,2.0215-.9104.7578-.204,1.5391-.3062,2.3447-.3062,1.4287,0,2.707.2472,3.835.7412v2.6748c-1.2139-.7948-2.6104-1.1924-4.1895-1.1924-.4941,0-.9404.0564-1.3379.1692s-.7383.2714-1.0225.4753c-.2852.2042-.5049.4486-.6611.7332-.1553.2848-.2334.599-.2334.9426,0,.4298.0781.7896.2334,1.0796.1562.29.3838.5479.6855.7734.2998.2256.665.4298,1.0957.6123.4287.1827.918.3815,1.4658.5962.7305.2794,1.3857.5668,1.9658.8621.5801.2955,1.0742.6284,1.4824.999s.7227.7976.9424,1.281c.2207.4834.3311,1.0582.3311,1.7241,0,.8165-.1807,1.5255-.54,2.127-.3604.6017-.8408,1.1012-1.4424,1.4985-.6016.3976-1.2949.6929-2.0781.8862-.7852.1934-1.6064.29-2.4658.29-1.6973,0-3.1689-.3278-4.415-.9829Z"/><path d="m1507.1948,1074.3633h-2.6426v-2.8037h-.0645c-1.2246,2.127-3.1152,3.1904-5.6719,3.1904-2.0732,0-3.7305-.7384-4.9707-2.2156-1.2412-1.4769-1.8613-3.4885-1.8613-6.0344,0-2.7284.6875-4.9146,2.0625-6.5581s3.207-2.4653,5.4941-2.4653c2.2666,0,3.916.8917,4.9473,2.6748h.0645v-10.2158h2.6426v24.4277Zm-2.6426-7.4604v-2.4331c0-1.3319-.4404-2.4598-1.3213-3.3838-.8809-.9237-1.998-1.3857-3.3516-1.3857-1.6113,0-2.8789.5909-3.8027,1.7725-.9238,1.1818-1.3857,2.8146-1.3857,4.8984,0,1.9014.4434,3.4027,1.3291,4.5037.8867,1.1012,2.0762,1.6516,3.5693,1.6516,1.4717,0,2.667-.5317,3.585-1.5952.9189-1.0635,1.3779-2.4061,1.3779-4.0283Z"/><path d="m1525.8052,1066.774h-11.6494c.043,1.8369.5371,3.2549,1.4824,4.2539s2.2451,1.4985,3.8994,1.4985c1.8584,0,3.5664-.6123,5.124-1.8369v2.4814c-1.4502,1.0529-3.3682,1.5791-5.7529,1.5791-2.3311,0-4.1621-.7493-5.4941-2.2478s-1.998-3.6066-1.998-6.3245c0-2.5673.7275-4.6593,2.1836-6.2761,1.4551-1.6166,3.2627-2.425,5.4219-2.425s3.8291.6984,5.0117,2.0947c1.1807,1.3966,1.7715,3.3354,1.7715,5.8169v1.3857Zm-2.707-2.2397c-.0107-1.5253-.3779-2.7123-1.1035-3.561-.7246-.8485-1.7324-1.2729-3.0215-1.2729-1.2461,0-2.3037.4459-3.1738,1.3374-.8701.8917-1.4072,2.0573-1.6113,3.4966h8.9102Z"/><path d="m1537.4546,1074.2022c-.623.3436-1.4443.5156-2.4648.5156-2.8896,0-4.334-1.6113-4.334-4.834v-9.7646h-2.8359v-2.2559h2.8359v-4.0283l2.6426-.854v4.8823h4.1562v2.2559h-4.1562v9.2974c0,1.1066.1875,1.8961.5635,2.3687.376.4728.999.709,1.8691.709.666,0,1.2412-.1825,1.7236-.5479v2.2559Z"/><path d="m1554.2446,1066.774h-11.6494c.043,1.8369.5371,3.2549,1.4824,4.2539s2.2451,1.4985,3.8994,1.4985c1.8584,0,3.5664-.6123,5.124-1.8369v2.4814c-1.4502,1.0529-3.3682,1.5791-5.7529,1.5791-2.3311,0-4.1621-.7493-5.4941-2.2478s-1.998-3.6066-1.998-6.3245c0-2.5673.7275-4.6593,2.1836-6.2761,1.4551-1.6166,3.2627-2.425,5.4219-2.425s3.8291.6984,5.0117,2.0947c1.1807,1.3966,1.7715,3.3354,1.7715,5.8169v1.3857Zm-2.707-2.2397c-.0107-1.5253-.3779-2.7123-1.1035-3.561-.7246-.8485-1.7324-1.2729-3.0215-1.2729-1.2461,0-2.3037.4459-3.1738,1.3374-.8701.8917-1.4072,2.0573-1.6113,3.4966h8.9102Z"/><path d="m1569.4878,1073.606c-1.2676.7626-2.7715,1.144-4.5117,1.144-2.3525,0-4.251-.7654-5.6963-2.2961-1.4443-1.5308-2.167-3.5153-2.167-5.9539,0-2.7177.7783-4.901,2.3359-6.55,1.5576-1.6488,3.6367-2.4734,6.2363-2.4734,1.4502,0,2.7285.2687,3.835.8057v2.707c-1.2246-.8593-2.5352-1.2891-3.9316-1.2891-1.6865,0-3.0693.6042-4.1494,1.8127-1.0791,1.2085-1.6191,2.7957-1.6191,4.7615,0,1.9336.5078,3.4591,1.5225,4.5762,1.0156,1.1173,2.377,1.6758,4.085,1.6758,1.4395,0,2.793-.4779,4.0605-1.4341v2.5137Z"/><path d="m1581.1372,1074.2022c-.623.3436-1.4443.5156-2.4648.5156-2.8896,0-4.334-1.6113-4.334-4.834v-9.7646h-2.8359v-2.2559h2.8359v-4.0283l2.6426-.854v4.8823h4.1562v2.2559h-4.1562v9.2974c0,1.1066.1875,1.8961.5635,2.3687.376.4728.999.709,1.8691.709.666,0,1.2412-.1825,1.7236-.5479v2.2559Z"/><path d="m1586.02,1053.6739c-.4727,0-.876-.1611-1.208-.4834-.334-.3223-.5-.7303-.5-1.2246s.166-.9049.5-1.2327c.332-.3275.7354-.4915,1.208-.4915.4834,0,.8945.1639,1.2324.4915.3389.3278.5078.7386.5078,1.2327,0,.4728-.1689.8756-.5078,1.2085-.3379.3331-.749.4995-1.2324.4995Zm1.2891,20.6895h-2.6426v-16.5h2.6426v16.5Z"/><path d="m1599.5552,1074.75c-2.4385,0-4.3857-.7706-5.8408-2.3123-1.4561-1.5414-2.1836-3.5852-2.1836-6.1311,0-2.7715.7578-4.9359,2.2715-6.4937,1.5156-1.5575,3.5615-2.3364,6.1396-2.3364,2.46,0,4.3799.7573,5.7607,2.272,1.3799,1.5146,2.0703,3.6149,2.0703,6.3003,0,2.632-.7441,4.7401-2.2314,6.3245-1.4883,1.5846-3.4834,2.3767-5.9863,2.3767Zm.1934-15.0498c-1.6973,0-3.04.5775-4.0283,1.7322-.9883,1.1549-1.4824,2.7473-1.4824,4.7776,0,1.9552.5,3.4966,1.498,4.6245,1,1.1279,2.3369,1.6919,4.0127,1.6919,1.708,0,3.0215-.5531,3.9395-1.6597.9189-1.1063,1.3779-2.6801,1.3779-4.7212,0-2.0625-.459-3.6522-1.3779-4.7695-.918-1.1171-2.2314-1.6758-3.9395-1.6758Z"/><path d="m1625.6909,1074.3633h-2.6426v-9.4102c0-3.5018-1.2783-5.2529-3.835-5.2529-1.3213,0-2.4141.4969-3.2793,1.4905-.8643.9938-1.2969,2.2478-1.2969,3.7625v9.4102h-2.6426v-16.5h2.6426v2.7393h.0645c1.2461-2.0839,3.0508-3.126,5.4141-3.126,1.8047,0,3.1846.5829,4.1416,1.7483.9551,1.1656,1.4336,2.8495,1.4336,5.0515v10.0869Z"/><path d="m1444.5307,1116.1722h-2.6426v-2.5781h-.0645c-1.1504,1.9767-2.8418,2.9648-5.0762,2.9648-1.6436,0-2.9297-.4351-3.8594-1.3052-.9287-.8701-1.3936-2.0248-1.3936-3.4644,0-3.0829,1.8154-4.8768,5.4463-5.3818l4.9473-.6929c0-2.8037-1.1338-4.2056-3.4004-4.2056-1.9873,0-3.7812.6768-5.3818,2.0303v-2.707c1.6221-1.0312,3.4912-1.5469,5.6074-1.5469,3.8779,0,5.8174,2.0519,5.8174,6.1553v10.7314Zm-2.6426-8.3467l-3.9805.5479c-1.2246.172-2.1484.4753-2.7715.9104s-.9346,1.2059-.9346,2.3123c0,.8057.2871,1.4637.8623,1.9739.5742.5104,1.3398.7654,2.2959.7654,1.3105,0,2.3926-.4592,3.2471-1.3777.8535-.9185,1.2812-2.0812,1.2812-3.4885v-1.6436Z"/><path d="m1463.2055,1116.1722h-2.6426v-9.4102c0-3.5018-1.2783-5.2529-3.835-5.2529-1.3213,0-2.4141.4969-3.2793,1.4905-.8643.9938-1.2969,2.2478-1.2969,3.7625v9.4102h-2.6426v-16.5h2.6426v2.7393h.0645c1.2461-2.0839,3.0508-3.126,5.4141-3.126,1.8047,0,3.1846.5829,4.1416,1.7483.9551,1.1656,1.4336,2.8495,1.4336,5.0515v10.0869Z"/><path d="m1482.2671,1116.1722h-2.6426v-2.8037h-.0645c-1.2246,2.127-3.1152,3.1904-5.6719,3.1904-2.0732,0-3.7305-.7384-4.9707-2.2156-1.2412-1.4769-1.8613-3.4885-1.8613-6.0344,0-2.7284.6875-4.9146,2.0625-6.5581s3.207-2.4653,5.4941-2.4653c2.2666,0,3.916.8917,4.9473,2.6748h.0645v-10.2158h2.6426v24.4277Zm-2.6426-7.4604v-2.4331c0-1.3319-.4404-2.4598-1.3213-3.3838-.8809-.9237-1.998-1.3857-3.3516-1.3857-1.6113,0-2.8789.5909-3.8027,1.7725-.9238,1.1818-1.3857,2.8146-1.3857,4.8984,0,1.9014.4434,3.4027,1.3291,4.5037.8867,1.1012,2.0762,1.6516,3.5693,1.6516,1.4717,0,2.667-.5317,3.585-1.5952.9189-1.0635,1.3779-2.4061,1.3779-4.0283Z"/><path d="m1510.353,1116.1722h-2.6426v-9.5068c0-3.4374-1.2783-5.1562-3.835-5.1562-1.2891,0-2.374.4969-3.2549,1.4905-.8809.9938-1.3213,2.2694-1.3213,3.8269v9.3457h-2.6426v-24.4277h2.6426v10.667h.0645c1.2676-2.0839,3.0723-3.126,5.4141-3.126,3.7168,0,5.5752,2.2397,5.5752,6.7192v10.1675Z"/><path d="m1527.144,1116.1722h-2.6426v-2.5781h-.0645c-1.1504,1.9767-2.8418,2.9648-5.0762,2.9648-1.6436,0-2.9297-.4351-3.8594-1.3052-.9287-.8701-1.3936-2.0248-1.3936-3.4644,0-3.0829,1.8154-4.8768,5.4463-5.3818l4.9473-.6929c0-2.8037-1.1338-4.2056-3.4004-4.2056-1.9873,0-3.7812.6768-5.3818,2.0303v-2.707c1.6221-1.0312,3.4912-1.5469,5.6074-1.5469,3.8779,0,5.8174,2.0519,5.8174,6.1553v10.7314Zm-2.6426-8.3467l-3.9805.5479c-1.2246.172-2.1484.4753-2.7715.9104s-.9346,1.2059-.9346,2.3123c0,.8057.2871,1.4637.8623,1.9739.5742.5104,1.3398.7654,2.2959.7654,1.3105,0,2.3926-.4592,3.2471-1.3777.8535-.9185,1.2812-2.0812,1.2812-3.4885v-1.6436Z"/><path d="m1545.8188,1116.1722h-2.6426v-9.4102c0-3.5018-1.2783-5.2529-3.835-5.2529-1.3213,0-2.4141.4969-3.2793,1.4905-.8643.9938-1.2969,2.2478-1.2969,3.7625v9.4102h-2.6426v-16.5h2.6426v2.7393h.0645c1.2461-2.0839,3.0508-3.126,5.4141-3.126,1.8047,0,3.1846.5829,4.1416,1.7483.9551,1.1656,1.4336,2.8495,1.4336,5.0515v10.0869Z"/><path d="m1564.8803,1116.1722h-2.6426v-2.8037h-.0645c-1.2246,2.127-3.1152,3.1904-5.6719,3.1904-2.0732,0-3.7305-.7384-4.9707-2.2156-1.2412-1.4769-1.8613-3.4885-1.8613-6.0344,0-2.7284.6875-4.9146,2.0625-6.5581s3.207-2.4653,5.4941-2.4653c2.2666,0,3.916.8917,4.9473,2.6748h.0645v-10.2158h2.6426v24.4277Zm-2.6426-7.4604v-2.4331c0-1.3319-.4404-2.4598-1.3213-3.3838-.8809-.9237-1.998-1.3857-3.3516-1.3857-1.6113,0-2.8789.5909-3.8027,1.7725-.9238,1.1818-1.3857,2.8146-1.3857,4.8984,0,1.9014.4434,3.4027,1.3291,4.5037.8867,1.1012,2.0762,1.6516,3.5693,1.6516,1.4717,0,2.667-.5317,3.585-1.5952.9189-1.0635,1.3779-2.4061,1.3779-4.0283Z"/><path d="m1572.8725,1116.1722h-2.6426v-24.4277h2.6426v24.4277Z"/><path d="m1579.5757,1095.4827c-.4727,0-.876-.1611-1.208-.4834-.334-.3223-.5-.7303-.5-1.2246s.166-.9049.5-1.2327c.332-.3275.7354-.4915,1.208-.4915.4834,0,.8945.1639,1.2324.4915.3389.3278.5078.7386.5078,1.2327,0,.4728-.1689.8756-.5078,1.2085-.3379.3331-.749.4995-1.2324.4995Zm1.2891,20.6895h-2.6426v-16.5h2.6426v16.5Z"/><path d="m1599.9106,1116.1722h-2.6426v-9.4102c0-3.5018-1.2783-5.2529-3.835-5.2529-1.3213,0-2.4141.4969-3.2793,1.4905-.8643.9938-1.2969,2.2478-1.2969,3.7625v9.4102h-2.6426v-16.5h2.6426v2.7393h.0645c1.2461-2.0839,3.0508-3.126,5.4141-3.126,1.8047,0,3.1846.5829,4.1416,1.7483.9551,1.1656,1.4336,2.8495,1.4336,5.0515v10.0869Z"/><path d="m1618.9721,1114.8509c0,6.0586-2.9004,9.0879-8.7012,9.0879-2.041,0-3.8242-.3867-5.3496-1.1602v-2.6426c1.8584,1.0312,3.6309,1.5469,5.3174,1.5469,4.0605,0,6.0908-2.1592,6.0908-6.4775v-1.8047h-.0645c-1.2568,2.1056-3.1475,3.1582-5.6719,3.1582-2.0518,0-3.7031-.7332-4.9551-2.1995-1.251-1.4663-1.877-3.4347-1.877-5.9055,0-2.8037.6738-5.0326,2.0225-6.687,1.3477-1.6542,3.1924-2.4814,5.5342-2.4814,2.2246,0,3.873.8917,4.9473,2.6748h.0645v-2.2881h2.6426v15.1787Zm-2.6426-6.1392v-2.4331c0-1.3104-.4434-2.4331-1.3291-3.3677-.8867-.9346-1.9902-1.4019-3.3115-1.4019-1.6328,0-2.9111.5936-3.835,1.7805-.9238,1.1871-1.3857,2.8495-1.3857,4.9871,0,1.8369.4434,3.306,1.3291,4.407.8867,1.1012,2.0596,1.6516,3.5205,1.6516,1.4824,0,2.6885-.5262,3.6182-1.5791.9287-1.0526,1.3936-2.4009,1.3936-4.0444Z"/></g><g><path d="m725.9136,689.5887v-4.4312c1.5469,1.1279,3.3516,1.6919,5.4141,1.6919,1.2998,0,2.3125-.2792,3.0381-.8379.7246-.5585,1.0869-1.3374,1.0869-2.3364,0-1.0312-.4482-1.826-1.3447-2.3848-.8975-.5585-2.1299-.8379-3.6982-.8379h-2.1426v-3.8994h1.9814c3.0078,0,4.5117-.999,4.5117-2.9971,0-1.8798-1.1553-2.8198-3.4639-2.8198-1.5469,0-3.0518.4995-4.5117,1.4985v-4.1572c1.6211-.8163,3.5117-1.2246,5.6719-1.2246,2.3623,0,4.2021.5317,5.5186,1.5952,1.3154,1.0635,1.9736,2.444,1.9736,4.1411,0,3.0187-1.5312,4.9093-4.5918,5.6719v.0806c1.6318.2042,2.9209.7976,3.8672,1.7805.9443.9829,1.418,2.1888,1.418,3.6174,0,2.1592-.79,3.8672-2.3691,5.124s-3.7598,1.8853-6.542,1.8853c-2.3848,0-4.3242-.3867-5.8174-1.1602Z"/><path d="m752.3716,690.7488c-5.5,0-8.25-3.8617-8.25-11.5854,0-4.0067.7441-7.0602,2.2324-9.1604,1.4873-2.1,3.6436-3.1501,6.4688-3.1501,5.3711,0,8.0566,3.9264,8.0566,11.7788,0,3.9103-.7324,6.9073-2.1992,8.9912-1.4658,2.0841-3.5684,3.126-6.3086,3.126Zm.2266-20.0127c-2.2031,0-3.3037,2.7662-3.3037,8.2983,0,5.2101,1.0791,7.8149,3.2393,7.8149,2.1045,0,3.1582-2.6854,3.1582-8.0566s-1.0312-8.0566-3.0938-8.0566Z"/><path d="m768.9204,678.9539c-1.6436,0-2.9678-.5209-3.9717-1.563-1.0049-1.0419-1.5068-2.4437-1.5068-4.2056,0-1.9227.5342-3.4482,1.6035-4.5762,1.0684-1.1279,2.4941-1.6919,4.2783-1.6919,1.707,0,3.042.5104,4.0039,1.5308.9609,1.0206,1.4414,2.4547,1.4414,4.3022,0,1.9014-.5312,3.4108-1.5947,4.5278-1.0635,1.1173-2.4814,1.6758-4.2539,1.6758Zm16.8701-11.7144l-15.0488,23.1064h-3.9316l15.0176-23.1064h3.9629Zm-16.5645,2.5137c-1.5684,0-2.3516,1.0905-2.3516,3.271,0,2.0625.7461,3.0938,2.2393,3.0938,1.5254,0,2.2881-1.0741,2.2881-3.2227,0-2.0947-.7246-3.1421-2.1758-3.1421Zm14.084,20.915c-1.6445,0-2.9678-.5209-3.9727-1.563-1.0039-1.0419-1.5059-2.4437-1.5059-4.2056,0-1.9227.5342-3.4482,1.6025-4.5762,1.0693-1.1279,2.4951-1.6919,4.2783-1.6919,1.7188,0,3.0557.505,4.0117,1.5146.9561,1.0099,1.4346,2.4386,1.4346,4.2861,0,1.9014-.5322,3.416-1.5947,4.5439-1.0645,1.1279-2.4824,1.6919-4.2539,1.6919Zm.2578-9.2007c-1.5586,0-2.3369,1.0905-2.3369,3.271,0,2.0625.7568,3.0938,2.2725,3.0938,1.5244,0,2.2871-1.0741,2.2871-3.2227,0-.999-.2041-1.7725-.6113-2.3203-.4092-.5479-.9463-.8218-1.6113-.8218Z"/><path d="m708.2788,732.1548h-2.9971l-2.4492-6.4775h-9.7969l-2.3047,6.4775h-3.0127l8.8623-23.1064h2.8037l8.8945,23.1064Zm-6.333-8.9106l-3.625-9.8452c-.1182-.3223-.2363-.8379-.3545-1.5469h-.0645c-.1074.6554-.2314,1.171-.3701,1.5469l-3.5938,9.8452h8.0078Z"/><path d="m725.021,732.1548h-2.6426v-9.4102c0-3.5018-1.2783-5.2529-3.835-5.2529-1.3213,0-2.4141.4969-3.2793,1.4905-.8643.9938-1.2969,2.2478-1.2969,3.7625v9.4102h-2.6426v-16.5h2.6426v2.7393h.0645c1.2461-2.0839,3.0508-3.126,5.4141-3.126,1.8047,0,3.1846.5829,4.1416,1.7483.9551,1.1656,1.4336,2.8495,1.4336,5.0515v10.0869Z"/><path d="m741.812,732.1548h-2.6426v-2.5781h-.0645c-1.1504,1.9767-2.8418,2.9648-5.0762,2.9648-1.6436,0-2.9297-.4351-3.8594-1.3052-.9287-.8701-1.3936-2.0248-1.3936-3.4644,0-3.0829,1.8154-4.8768,5.4463-5.3818l4.9473-.6929c0-2.8037-1.1338-4.2056-3.4004-4.2056-1.9873,0-3.7812.6768-5.3818,2.0303v-2.707c1.6221-1.0312,3.4912-1.5469,5.6074-1.5469,3.8779,0,5.8174,2.0519,5.8174,6.1553v10.7314Zm-2.6426-8.3467l-3.9805.5479c-1.2246.172-2.1484.4753-2.7715.9104s-.9346,1.2059-.9346,2.3123c0,.8057.2871,1.4637.8623,1.9739.5742.5104,1.3398.7654,2.2959.7654,1.3105,0,2.3926-.4592,3.2471-1.3777.8535-.9185,1.2812-2.0812,1.2812-3.4885v-1.6436Z"/><path d="m749.4331,732.1548h-2.6426v-24.4277h2.6426v24.4277Z"/><path d="m767.9145,715.6548l-7.5889,19.1426c-1.3535,3.416-3.2549,5.124-5.7041,5.124-.6875,0-1.2627-.0699-1.7246-.2095v-2.3687c.5693.1934,1.0908.29,1.5635.29,1.332,0,2.3311-.795,2.9971-2.3848l1.3213-3.126-6.4453-16.4678h2.9326l4.4629,12.6973c.0537.1611.167.5801.3389,1.2568h.0967c.0537-.2578.1611-.6659.3223-1.2246l4.6895-12.7295h2.7383Z"/><path d="m778.4038,731.9937c-.623.3436-1.4443.5156-2.4648.5156-2.8896,0-4.334-1.6113-4.334-4.834v-9.7646h-2.8359v-2.2559h2.8359v-4.0283l2.6426-.854v4.8823h4.1562v2.2559h-4.1562v9.2974c0,1.1066.1875,1.8961.5635,2.3687.376.4728.999.709,1.8691.709.666,0,1.2412-.1825,1.7236-.5479v2.2559Z"/><path d="m783.2866,711.4654c-.4727,0-.876-.1611-1.208-.4834-.334-.3223-.5-.7303-.5-1.2246s.166-.9049.5-1.2327c.332-.3275.7354-.4915,1.208-.4915.4834,0,.8945.1639,1.2324.4915.3389.3278.5078.7386.5078,1.2327,0,.4728-.1689.8756-.5078,1.2085-.3379.3331-.749.4995-1.2324.4995Zm1.2891,20.6895h-2.6426v-16.5h2.6426v16.5Z"/><path d="m801.1723,731.3975c-1.2676.7626-2.7715,1.144-4.5117,1.144-2.3525,0-4.251-.7654-5.6963-2.2961-1.4443-1.5308-2.167-3.5153-2.167-5.9539,0-2.7177.7783-4.901,2.3359-6.55,1.5576-1.6488,3.6367-2.4734,6.2363-2.4734,1.4502,0,2.7285.2687,3.835.8057v2.707c-1.2246-.8593-2.5352-1.2891-3.9316-1.2891-1.6865,0-3.0693.6042-4.1494,1.8127-1.0791,1.2085-1.6191,2.7957-1.6191,4.7615,0,1.9336.5078,3.4591,1.5225,4.5762,1.0156,1.1173,2.377,1.6758,4.085,1.6758,1.4395,0,2.793-.4779,4.0605-1.4341v2.5137Z"/><path d="m816.98,732.1548h-2.6426v-2.5781h-.0645c-1.1504,1.9767-2.8418,2.9648-5.0762,2.9648-1.6436,0-2.9297-.4351-3.8594-1.3052-.9287-.8701-1.3936-2.0248-1.3936-3.4644,0-3.0829,1.8154-4.8768,5.4463-5.3818l4.9473-.6929c0-2.8037-1.1338-4.2056-3.4004-4.2056-1.9873,0-3.7812.6768-5.3818,2.0303v-2.707c1.6221-1.0312,3.4912-1.5469,5.6074-1.5469,3.8779,0,5.8174,2.0519,5.8174,6.1553v10.7314Zm-2.6426-8.3467l-3.9805.5479c-1.2246.172-2.1484.4753-2.7715.9104s-.9346,1.2059-.9346,2.3123c0,.8057.2871,1.4637.8623,1.9739.5742.5104,1.3398.7654,2.2959.7654,1.3105,0,2.3926-.4592,3.2471-1.3777.8535-.9185,1.2812-2.0812,1.2812-3.4885v-1.6436Z"/><path d="m824.6011,732.1548h-2.6426v-24.4277h2.6426v24.4277Z"/><path d="m692.1011,773.2709c0,2.707-.5449,4.7937-1.6357,6.26-1.0898,1.4663-2.6504,2.1995-4.6807,2.1995-.752,0-1.4824-.172-2.1914-.5156v-2.4653c.7949.4834,1.5469.7251,2.2559.7251,2.4062,0,3.6094-1.923,3.6094-5.7686v-16.2422h2.6426v15.8071Zm-1.2891-19.9966c-.4727,0-.876-.1611-1.208-.4834-.334-.3223-.5-.7303-.5-1.2246s.166-.9049.5-1.2327c.332-.3275.7354-.4915,1.208-.4915.4834,0,.8945.1639,1.2324.4915.3389.3278.5078.7386.5078,1.2327,0,.4728-.1689.8756-.5078,1.2085-.3379.3331-.749.4995-1.2324.4995Z"/><path d="m710.7925,773.9638h-2.6426v-2.6104h-.0645c-1.0957,1.998-2.793,2.9971-5.0918,2.9971-3.9316,0-5.8975-2.3417-5.8975-7.0254v-9.8613h2.627v9.4424c0,3.4805,1.3311,5.2207,3.9961,5.2207,1.2891,0,2.3496-.4753,3.1816-1.426.833-.9507,1.249-2.194,1.249-3.7302v-9.5068h2.6426v16.5Z"/><path d="m730.2085,773.9638h-2.6426v-2.8037h-.0645c-1.2246,2.127-3.1152,3.1904-5.6719,3.1904-2.0732,0-3.7305-.7384-4.9707-2.2156-1.2412-1.4769-1.8613-3.4885-1.8613-6.0344,0-2.7284.6875-4.9146,2.0625-6.5581s3.207-2.4653,5.4941-2.4653c2.2666,0,3.916.8917,4.9473,2.6748h.0645v-10.2158h2.6426v24.4277Zm-2.6426-7.4604v-2.4331c0-1.3319-.4404-2.4598-1.3213-3.3838-.8809-.9237-1.998-1.3857-3.3516-1.3857-1.6113,0-2.8789.5909-3.8027,1.7725-.9238,1.1818-1.3857,2.8146-1.3857,4.8984,0,1.9014.4434,3.4027,1.3291,4.5037.8867,1.1012,2.0762,1.6516,3.5693,1.6516,1.4717,0,2.667-.5317,3.585-1.5952.9189-1.0635,1.3779-2.4061,1.3779-4.0283Z"/><path d="m749.6411,772.6425c0,6.0586-2.9004,9.0879-8.7012,9.0879-2.041,0-3.8242-.3867-5.3496-1.1602v-2.6426c1.8584,1.0312,3.6309,1.5469,5.3174,1.5469,4.0605,0,6.0908-2.1592,6.0908-6.4775v-1.8047h-.0645c-1.2568,2.1056-3.1475,3.1582-5.6719,3.1582-2.0518,0-3.7031-.7332-4.9551-2.1995-1.251-1.4663-1.877-3.4347-1.877-5.9055,0-2.8037.6738-5.0326,2.0225-6.687,1.3477-1.6542,3.1924-2.4814,5.5342-2.4814,2.2246,0,3.873.8917,4.9473,2.6748h.0645v-2.2881h2.6426v15.1787Zm-2.6426-6.1392v-2.4331c0-1.3104-.4434-2.4331-1.3291-3.3677-.8867-.9346-1.9902-1.4019-3.3115-1.4019-1.6328,0-2.9111.5936-3.835,1.7805-.9238,1.1871-1.3857,2.8495-1.3857,4.9871,0,1.8369.4434,3.306,1.3291,4.407.8867,1.1012,2.0596,1.6516,3.5205,1.6516,1.4824,0,2.6885-.5262,3.6182-1.5791.9287-1.0526,1.3936-2.4009,1.3936-4.0444Z"/><path d="m778.4194,773.9638h-2.6426v-9.4746c0-1.826-.2822-3.1473-.8457-3.9639-.5645-.8163-1.5127-1.2246-2.8438-1.2246-1.1289,0-2.0869.5156-2.877,1.5469-.7891,1.0312-1.1836,2.2667-1.1836,3.7061v9.4102h-2.6426v-9.7969c0-3.244-1.252-4.8662-3.7549-4.8662-1.1602,0-2.1162.4862-2.8682,1.4583-.752.9723-1.1279,2.2372-1.1279,3.7947v9.4102h-2.6426v-16.5h2.6426v2.6104h.0645c1.1709-1.998,2.8789-2.9971,5.124-2.9971,1.1279,0,2.1113.3142,2.9492.9426s1.4121,1.453,1.7236,2.4734c1.2246-2.2772,3.0508-3.416,5.4785-3.416,3.6309,0,5.4463,2.2397,5.4463,6.7192v10.1675Z"/><path d="m796.6753,766.3744h-11.6494c.043,1.8369.5371,3.2549,1.4824,4.2539s2.2451,1.4985,3.8994,1.4985c1.8584,0,3.5664-.6123,5.124-1.8369v2.4814c-1.4502,1.0529-3.3682,1.5791-5.7529,1.5791-2.3311,0-4.1621-.7493-5.4941-2.2478s-1.998-3.6066-1.998-6.3245c0-2.5673.7275-4.6593,2.1836-6.2761,1.4551-1.6166,3.2627-2.425,5.4219-2.425s3.8291.6984,5.0117,2.0947c1.1807,1.3966,1.7715,3.3354,1.7715,5.8169v1.3857Zm-2.707-2.2397c-.0107-1.5253-.3779-2.7123-1.1035-3.561-.7246-.8485-1.7324-1.2729-3.0215-1.2729-1.2461,0-2.3037.4459-3.1738,1.3374-.8701.8917-1.4072,2.0573-1.6113,3.4966h8.9102Z"/><path d="m814.3686,773.9638h-2.6426v-9.4102c0-3.5018-1.2783-5.2529-3.835-5.2529-1.3213,0-2.4141.4969-3.2793,1.4905-.8643.9938-1.2969,2.2478-1.2969,3.7625v9.4102h-2.6426v-16.5h2.6426v2.7393h.0645c1.2461-2.0839,3.0508-3.126,5.4141-3.126,1.8047,0,3.1846.5829,4.1416,1.7483.9551,1.1656,1.4336,2.8495,1.4336,5.0515v10.0869Z"/><path d="m827.0014,773.8027c-.623.3436-1.4443.5156-2.4648.5156-2.8896,0-4.334-1.6113-4.334-4.834v-9.7646h-2.8359v-2.2559h2.8359v-4.0283l2.6426-.854v4.8823h4.1562v2.2559h-4.1562v9.2974c0,1.1066.1875,1.8961.5635,2.3687.376.4728.999.709,1.8691.709.666,0,1.2412-.1825,1.7236-.5479v2.2559Z"/></g><g><path d="m826.1479,356.1246h9.7969v4.2217h-15.3711v-1.7402c0-1.1815.1982-2.2423.5957-3.1824.3975-.9398.8965-1.7831,1.498-2.5298.6016-.7465,1.2598-1.4071,1.9746-1.9819.7139-.5746,1.3936-1.0929,2.0381-1.5549.6768-.4834,1.2705-.9452,1.7803-1.3857.5107-.4403.9404-.8782,1.2891-1.3132.3496-.4351.6094-.8754.7812-1.3213.1719-.4457.2578-.921.2578-1.426,0-.9882-.2793-1.7347-.8379-2.2397-.5586-.5048-1.4121-.7573-2.5615-.7573-1.9873,0-3.8887.7896-5.7041,2.3687v-4.4795c2.0088-1.2997,4.2754-1.9497,6.7998-1.9497,1.1709,0,2.2207.1531,3.1504.4592.9287.3062,1.7158.744,2.3604,1.3132.6445.5695,1.1357,1.2596,1.4746,2.0706.3379.8112.5078,1.7161.5078,2.7151,0,1.0635-.1641,2.0089-.4922,2.8359-.3271.8273-.7627,1.5791-1.3047,2.2559-.543.6768-1.168,1.2971-1.877,1.8611s-1.4453,1.1093-2.208,1.6355c-.5156.3654-1.0127.7279-1.4902,1.0876-.4785.36-.9004.7145-1.2646,1.0635-.3662.3492-.6562.6903-.8711,1.0232-.2148.3331-.3223.65-.3223.9507Z"/><path d="m855.7329,347.6812c0,2.0519-.2266,3.8861-.6777,5.5027-.4512,1.6168-1.1084,2.9838-1.9736,4.1008-.8643,1.1173-1.9199,1.9739-3.166,2.5701s-2.6592.8943-4.2373.8943c-1.8916,0-3.5186-.3009-4.8828-.9023v-4.1895c1.2139.795,2.6748,1.1924,4.3828,1.1924,1.751,0,3.1201-.5962,4.1094-1.7886.9873-1.1924,1.4873-2.9165,1.498-5.1724l-.0967-.0322c-1.0205,1.5146-2.5732,2.272-4.6572,2.272-.9453,0-1.8174-.1772-2.6182-.5317-.7998-.3545-1.4932-.8459-2.0781-1.4744-.5859-.6284-1.042-1.3777-1.3701-2.2478-.3271-.8701-.4912-1.826-.4912-2.8682,0-1.2137.1982-2.3203.5967-3.3193.3965-.999.9531-1.8583,1.667-2.5781.7148-.7196,1.5713-1.2755,2.5703-1.6677.999-.392,2.1055-.5881,3.3193-.5881,1.2568,0,2.3848.2445,3.3838.7332.999.4889,1.8506,1.1952,2.5537,2.1189.7041.924,1.2412,2.0573,1.6113,3.3999.3711,1.3429.5566,2.8682.5566,4.5762Zm-5.1406-2.707c0-.5907-.0752-1.1466-.2256-1.6677-.1504-.5209-.3604-.9694-.6279-1.3455-.2695-.3759-.5967-.674-.9834-.8943-.3867-.2201-.8115-.3303-1.2725-.3303-.4414,0-.8467.0967-1.2168.29-.3711.1934-.6904.4592-.959.7976s-.4785.744-.6289,1.2166c-.1504.4728-.2246.9829-.2246,1.5308,0,.6017.0742,1.136.2246,1.6033s.3633.8621.6367,1.1843c.2744.3223.6045.5668.9912.7332.3867.1666.8164.2498,1.2891.2498.4512,0,.8594-.0886,1.2246-.2659s.6797-.4161.9424-.717c.2637-.3007.4678-.6552.6123-1.0635.1455-.4081.2178-.8485.2178-1.3213Z"/><path d="m864.1274,348.9541c-1.6436,0-2.9678-.5209-3.9717-1.563-1.0049-1.0419-1.5068-2.4437-1.5068-4.2056,0-1.9227.5342-3.4482,1.6035-4.5762,1.0684-1.1279,2.4941-1.6919,4.2783-1.6919,1.707,0,3.042.5104,4.0039,1.5308.9609,1.0206,1.4414,2.4547,1.4414,4.3022,0,1.9014-.5312,3.4108-1.5947,4.5278-1.0635,1.1173-2.4814,1.6758-4.2539,1.6758Zm16.8701-11.7144l-15.0488,23.1064h-3.9316l15.0176-23.1064h3.9629Zm-16.5645,2.5137c-1.5684,0-2.3516,1.0905-2.3516,3.271,0,2.0625.7461,3.0938,2.2393,3.0938,1.5254,0,2.2881-1.0741,2.2881-3.2227,0-2.0947-.7246-3.1421-2.1758-3.1421Zm14.084,20.915c-1.6445,0-2.9678-.5209-3.9727-1.563-1.0039-1.0419-1.5059-2.4437-1.5059-4.2056,0-1.9227.5342-3.4482,1.6025-4.5762,1.0693-1.1279,2.4951-1.6919,4.2783-1.6919,1.7188,0,3.0557.505,4.0117,1.5146.9561,1.0099,1.4346,2.4386,1.4346,4.2861,0,1.9014-.5322,3.416-1.5947,4.5439-1.0645,1.1279-2.4824,1.6919-4.2539,1.6919Zm.2578-9.2007c-1.5586,0-2.3369,1.0905-2.3369,3.271,0,2.0625.7568,3.0938,2.2725,3.0938,1.5244,0,2.2871-1.0741,2.2871-3.2227,0-.999-.2041-1.7725-.6113-2.3203-.4092-.5479-.9463-.8218-1.6113-.8218Z"/><path d="m799.771,381.4978h-9.0234v7.9922h8.3467v2.4331h-8.3467v10.2319h-2.707v-23.1064h11.7305v2.4492Z"/><path d="m806.4419,402.1551h-2.6426v-24.4277h2.6426v24.4277Z"/><path d="m825.0522,394.5657h-11.6494c.043,1.8369.5371,3.2549,1.4824,4.2539s2.2451,1.4985,3.8994,1.4985c1.8584,0,3.5664-.6123,5.124-1.8369v2.4814c-1.4502,1.0529-3.3682,1.5791-5.7529,1.5791-2.3311,0-4.1621-.7493-5.4941-2.2478s-1.998-3.6066-1.998-6.3245c0-2.5673.7275-4.6593,2.1836-6.2761,1.4551-1.6166,3.2627-2.425,5.4219-2.425s3.8291.6984,5.0117,2.0947c1.1807,1.3966,1.7715,3.3354,1.7715,5.8169v1.3857Zm-2.707-2.2397c-.0107-1.5253-.3779-2.7123-1.1035-3.561-.7246-.8485-1.7324-1.2729-3.0215-1.2729-1.2461,0-2.3037.4459-3.1738,1.3374-.8701.8917-1.4072,2.0573-1.6113,3.4966h8.9102Z"/><path d="m841.102,385.6551l-5.543,8.3467,5.4463,8.1533h-3.0781l-3.2383-5.3496c-.2041-.3329-.4463-.7518-.7246-1.2568h-.0645c-.0547.0967-.3066.5156-.7578,1.2568l-3.3027,5.3496h-3.0459l5.624-8.0889-5.3828-8.4111h3.0781l3.1904,5.6396c.2363.4189.4678.8488.6924,1.2891h.0645l4.125-6.9287h2.917Z"/><path d="m845.5493,381.4656c-.4727,0-.876-.1611-1.208-.4834-.334-.3223-.5-.7303-.5-1.2246s.166-.9049.5-1.2327c.332-.3275.7354-.4915,1.208-.4915.4834,0,.8945.1639,1.2324.4915.3389.3278.5078.7386.5078,1.2327,0,.4728-.1689.8756-.5078,1.2085-.3379.3331-.749.4995-1.2324.4995Zm1.2891,20.6895h-2.6426v-16.5h2.6426v16.5Z"/><path d="m854.895,399.7703h-.0645v2.3848h-2.6426v-24.4277h2.6426v10.8281h.0645c1.2998-2.1914,3.2012-3.2871,5.7041-3.2871,2.1162,0,3.7734.7386,4.9707,2.2156,1.1982,1.4772,1.7969,3.4563,1.7969,5.9377,0,2.7609-.6719,4.9709-2.0137,6.6306-1.3438,1.6597-3.1807,2.4895-5.5117,2.4895-2.1807,0-3.8291-.9237-4.9463-2.7715Zm-.0645-6.6548v2.3042c0,1.3644.4434,2.5217,1.3291,3.4724.8867.9507,2.0117,1.426,3.376,1.426,1.6006,0,2.8545-.6123,3.7627-1.8369.9072-1.2246,1.3613-2.9271,1.3613-5.1079,0-1.8369-.4248-3.2762-1.2734-4.3184-.8486-1.0419-1.998-1.563-3.4473-1.563-1.5371,0-2.7715.5345-3.707,1.6033-.9336,1.069-1.4014,2.4089-1.4014,4.0203Z"/><path d="m872.9419,381.4656c-.4727,0-.876-.1611-1.208-.4834-.334-.3223-.5-.7303-.5-1.2246s.166-.9049.5-1.2327c.332-.3275.7354-.4915,1.208-.4915.4834,0,.8945.1639,1.2324.4915.3389.3278.5078.7386.5078,1.2327,0,.4728-.1689.8756-.5078,1.2085-.3379.3331-.749.4995-1.2324.4995Zm1.2891,20.6895h-2.6426v-16.5h2.6426v16.5Z"/><path d="m882.2231,402.1551h-2.6426v-24.4277h2.6426v24.4277Z"/><path d="m888.9262,381.4656c-.4727,0-.876-.1611-1.208-.4834-.334-.3223-.5-.7303-.5-1.2246s.166-.9049.5-1.2327c.332-.3275.7354-.4915,1.208-.4915.4834,0,.8945.1639,1.2324.4915.3389.3278.5078.7386.5078,1.2327,0,.4728-.1689.8756-.5078,1.2085-.3379.3331-.749.4995-1.2324.4995Zm1.2891,20.6895h-2.6426v-16.5h2.6426v16.5Z"/><path d="m903.2182,401.9939c-.623.3436-1.4443.5156-2.4648.5156-2.8896,0-4.334-1.6113-4.334-4.834v-9.7646h-2.8359v-2.2559h2.8359v-4.0283l2.6426-.854v4.8823h4.1562v2.2559h-4.1562v9.2974c0,1.1066.1875,1.8961.5635,2.3687.376.4728.999.709,1.8691.709.666,0,1.2412-.1825,1.7236-.5479v2.2559Z"/><path d="m919.8794,385.6551l-7.5889,19.1426c-1.3535,3.416-3.2549,5.124-5.7041,5.124-.6875,0-1.2627-.0699-1.7246-.2095v-2.3687c.5693.1934,1.0908.29,1.5635.29,1.332,0,2.3311-.795,2.9971-2.3848l1.3213-3.126-6.4453-16.4678h2.9326l4.4629,12.6973c.0537.1611.167.5801.3389,1.2568h.0967c.0537-.2578.1611-.6659.3223-1.2246l4.6895-12.7295h2.7383Z"/></g><g><path d="m1342.5571,1239.5726h9.7969v4.2217h-15.3711v-1.7402c0-1.1816.1982-2.2422.5957-3.1824.3975-.9399.8965-1.783,1.498-2.5298.6016-.7466,1.2598-1.4072,1.9746-1.9819.7139-.5745,1.3936-1.093,2.0381-1.5549.6768-.4834,1.2705-.9451,1.7803-1.3857.5107-.4404.9404-.8782,1.2891-1.3132.3496-.4351.6094-.8755.7812-1.3213.1719-.4456.2578-.9209.2578-1.426,0-.9883-.2793-1.7346-.8379-2.2397-.5586-.5049-1.4121-.7573-2.5615-.7573-1.9873,0-3.8887.7896-5.7041,2.3687v-4.4795c2.0088-1.2996,4.2754-1.9497,6.7998-1.9497,1.1709,0,2.2207.1531,3.1504.4592.9287.3062,1.7158.7439,2.3604,1.3132.6445.5696,1.1357,1.2595,1.4746,2.0706.3379.8113.5078,1.7161.5078,2.7151,0,1.0635-.1641,2.0088-.4922,2.8359-.3271.8274-.7627,1.5791-1.3047,2.2559-.543.6768-1.168,1.2971-1.877,1.8611s-1.4453,1.1094-2.208,1.6355c-.5156.3652-1.0127.7278-1.4902,1.0876-.4785.3601-.9004.7146-1.2646,1.0635-.3662.3491-.6562.6904-.8711,1.0232-.2148.333-.3223.6501-.3223.9507Z"/><path d="m1368.0327,1220.1722v23.6221h-5.0762v-17.8857c-.2793.2473-.6094.481-.9902.7009-.3818.2202-.7871.4189-1.2168.5962s-.876.3279-1.3379.4512c-.4619.1235-.918.2122-1.3691.2659v-4.2861c1.3213-.3867,2.5674-.8806,3.7383-1.4824,1.1709-.6016,2.2285-1.2622,3.1738-1.9819h3.0781Z"/><path d="m1380.5366,1232.4021c-1.6436,0-2.9678-.521-3.9717-1.563-1.0049-1.0417-1.5068-2.4436-1.5068-4.2056,0-1.9229.5342-3.4482,1.6035-4.5762,1.0684-1.1279,2.4941-1.6919,4.2783-1.6919,1.707,0,3.042.5103,4.0039,1.5308.9609,1.0208,1.4414,2.4548,1.4414,4.3022,0,1.9014-.5312,3.4106-1.5947,4.5278-1.0635,1.1174-2.4814,1.6758-4.2539,1.6758Zm16.8701-11.7144l-15.0488,23.1064h-3.9316l15.0176-23.1064h3.9629Zm-16.5645,2.5137c-1.5684,0-2.3516,1.0903-2.3516,3.271,0,2.0625.7461,3.0938,2.2393,3.0938,1.5254,0,2.2881-1.074,2.2881-3.2227,0-2.0947-.7246-3.1421-2.1758-3.1421Zm14.084,20.915c-1.6445,0-2.9678-.521-3.9727-1.563-1.0039-1.0417-1.5059-2.4436-1.5059-4.2056,0-1.9229.5342-3.4482,1.6025-4.5762,1.0693-1.1279,2.4951-1.6919,4.2783-1.6919,1.7188,0,3.0557.5051,4.0117,1.5146.9561,1.0098,1.4346,2.4387,1.4346,4.2861,0,1.9014-.5322,3.416-1.5947,4.5439-1.0645,1.1279-2.4824,1.6919-4.2539,1.6919Zm.2578-9.2007c-1.5586,0-2.3369,1.0903-2.3369,3.271,0,2.0625.7568,3.0938,2.2725,3.0938,1.5244,0,2.2871-1.074,2.2871-3.2227,0-.999-.2041-1.7725-.6113-2.3203-.4092-.5479-.9463-.8218-1.6113-.8218Z"/><path d="m1292.6225,1285.6031h-2.9971l-2.4492-6.4775h-9.7969l-2.3047,6.4775h-3.0127l8.8623-23.1064h2.8037l8.8945,23.1064Zm-6.333-8.9106l-3.625-9.8452c-.1182-.3223-.2363-.8379-.3545-1.5469h-.0645c-.1074.6553-.2314,1.1709-.3701,1.5469l-3.5938,9.8452h8.0078Z"/><path d="m1298.73,1285.6031h-2.707v-23.1064h2.707v23.1064Z"/><path d="m1327.5718,1285.6031h-2.6426v-2.8037h-.0645c-1.2246,2.127-3.1152,3.1904-5.6719,3.1904-2.0732,0-3.7305-.7385-4.9707-2.2156-1.2412-1.4768-1.8613-3.4885-1.8613-6.0344,0-2.7285.6875-4.9146,2.0625-6.5581s3.207-2.4653,5.4941-2.4653c2.2666,0,3.916.8918,4.9473,2.6748h.0645v-10.2158h2.6426v24.4277Zm-2.6426-7.4604v-2.4331c0-1.3318-.4404-2.4597-1.3213-3.3838-.8809-.9238-1.998-1.3857-3.3516-1.3857-1.6113,0-2.8789.5908-3.8027,1.7725-.9238,1.1819-1.3857,2.8145-1.3857,4.8984,0,1.9014.4434,3.4026,1.3291,4.5037.8867,1.1013,2.0762,1.6516,3.5693,1.6516,1.4717,0,2.667-.5317,3.585-1.5952.9189-1.0635,1.3779-2.4062,1.3779-4.0283Z"/><path d="m1346.1821,1278.0137h-11.6494c.043,1.8369.5371,3.2549,1.4824,4.2539s2.2451,1.4985,3.8994,1.4985c1.8584,0,3.5664-.6123,5.124-1.8369v2.4814c-1.4502,1.053-3.3682,1.5791-5.7529,1.5791-2.3311,0-4.1621-.7493-5.4941-2.2478s-1.998-3.6067-1.998-6.3245c0-2.5674.7275-4.6592,2.1836-6.2761,1.4551-1.6167,3.2627-2.425,5.4219-2.425s3.8291.6985,5.0117,2.0947c1.1807,1.3965,1.7715,3.3354,1.7715,5.8169v1.3857Zm-2.707-2.2397c-.0107-1.5251-.3779-2.7124-1.1035-3.561-.7246-.8484-1.7324-1.2729-3.0215-1.2729-1.2461,0-2.3037.4458-3.1738,1.3374-.8701.8918-1.4072,2.0571-1.6113,3.4966h8.9102Z"/><path d="m1352.8208,1285.6031h-2.6426v-24.4277h2.6426v24.4277Z"/><path d="m1371.4311,1278.0137h-11.6494c.043,1.8369.5371,3.2549,1.4824,4.2539s2.2451,1.4985,3.8994,1.4985c1.8584,0,3.5664-.6123,5.124-1.8369v2.4814c-1.4502,1.053-3.3682,1.5791-5.7529,1.5791-2.3311,0-4.1621-.7493-5.4941-2.2478s-1.998-3.6067-1.998-6.3245c0-2.5674.7275-4.6592,2.1836-6.2761,1.4551-1.6167,3.2627-2.425,5.4219-2.425s3.8291.6985,5.0117,2.0947c1.1807,1.3965,1.7715,3.3354,1.7715,5.8169v1.3857Zm-2.707-2.2397c-.0107-1.5251-.3779-2.7124-1.1035-3.561-.7246-.8484-1.7324-1.2729-3.0215-1.2729-1.2461,0-2.3037.4458-3.1738,1.3374-.8701.8918-1.4072,2.0571-1.6113,3.4966h8.9102Z"/><path d="m1389.5112,1284.2818c0,6.0586-2.9004,9.0879-8.7012,9.0879-2.041,0-3.8242-.3867-5.3496-1.1602v-2.6426c1.8584,1.0312,3.6309,1.5469,5.3174,1.5469,4.0605,0,6.0908-2.1592,6.0908-6.4775v-1.8047h-.0645c-1.2568,2.1055-3.1475,3.1582-5.6719,3.1582-2.0518,0-3.7031-.7332-4.9551-2.1995-1.251-1.4663-1.877-3.4346-1.877-5.9055,0-2.8037.6738-5.0327,2.0225-6.687,1.3477-1.6541,3.1924-2.4814,5.5342-2.4814,2.2246,0,3.873.8918,4.9473,2.6748h.0645v-2.2881h2.6426v15.1787Zm-2.6426-6.1392v-2.4331c0-1.3105-.4434-2.4331-1.3291-3.3677-.8867-.9346-1.9902-1.4019-3.3115-1.4019-1.6328,0-2.9111.5938-3.835,1.7805-.9238,1.187-1.3857,2.8496-1.3857,4.9871,0,1.8369.4434,3.3059,1.3291,4.407.8867,1.1013,2.0596,1.6516,3.5205,1.6516,1.4824,0,2.6885-.5261,3.6182-1.5791.9287-1.0527,1.3936-2.4009,1.3936-4.0444Z"/><path d="m1406.6723,1285.6031h-2.6426v-2.5781h-.0645c-1.1504,1.9766-2.8418,2.9648-5.0762,2.9648-1.6436,0-2.9297-.4351-3.8594-1.3052-.9287-.8701-1.3936-2.0247-1.3936-3.4644,0-3.083,1.8154-4.8767,5.4463-5.3818l4.9473-.6929c0-2.8037-1.1338-4.2056-3.4004-4.2056-1.9873,0-3.7812.6768-5.3818,2.0303v-2.707c1.6221-1.0312,3.4912-1.5469,5.6074-1.5469,3.8779,0,5.8174,2.052,5.8174,6.1553v10.7314Zm-2.6426-8.3467l-3.9805.5479c-1.2246.1719-2.1484.4753-2.7715.9104s-.9346,1.2061-.9346,2.3123c0,.8057.2871,1.4639.8623,1.9739.5742.5103,1.3398.7654,2.2959.7654,1.3105,0,2.3926-.4592,3.2471-1.3777.8535-.9185,1.2812-2.0811,1.2812-3.4885v-1.6436Z"/><path d="m1419.3042,1285.4419c-.623.3438-1.4443.5156-2.4648.5156-2.8896,0-4.334-1.6113-4.334-4.834v-9.7646h-2.8359v-2.2559h2.8359v-4.0283l2.6426-.854v4.8823h4.1562v2.2559h-4.1562v9.2974c0,1.1064.1875,1.896.5635,2.3687.376.4729.999.709,1.8691.709.666,0,1.2412-.1826,1.7236-.5479v2.2559Z"/><path d="m1424.187,1264.9136c-.4727,0-.876-.1611-1.208-.4834-.334-.3223-.5-.7305-.5-1.2246s.166-.9048.5-1.2327c.332-.3276.7354-.4915,1.208-.4915.4834,0,.8945.1638,1.2324.4915.3389.3279.5078.7388.5078,1.2327,0,.4729-.1689.8757-.5078,1.2085-.3379.333-.749.4995-1.2324.4995Zm1.2891,20.6895h-2.6426v-16.5h2.6426v16.5Z"/><path d="m1437.7221,1285.9898c-2.4385,0-4.3857-.7708-5.8408-2.3123-1.4561-1.5413-2.1836-3.5852-2.1836-6.1311,0-2.7715.7578-4.936,2.2715-6.4937,1.5156-1.5574,3.5615-2.3364,6.1396-2.3364,2.46,0,4.3799.7573,5.7607,2.272,1.3799,1.5146,2.0703,3.615,2.0703,6.3003,0,2.6321-.7441,4.74-2.2314,6.3245-1.4883,1.5847-3.4834,2.3767-5.9863,2.3767Zm.1934-15.0498c-1.6973,0-3.04.5776-4.0283,1.7322-.9883,1.1548-1.4824,2.7473-1.4824,4.7776,0,1.9553.5,3.4966,1.498,4.6245,1,1.1279,2.3369,1.6919,4.0127,1.6919,1.708,0,3.0215-.5532,3.9395-1.6597.9189-1.1062,1.3779-2.6802,1.3779-4.7212,0-2.0625-.459-3.6521-1.3779-4.7695-.918-1.1172-2.2314-1.6758-3.9395-1.6758Z"/><path d="m1463.8579,1285.6031h-2.6426v-9.4102c0-3.502-1.2783-5.2529-3.835-5.2529-1.3213,0-2.4141.4971-3.2793,1.4905-.8643.9937-1.2969,2.2478-1.2969,3.7625v9.4102h-2.6426v-16.5h2.6426v2.7393h.0645c1.2461-2.084,3.0508-3.126,5.4141-3.126,1.8047,0,3.1846.5828,4.1416,1.7483.9551,1.1658,1.4336,2.8496,1.4336,5.0515v10.0869Z"/><path d="m1306.9712,1332.6651h-2.3525c-3.3301-3.8027-4.9951-8.4917-4.9951-14.0669,0-5.5967,1.665-10.3608,4.9951-14.2925h2.3848c-3.373,4.0823-5.0596,8.8357-5.0596,14.2603,0,5.3818,1.6758,10.0813,5.0273,14.0991Z"/><path d="m1312.7075,1325.0274h-.0645v9.9741h-2.6426v-24.0894h2.6426v2.9004h.0645c1.2998-2.1914,3.2012-3.2871,5.7041-3.2871,2.127,0,3.7871.7388,4.9785,2.2156,1.1934,1.4771,1.7891,3.4563,1.7891,5.9377,0,2.761-.6719,4.9709-2.0137,6.6306-1.3438,1.6597-3.1807,2.4895-5.5117,2.4895-2.1377,0-3.7861-.9238-4.9463-2.7715Zm-.0645-6.6548v2.3042c0,1.3643.4434,2.5217,1.3291,3.4724.8867.9507,2.0117,1.426,3.376,1.426,1.6006,0,2.8545-.6123,3.7627-1.8369.9072-1.2246,1.3613-2.927,1.3613-5.1079,0-1.8369-.4248-3.2764-1.2734-4.3184-.8486-1.0417-1.998-1.563-3.4473-1.563-1.5371,0-2.7715.5344-3.707,1.6033-.9336,1.0691-1.4014,2.4089-1.4014,4.0203Z"/><path d="m1338.0053,1313.587c-.4619-.3545-1.1279-.5317-1.998-.5317-1.1279,0-2.0703.5317-2.8281,1.5952-.7568,1.0635-1.1357,2.5137-1.1357,4.3506v8.4111h-2.6426v-16.5h2.6426v3.3999h.0645c.376-1.1602.9502-2.0649,1.7236-2.7151.7734-.6499,1.6387-.9749,2.5947-.9749.6875,0,1.2139.0752,1.5791.2256v2.7393Z"/><path d="m1347.77,1327.7989c-2.4385,0-4.3857-.7708-5.8408-2.3123-1.4561-1.5413-2.1836-3.5852-2.1836-6.1311,0-2.7715.7578-4.936,2.2715-6.4937,1.5156-1.5574,3.5615-2.3364,6.1396-2.3364,2.46,0,4.3799.7573,5.7607,2.272,1.3799,1.5146,2.0703,3.615,2.0703,6.3003,0,2.6321-.7441,4.74-2.2314,6.3245-1.4883,1.5847-3.4834,2.3767-5.9863,2.3767Zm.1934-15.0498c-1.6973,0-3.04.5776-4.0283,1.7322-.9883,1.1548-1.4824,2.7473-1.4824,4.7776,0,1.9553.5,3.4966,1.498,4.6245,1,1.1279,2.3369,1.6919,4.0127,1.6919,1.708,0,3.0215-.5532,3.9395-1.6597.9189-1.1062,1.3779-2.6802,1.3779-4.7212,0-2.0625-.459-3.6521-1.3779-4.7695-.918-1.1172-2.2314-1.6758-3.9395-1.6758Z"/><path d="m1383.6382,1327.4122h-2.6426v-9.4746c0-1.8262-.2822-3.1475-.8457-3.9639-.5645-.8162-1.5127-1.2246-2.8438-1.2246-1.1289,0-2.0869.5156-2.877,1.5469-.7891,1.0312-1.1836,2.2666-1.1836,3.7061v9.4102h-2.6426v-9.7969c0-3.2441-1.252-4.8662-3.7549-4.8662-1.1602,0-2.1162.4861-2.8682,1.4583-.752.9724-1.1279,2.2373-1.1279,3.7947v9.4102h-2.6426v-16.5h2.6426v2.6104h.0645c1.1709-1.998,2.8789-2.9971,5.124-2.9971,1.1279,0,2.1113.3142,2.9492.9426s1.4121,1.4529,1.7236,2.4734c1.2246-2.2773,3.0508-3.416,5.4785-3.416,3.6309,0,5.4463,2.2397,5.4463,6.7192v10.1675Z"/><path d="m1391.3403,1325.0274h-.0645v9.9741h-2.6426v-24.0894h2.6426v2.9004h.0645c1.2998-2.1914,3.2012-3.2871,5.7041-3.2871,2.127,0,3.7871.7388,4.9785,2.2156,1.1934,1.4771,1.7891,3.4563,1.7891,5.9377,0,2.761-.6719,4.9709-2.0137,6.6306-1.3438,1.6597-3.1807,2.4895-5.5117,2.4895-2.1377,0-3.7861-.9238-4.9463-2.7715Zm-.0645-6.6548v2.3042c0,1.3643.4434,2.5217,1.3291,3.4724.8867.9507,2.0117,1.426,3.376,1.426,1.6006,0,2.8545-.6123,3.7627-1.8369.9072-1.2246,1.3613-2.927,1.3613-5.1079,0-1.8369-.4248-3.2764-1.2734-4.3184-.8486-1.0417-1.998-1.563-3.4473-1.563-1.5371,0-2.7715.5344-3.707,1.6033-.9336,1.0691-1.4014,2.4089-1.4014,4.0203Z"/><path d="m1415.687,1327.251c-.623.3438-1.4443.5156-2.4648.5156-2.8896,0-4.334-1.6113-4.334-4.834v-9.7646h-2.8359v-2.2559h2.8359v-4.0283l2.6426-.854v4.8823h4.1562v2.2559h-4.1562v9.2974c0,1.1064.1875,1.896.5635,2.3687.376.4729.999.709,1.8691.709.666,0,1.2412-.1826,1.7236-.5479v2.2559Z"/><path d="m1418.2173,1326.816v-2.8359c1.4395,1.0635,3.0234,1.5952,4.7539,1.5952,2.3203,0,3.4805-.7734,3.4805-2.3203,0-.4404-.0996-.8137-.2988-1.1199-.1982-.3062-.4668-.5774-.8057-.8137-.3379-.2361-.7354-.4485-1.1924-.6365-.4561-.1877-.9482-.384-1.4746-.5881-.7305-.29-1.3721-.5825-1.9248-.8782-.5537-.2954-1.0156-.6284-1.3857-.999-.3711-.3706-.6504-.792-.8379-1.2649-.1885-.4727-.2822-1.0256-.2822-1.6597,0-.7734.1768-1.4583.5322-2.0544.3535-.5962.8262-1.0957,1.418-1.4985.5898-.4028,1.2646-.7063,2.0215-.9104.7578-.2039,1.5391-.3062,2.3447-.3062,1.4287,0,2.707.2473,3.835.7412v2.6748c-1.2139-.7949-2.6104-1.1924-4.1895-1.1924-.4941,0-.9404.0564-1.3379.1692s-.7383.2715-1.0225.4753c-.2852.2041-.5049.4487-.6611.7332-.1553.2847-.2334.5989-.2334.9426,0,.4297.0781.7896.2334,1.0796.1562.29.3838.5479.6855.7734.2998.2256.665.4297,1.0957.6123.4287.1829.918.3813,1.4658.5962.7305.2795,1.3857.5667,1.9658.8621.5801.2957,1.0742.6284,1.4824.999s.7227.7976.9424,1.281c.2207.4834.3311,1.0581.3311,1.7241,0,.8164-.1807,1.5254-.54,2.127-.3604.6018-.8408,1.1013-1.4424,1.4985-.6016.3975-1.2949.6929-2.0781.8862-.7852.1934-1.6064.29-2.4658.29-1.6973,0-3.1689-.3279-4.415-.9829Z"/><path d="m1433.2837,1332.6651h-2.3525c3.3516-4.0178,5.0273-8.7173,5.0273-14.0991,0-5.4246-1.6865-10.178-5.0596-14.2603h2.3848c3.3516,3.9316,5.0273,8.6958,5.0273,14.2925,0,5.5752-1.6758,10.2642-5.0273,14.0669Z"/></g><g><path d="m938.4497,1028.3327h9.7969v4.2217h-15.3711v-1.7402c0-1.1815.1982-2.2423.5957-3.1824.3975-.9398.8965-1.7831,1.498-2.5298.6016-.7465,1.2598-1.4071,1.9746-1.9819.7139-.5746,1.3936-1.0929,2.0381-1.5549.6768-.4834,1.2705-.9452,1.7803-1.3857.5107-.4403.9404-.8782,1.2891-1.3132.3496-.4351.6094-.8754.7812-1.3213.1719-.4457.2578-.921.2578-1.426,0-.9882-.2793-1.7347-.8379-2.2397-.5586-.5048-1.4121-.7573-2.5615-.7573-1.9873,0-3.8887.7896-5.7041,2.3687v-4.4795c2.0088-1.2997,4.2754-1.9497,6.7998-1.9497,1.1709,0,2.2207.1531,3.1504.4592.9287.3062,1.7158.744,2.3604,1.3132.6445.5695,1.1357,1.2596,1.4746,2.0706.3379.8112.5078,1.7161.5078,2.7151,0,1.0635-.1641,2.0089-.4922,2.8359-.3271.8273-.7627,1.5791-1.3047,2.2559-.543.6768-1.168,1.2971-1.877,1.8611s-1.4453,1.1093-2.208,1.6355c-.5156.3654-1.0127.7279-1.4902,1.0876-.4785.36-.9004.7145-1.2646,1.0635-.3662.3492-.6562.6903-.8711,1.0232-.2148.3331-.3223.65-.3223.9507Z"/><path d="m952.4038,1031.797v-4.4312c1.5469,1.1279,3.3516,1.6919,5.4141,1.6919,1.2998,0,2.3125-.2792,3.0381-.8379.7246-.5585,1.0869-1.3374,1.0869-2.3364,0-1.0312-.4482-1.826-1.3447-2.3848-.8975-.5585-2.1299-.8379-3.6982-.8379h-2.1426v-3.8994h1.9814c3.0078,0,4.5117-.999,4.5117-2.9971,0-1.8798-1.1553-2.8198-3.4639-2.8198-1.5469,0-3.0518.4995-4.5117,1.4985v-4.1572c1.6211-.8163,3.5117-1.2246,5.6719-1.2246,2.3623,0,4.2021.5317,5.5186,1.5952,1.3154,1.0635,1.9736,2.444,1.9736,4.1411,0,3.0187-1.5312,4.9093-4.5918,5.6719v.0806c1.6318.2042,2.9209.7976,3.8672,1.7805.9443.9829,1.418,2.1888,1.418,3.6174,0,2.1592-.79,3.8672-2.3691,5.124s-3.7598,1.8853-6.542,1.8853c-2.3848,0-4.3242-.3867-5.8174-1.1602Z"/><path d="m976.4292,1021.1623c-1.6436,0-2.9678-.5209-3.9717-1.563-1.0049-1.0419-1.5068-2.4437-1.5068-4.2056,0-1.9227.5342-3.4482,1.6035-4.5762,1.0684-1.1279,2.4941-1.6919,4.2783-1.6919,1.707,0,3.042.5104,4.0039,1.5308.9609,1.0206,1.4414,2.4547,1.4414,4.3022,0,1.9014-.5312,3.4108-1.5947,4.5278-1.0635,1.1173-2.4814,1.6758-4.2539,1.6758Zm16.8701-11.7144l-15.0488,23.1064h-3.9316l15.0176-23.1064h3.9629Zm-16.5645,2.5137c-1.5684,0-2.3516,1.0905-2.3516,3.271,0,2.0625.7461,3.0938,2.2393,3.0938,1.5254,0,2.2881-1.0741,2.2881-3.2227,0-2.0947-.7246-3.1421-2.1758-3.1421Zm14.084,20.915c-1.6445,0-2.9678-.5209-3.9727-1.563-1.0039-1.0419-1.5059-2.4437-1.5059-4.2056,0-1.9227.5342-3.4482,1.6025-4.5762,1.0693-1.1279,2.4951-1.6919,4.2783-1.6919,1.7188,0,3.0557.505,4.0117,1.5146.9561,1.0099,1.4346,2.4386,1.4346,4.2861,0,1.9014-.5322,3.416-1.5947,4.5439-1.0645,1.1279-2.4824,1.6919-4.2539,1.6919Zm.2578-9.2007c-1.5586,0-2.3369,1.0905-2.3369,3.271,0,2.0625.7568,3.0938,2.2725,3.0938,1.5244,0,2.2871-1.0741,2.2871-3.2227,0-.999-.2041-1.7725-.6113-2.3203-.4092-.5479-.9463-.8218-1.6113-.8218Z"/><path d="m891.0532,1074.3633h-2.707v-23.1064h2.707v23.1064Z"/><path d="m910.4702,1074.3633h-2.6426v-9.4102c0-3.5018-1.2783-5.2529-3.835-5.2529-1.3213,0-2.4141.4969-3.2793,1.4905-.8643.9938-1.2969,2.2478-1.2969,3.7625v9.4102h-2.6426v-16.5h2.6426v2.7393h.0645c1.2461-2.0839,3.0508-3.126,5.4141-3.126,1.8047,0,3.1846.5829,4.1416,1.7483.9551,1.1656,1.4336,2.8495,1.4336,5.0515v10.0869Z"/><path d="m923.103,1074.2022c-.623.3436-1.4443.5156-2.4648.5156-2.8896,0-4.334-1.6113-4.334-4.834v-9.7646h-2.8359v-2.2559h2.8359v-4.0283l2.6426-.854v4.8823h4.1562v2.2559h-4.1562v9.2974c0,1.1066.1875,1.8961.5635,2.3687.376.4728.999.709,1.8691.709.666,0,1.2412-.1825,1.7236-.5479v2.2559Z"/><path d="m939.893,1066.774h-11.6494c.043,1.8369.5371,3.2549,1.4824,4.2539s2.2451,1.4985,3.8994,1.4985c1.8584,0,3.5664-.6123,5.124-1.8369v2.4814c-1.4502,1.0529-3.3682,1.5791-5.7529,1.5791-2.3311,0-4.1621-.7493-5.4941-2.2478s-1.998-3.6066-1.998-6.3245c0-2.5673.7275-4.6593,2.1836-6.2761,1.4551-1.6166,3.2627-2.425,5.4219-2.425s3.8291.6984,5.0117,2.0947c1.1807,1.3966,1.7715,3.3354,1.7715,5.8169v1.3857Zm-2.707-2.2397c-.0107-1.5253-.3779-2.7123-1.1035-3.561-.7246-.8485-1.7324-1.2729-3.0215-1.2729-1.2461,0-2.3037.4459-3.1738,1.3374-.8701.8917-1.4072,2.0573-1.6113,3.4966h8.9102Z"/><path d="m946.5317,1074.3633h-2.6426v-24.4277h2.6426v24.4277Z"/><path d="m954.5239,1074.3633h-2.6426v-24.4277h2.6426v24.4277Z"/><path d="m973.1343,1066.774h-11.6494c.043,1.8369.5371,3.2549,1.4824,4.2539s2.2451,1.4985,3.8994,1.4985c1.8584,0,3.5664-.6123,5.124-1.8369v2.4814c-1.4502,1.0529-3.3682,1.5791-5.7529,1.5791-2.3311,0-4.1621-.7493-5.4941-2.2478s-1.998-3.6066-1.998-6.3245c0-2.5673.7275-4.6593,2.1836-6.2761,1.4551-1.6166,3.2627-2.425,5.4219-2.425s3.8291.6984,5.0117,2.0947c1.1807,1.3966,1.7715,3.3354,1.7715,5.8169v1.3857Zm-2.707-2.2397c-.0107-1.5253-.3779-2.7123-1.1035-3.561-.7246-.8485-1.7324-1.2729-3.0215-1.2729-1.2461,0-2.3037.4459-3.1738,1.3374-.8701.8917-1.4072,2.0573-1.6113,3.4966h8.9102Z"/><path d="m988.3784,1073.606c-1.2676.7626-2.7715,1.144-4.5117,1.144-2.3525,0-4.251-.7654-5.6963-2.2961-1.4443-1.5308-2.167-3.5153-2.167-5.9539,0-2.7177.7783-4.901,2.3359-6.55,1.5576-1.6488,3.6367-2.4734,6.2363-2.4734,1.4502,0,2.7285.2687,3.835.8057v2.707c-1.2246-.8593-2.5352-1.2891-3.9316-1.2891-1.6865,0-3.0693.6042-4.1494,1.8127-1.0791,1.2085-1.6191,2.7957-1.6191,4.7615,0,1.9336.5078,3.4591,1.5225,4.5762,1.0156,1.1173,2.377,1.6758,4.085,1.6758,1.4395,0,2.793-.4779,4.0605-1.4341v2.5137Z"/><path d="m1000.0278,1074.2022c-.623.3436-1.4443.5156-2.4648.5156-2.8896,0-4.334-1.6113-4.334-4.834v-9.7646h-2.8359v-2.2559h2.8359v-4.0283l2.6426-.854v4.8823h4.1562v2.2559h-4.1562v9.2974c0,1.1066.1875,1.8961.5635,2.3687.376.4728.999.709,1.8691.709.666,0,1.2412-.1825,1.7236-.5479v2.2559Z"/><path d="m1016.8989,1074.3633h-2.6426v-2.6104h-.0645c-1.0957,1.998-2.793,2.9971-5.0918,2.9971-3.9316,0-5.8975-2.3417-5.8975-7.0254v-9.8613h2.627v9.4424c0,3.4805,1.3311,5.2207,3.9961,5.2207,1.2891,0,2.3496-.4753,3.1816-1.426.833-.9507,1.249-2.194,1.249-3.7302v-9.5068h2.6426v16.5Z"/><path d="m1034.0444,1074.3633h-2.6426v-2.5781h-.0645c-1.1504,1.9767-2.8418,2.9648-5.0762,2.9648-1.6436,0-2.9297-.4351-3.8594-1.3052-.9287-.8701-1.3936-2.0248-1.3936-3.4644,0-3.0829,1.8154-4.8768,5.4463-5.3818l4.9473-.6929c0-2.8037-1.1338-4.2056-3.4004-4.2056-1.9873,0-3.7812.6768-5.3818,2.0303v-2.707c1.6221-1.0312,3.4912-1.5469,5.6074-1.5469,3.8779,0,5.8174,2.0519,5.8174,6.1553v10.7314Zm-2.6426-8.3467l-3.9805.5479c-1.2246.172-2.1484.4753-2.7715.9104s-.9346,1.2059-.9346,2.3123c0,.8057.2871,1.4637.8623,1.9739.5742.5104,1.3398.7654,2.2959.7654,1.3105,0,2.3926-.4592,3.2471-1.3777.8535-.9185,1.2812-2.0812,1.2812-3.4885v-1.6436Z"/><path d="m1041.6655,1074.3633h-2.6426v-24.4277h2.6426v24.4277Z"/><path d="m917.8169,1115.4148c-1.2676.7626-2.7715,1.144-4.5117,1.144-2.3525,0-4.251-.7654-5.6963-2.2961-1.4443-1.5308-2.167-3.5153-2.167-5.9539,0-2.7177.7783-4.901,2.3359-6.55,1.5576-1.6488,3.6367-2.4734,6.2363-2.4734,1.4502,0,2.7285.2687,3.835.8057v2.707c-1.2246-.8593-2.5352-1.2891-3.9316-1.2891-1.6865,0-3.0693.6042-4.1494,1.8127-1.0791,1.2085-1.6191,2.7957-1.6191,4.7615,0,1.9336.5078,3.4591,1.5225,4.5762,1.0156,1.1173,2.377,1.6758,4.085,1.6758,1.4395,0,2.793-.4779,4.0605-1.4341v2.5137Z"/><path d="m935.1548,1116.1722h-2.6426v-2.6104h-.0645c-1.0957,1.998-2.793,2.9971-5.0918,2.9971-3.9316,0-5.8975-2.3417-5.8975-7.0254v-9.8613h2.627v9.4424c0,3.4805,1.3311,5.2207,3.9961,5.2207,1.2891,0,2.3496-.4753,3.1816-1.426.833-.9507,1.249-2.194,1.249-3.7302v-9.5068h2.6426v16.5Z"/><path d="m949.0932,1102.347c-.4619-.3545-1.1279-.5317-1.998-.5317-1.1279,0-2.0703.5317-2.8281,1.5952-.7568,1.0635-1.1357,2.5137-1.1357,4.3506v8.4111h-2.6426v-16.5h2.6426v3.3999h.0645c.376-1.1602.9502-2.0651,1.7236-2.7151.7734-.6498,1.6387-.9749,2.5947-.9749.6875,0,1.2139.0753,1.5791.2256v2.7393Z"/><path d="m953.3149,1095.4827c-.4727,0-.876-.1611-1.208-.4834-.334-.3223-.5-.7303-.5-1.2246s.166-.9049.5-1.2327c.332-.3275.7354-.4915,1.208-.4915.4834,0,.8945.1639,1.2324.4915.3389.3278.5078.7386.5078,1.2327,0,.4728-.1689.8756-.5078,1.2085-.3379.3331-.749.4995-1.2324.4995Zm1.2891,20.6895h-2.6426v-16.5h2.6426v16.5Z"/><path d="m966.8501,1116.5589c-2.4385,0-4.3857-.7706-5.8408-2.3123-1.4561-1.5414-2.1836-3.5852-2.1836-6.1311,0-2.7715.7578-4.9359,2.2715-6.4937,1.5156-1.5575,3.5615-2.3364,6.1396-2.3364,2.46,0,4.3799.7573,5.7607,2.272,1.3799,1.5146,2.0703,3.6149,2.0703,6.3003,0,2.632-.7441,4.7401-2.2314,6.3245-1.4883,1.5846-3.4834,2.3767-5.9863,2.3767Zm.1934-15.0498c-1.6973,0-3.04.5775-4.0283,1.7322-.9883,1.1549-1.4824,2.7473-1.4824,4.7776,0,1.9552.5,3.4966,1.498,4.6245,1,1.1279,2.3369,1.6919,4.0127,1.6919,1.708,0,3.0215-.5531,3.9395-1.6597.9189-1.1063,1.3779-2.6801,1.3779-4.7212,0-2.0625-.459-3.6522-1.3779-4.7695-.918-1.1171-2.2314-1.6758-3.9395-1.6758Z"/><path d="m978.2905,1115.576v-2.8359c1.4395,1.0635,3.0234,1.5952,4.7539,1.5952,2.3203,0,3.4805-.7734,3.4805-2.3203,0-.4403-.0996-.8137-.2988-1.1199-.1982-.3062-.4668-.5773-.8057-.8137-.3379-.2362-.7354-.4484-1.1924-.6365-.4561-.1879-.9482-.3839-1.4746-.5881-.7305-.29-1.3721-.5826-1.9248-.8782-.5537-.2953-1.0156-.6284-1.3857-.999-.3711-.3706-.6504-.7921-.8379-1.2649-.1885-.4725-.2822-1.0258-.2822-1.6597,0-.7734.1768-1.4583.5322-2.0544.3535-.5962.8262-1.0957,1.418-1.4985.5898-.4028,1.2646-.7062,2.0215-.9104.7578-.204,1.5391-.3062,2.3447-.3062,1.4287,0,2.707.2472,3.835.7412v2.6748c-1.2139-.7948-2.6104-1.1924-4.1895-1.1924-.4941,0-.9404.0564-1.3379.1692s-.7383.2714-1.0225.4753c-.2852.2042-.5049.4486-.6611.7332-.1553.2848-.2334.599-.2334.9426,0,.4298.0781.7896.2334,1.0796.1562.29.3838.5479.6855.7734.2998.2256.665.4298,1.0957.6123.4287.1827.918.3815,1.4658.5962.7305.2794,1.3857.5668,1.9658.8621.5801.2955,1.0742.6284,1.4824.999s.7227.7976.9424,1.281c.2207.4834.3311,1.0582.3311,1.7241,0,.8165-.1807,1.5255-.54,2.127-.3604.6017-.8408,1.1012-1.4424,1.4985-.6016.3976-1.2949.6929-2.0781.8862-.7852.1934-1.6064.29-2.4658.29-1.6973,0-3.1689-.3278-4.415-.9829Z"/><path d="m994.645,1095.4827c-.4727,0-.876-.1611-1.208-.4834-.334-.3223-.5-.7303-.5-1.2246s.166-.9049.5-1.2327c.332-.3275.7354-.4915,1.208-.4915.4834,0,.8945.1639,1.2324.4915.3389.3278.5078.7386.5078,1.2327,0,.4728-.1689.8756-.5078,1.2085-.3379.3331-.749.4995-1.2324.4995Zm1.2891,20.6895h-2.6426v-16.5h2.6426v16.5Z"/><path d="m1008.937,1116.011c-.623.3436-1.4443.5156-2.4648.5156-2.8896,0-4.334-1.6113-4.334-4.834v-9.7646h-2.8359v-2.2559h2.8359v-4.0283l2.6426-.854v4.8823h4.1562v2.2559h-4.1562v9.2974c0,1.1066.1875,1.8961.5635,2.3687.376.4728.999.709,1.8691.709.666,0,1.2412-.1825,1.7236-.5479v2.2559Z"/><path d="m1025.5981,1099.6722l-7.5889,19.1426c-1.3535,3.416-3.2549,5.124-5.7041,5.124-.6875,0-1.2627-.0699-1.7246-.2095v-2.3687c.5693.1934,1.0908.29,1.5635.29,1.332,0,2.3311-.795,2.9971-2.3848l1.3213-3.126-6.4453-16.4678h2.9326l4.4629,12.6973c.0537.1611.167.5801.3389,1.2568h.0967c.0537-.2578.1611-.6659.3223-1.2246l4.6895-12.7295h2.7383Z"/></g></svg>